<mxfile host="app.diagrams.net" modified="2022-03-15T04:22:26.873Z" agent="5.0 (X11; Linux x86_64) AppleWebKit/537.36 (KHTML, like Gecko) Chrome/99.0.4844.51 Safari/537.36" etag="FDrC0t8W1ItaPE9i_cvl" version="17.1.2" type="github">
  <diagram id="gb-pBtA4cHtjhlFjp4ni" name="Page-1">
    <mxGraphModel dx="1422" dy="777" grid="1" gridSize="10" guides="1" tooltips="1" connect="1" arrows="1" fold="1" page="1" pageScale="1" pageWidth="850" pageHeight="1100" math="0" shadow="0">
      <root>
        <mxCell id="0" />
        <mxCell id="1" parent="0" />
        <mxCell id="sKdKJSVxlEZ-AgYuSEUV-1" value="" style="shape=image;verticalLabelPosition=bottom;labelBackgroundColor=default;verticalAlign=top;aspect=fixed;imageAspect=0;image=data:image/png,iVBORw0KGgoAAAANSUhEUgAAA4oAAALtCAYAAABuC5quAAAABHNCSVQICAgIfAhkiAAAABl0RVh0U29mdHdhcmUAZ25vbWUtc2NyZWVuc2hvdO8Dvz4AAAAtdEVYdENyZWF0aW9uIFRpbWUAU2F0IDEyIE1hciAyMDIyIDAzOjA0OjI4IFBNIE1TVHUk+k4AACAASURBVHic7N15XFT1/sfx14DAgAtYLrgCajJo4rjkVipqKZq5lWuu/Uqze9Vs99Ztubcyu9dsV9sszcwWTTNRu4V6vW5dBTUFFRC9LmilIALDMszvjwF0ZFh0QBDfz8fDx4OZ+Zzvec8Mg3z4nnO+Bktmls1qtZKRkc6F1FQCAgIQERERERGRK3P06FFq1KyJt7cP7u7uFR3HJW75X9hsNqzW3FJtlJ2dTXZ29jWvA0hKSlI+5VM+5VM+5VM+5VM+5VM+5atU+QCs1lxsNlupxq3s3EouERERERERkRuJGkURERERERFxoEZRREREREREHKhRFBEREREREQdqFEVERERERMSBGkURERERERFxoEZRREREREREHFRzdmdJa4qUds2Rsq4DyM3NVb6rrAPlc6UOlM+VOlA+V+pA+VypA+VzpQ6Uz5U6UD5X6kD5XKkD5XOlDkqfz8PDo9RjXg80oygiIiIiIiIOnM4olrYbrog6Nzc35XOhTvlcq1M+1+qUz7U65XOtTvlcq1M+1+qUz7U65XOtTvlcq7uSfFWJZhRFRERERETEgRpFERERERERcaBGUURERERERByoURQREREREREHahRFRERERETEgRpFERERERERcaBGUURERERERBw4XUcxOzu72I1Kery86gByc3OV7yrrQPlcqQPlc6UOlM+VOlA+V+pA+VypA+VzpQ6Uz5U6UD5X6kD5XKmD0ueramstakZRREREREREHDidUSxtN1wRdW5ubsrnQp3yuVanfK7VKZ9rdcrnWp3yuVanfK7VKZ9rdcrnWp3yuVZ3JfmqEs0oioiIiIiIiAM1iiIiIiIiIuJAjaKIiIiIiIg4UKMoIiIiIiIiDtQoioiIiIiIiAM1iiIiIiIiIuJAjaKIiIiIiIg4cLqOYnZ2drEblfR4edUB5ObmKt9V1oHyuVIHyudKHSifK3WgfK7UgfK5UgfK50odKJ8rdaB8rtSB8rlSB6XPV9XWWnTaKIqISGGenp4VHUFuIFlZWRUdQUREbmBOG8XSdsMVUefm5qZ8LtQpn2t1yudaXVXIZ7PZSrU/EVcYDIZivxcr6+ejPPZb2jrlc61O+VyrUz7X6qpSvqpE5yiKiIiIiIiIAzWKIiIiIiIi4kCNooiIiIiIiDhQoygiIiIiIiIO1CiKiIiIiIiIAzWKIiIiIiIi4kCNooiIiIiIiDhQoygiIiIiIiIODJbMLJvVaiU9PY3zKedp1iyIpKSkYjfKzc0F7ItPXss6gLS0NKpXr658yqd8ynfN8zVo0ACbzVbiOCKuMhgMnDp1qtD9lfnzoXzKp3zKd6Pna9iwIQkJR6jlWwsfn+q4u7uXOHZlVs3Znf7+/sVulJ2dDYCHh8c1rQNISkpSPuVTPuWrsHwi14qz78XK/vlQPuVTPuW70fNVJTr0VESkQiTx032NMYxezrGC+yycmNsdv15vEZ1pvycjahkvDO5MM39//Pz8Cew1ked3nC7XZFvH1sYwa085jZ7Mt33qUG+Ds8e28ffmBgxGI8a8fz6BYfT7bA/pJYx68pWOGGZuKoe8IiIiNyY1iiIiFcKfPh8u4ZlfpxHwwUEAMn+exsAPGzHvyxmYvYDdbzC43xy2D/uAnUlJJCcnsnG6J2sHDWb63opNX36a0n2DBYvF/u+PlX1JnzaDvx4reUsREREpO2oURUQqSu1ezF78DHc9N4GpyxcwfuI+ghd/xqT6AMn89OrL/Hj/QlZOaEsdAIwEDn2bbxY8TC8v+5Rj5s/zGN85GJPJREtzOKNXHQXg7NyOmPqP4s7g+hhGL+fAG91p1H8i94cPYVh4GLcPncP3KVceuaj9kbyNhSN6YjabaW8KpHmXqczPe4gjK3mmR1tMJjOm/o/y5e9ZV7RPY21/QnztX59eMZ27O5sxm820CjTTdc4Ofr+s3haziBk9umA2mzGZTNw6eiH/yQSIYGrjMMY/PITw8DC6mc10eGuHfbbSEsPq6f1obzLR3mSi3dTlebO6ifw4vS/tTWbMZhNtRue/bsl8M7AJXUeH07p+IIa8Zl9ERKSqUKMoIlKR2j3GF6/V5KtRz/DVc8v5spNX3gNH2BqVTd3+ZnwcNjASOHQiQ4O94Nwyxk9cTtY7O4mNjeXgssGkTRvJI4fslQcTG/D03tPYlo3E32bjZFJtJq76jhXr1vF1xzUMemZ9iYd0Oihmf7+veJV3Gv2Nf0VHszs2liUtVvPIwj1AIkvHTueDsavZHRtNzBuhpCQYitnJCXb29cPPz4/aRiM+7V/nl0dmMsQXsETy5mtn6PVVNNHR0RyIHE/Nl2ez9Pyl2yfz86vz+eWJVURHRxMbvYgR+/7KtPyjUtNj2NJtIevWbWTrysnc/NxsPjwPJ94bx+D/jeHLPbHsjl3HX35/hQmrUjgxdxxDsh/nu1j7Ptd1XMOgh1fxO2DIOM5241Q2nU7ENjn4Sl5JERGRSs/pxWxERORaSWLP2kRqBhg5u3IjsZMnYCrtplvX8lXz0cR0sk+3GUImMaPTs9y58SgvA4QN4S6vS+rDR+XdNtJwWH/MQ9exmX6El8H+3p/8PZui1vHzgjc5FhPNxl8uQN1kOHeA76M78EJEgL3hDXmAGT1fYVKRO2lEpw1H2dzDfssWs4yJgwfRJ2gve0b0YvbmILas+5QPl8USHRVJfFZtMiyXbu9HnyUbCIxcx5I3E4mN2cb631JILagJYXxYffuXQUE090jmN0sy29fup8WMUbT0Aghk+Nd7GU4SS2/fgu3E0wwyP523vYW63tuJoSdg5Kb+4XmzvSIiIlWLZhRFRCqMhRNzhzP6xH18uuM7njn+JCGv51+4JYQ+XavxW0R0oW32vTqIzouLOtQx7eKXxkKbXpSRDIDP0Xn08DBgMBgwGLvw+BWfC2jfX/wrHWn1yHJivAMJHv0oLwxqkre/DDIMl+74Yijr0nvwMeTtO2QW65yMbggZzYwe7uyNjIVTK5l4SzhPbcqkuimc/3vpYW4rdOXxRL7t04beHxwlxd9Mr6mzePgWx7+J5lz+uji8MHmSE/k1KQXwxuf1TURH22cUo7dvJzriBbrnld1k9Cq8rYiISBWgRlFEpIJk/jyNvv+oziPLZxNWvwuzv3qGu/45ksEbUgAj3R57kju+mMKQ5XvyzsNL5ugX05n01hk6mwOh2wBG7FvGizvtJxvaYhbx9qYQhnYJcLI3C6z7tOD8uv/MX0F0ryF0DJjJ5mwbNpsNm2U7c5sWE7iI/Q3rAtvXHuDM1Dd5fsIQBpptbIuMsW9TuzfDu+znpS8Pkg5Yjyxj8fYcANzv/550W96+Y2Y7ndm0HlnJB5suQFcTxKxldY3+PD9vCmOGhNFy91p+sVq44PA0t/L1tkbc/dLT/HlUOH28ovg+Ooc4Mot5Yv507d2auEVfEgtAEt+M7U6b1UZ6DQjij3kL8s5xTGbXkx1pNHV9ofMiRUREqhqnh56WtA5IadcJKes6sC9mqXxXVwfK50odKJ8rdVA18pWZI4sYP/FHfD/YwYv5zVnIY6x4M5JbJ09g/qbvmNr+L/z4XW2mPzOC0CmnSQe8QsJ55KtVvBDqBYxm4deJPDitM6YUyDUG0vnd5SwMBcuPl+/QiKffKT7ra+aFFAvpXZ9ky7s9Lzv/MV8azOuMcd7FezJ7LeRoxIQi9hdA9rMP0mdmZ0Lf98do9KPjrXdAYiK/05OxSz4gbsII2r9hwN3fTIfmtmJemGPs7GvEiBGjEbL8Amk9egkx4+uD5RHevHUCj5q60NAPMoLMdAjYx38TL32aA3j2uU8ZPshMJ38jVqOJ22/3h8TEIvZn1/DxJayeNoUxptnkGo349HqXmMkBNLT8wKrTU5jechFp3pAT8hBrFgymDsnFjlcWnH0vVvbPh/IVTfmuvg6Uz5U6UD5X6qD0+UqzJuP1xGDJzLJZrVbS09M4n3KeZs2CSv1GVcSCl7/99ht169ZVPuVTPuW75vk8PT2x2Yprciqvs3Pv4Oa4V7DN71nRUaQUDAYDWVmFrw5bmT8fyqd8yqd8N3o+Hx8fEhKOUMu3Fj4+1XF3L3R+xHXF6Yxiabvhiqhzc3NTPhfqlM+1OuVzra4q5RMpb8V9L1b2z4fyFaZ8rtUpn2t1yuda3Y36+4GueioicgO46fEtXJ9zoSIiIlIRdDEbERERERERcaBGUURERERERByoURQREREREREHahRFRK6WZSWjDAYMRiPGS/4Zei3MW4+vDBxZxsSJn5XdeCTzbZ861Nvg/NGtY2tjeP0gALumNcRguPi8PP38Ceg1lQ8OFrcmYZ5vB1L7ktfEw28ob50HLDF8/1APTCYTJpOJFkPn5K3teJni6o6s5Om+bTGZTLQKNNN15vrCr8+RRYysY2bY3uJjpq4YTp2hn11cF7FU+zXT0hzGkOX2tSELKSZfcuRs7utsyhu/mDFEREQqmBpFERFXeHfmsUMWLJaL/2yRUzCV1fhHfua7o+W/Zl+RHt1U8LyykqNZcesWpjy8oMTG9UBkDMmvHyzYNjt5JTNqwYn3xjHo9//ju9hYYmO3s7zx5wx6dH2hZqnouiS+ffAhXh/4FbtjYzkQu4gx/x7LgMWnL25sieKdcS+wOaeYgJYYNjzVl66TvucPy5XuN5pDEePx+tMUXj92+cDF5LNEMGvcctLe2UFsbCz7I0Zg+/ME/lpoDBERkYqnRlFEpFwk883AJnQdHU7r+oEYPjgIpyJ4MW+myWTqQtc5mzgGsPspQruM4k+jwhkQ1gWzOZxxm1PAEsmsGatIj5rHfaM/IxYLR7+YTJ+2JsxmE63DJjJ7j3127+zcO2gx9GHuDw8nLMxM67CpLD6aF+XISp7pYZ8JM/V/lC9/L7w+X+n402F0GK1iotkBpL93B4ZebzlpGhPZuu08rVZMoL0pkEbmITy1yd7I+XR7lvWvjcprpP0wdwmEpKRCjWLRdUZMT3zOtgnB+AAYQ+hg8uRIUn4zncx/pk3hrcmvM6lO0dd5vbBiHu+6/4lv5w0q5X79ufen46RNt+/XlpzM2ep+1PG6fOTi8gUy9N0FLOzkC4B7UFc61D/H/qQiY4qIiFQYp8tj5C9AWZSSHi+vOoDc3Fzlu8o6UD5X6kD5XKmDqpGvkIwdvBPqx8d5N61GM49s3siclmDIOM72uu/y2+nB1CGRpbeP46WRP5E2vS0+yVG8M7AvAQ1+xXYr5MYkUWPxRta2BOvSe6j2wqc8GzmD2W8NZv7fb+WbZRMwbZ1G6Ns3M29zLH18wbLtKfqMfJSQPfPpgYX4xNrM376Au7ws7H6wGR0WPMz42b4sHTudDyZs4fjkALxj3qBfp5VX9hzzWRL516KNHGj3BL0An//7hvh7/WhWqPAUuQ37MOjPc/hrv/pkr32KPiNG8uIvG3mx61D65pedi+S51/bS4pWPqHPZCLWLrPOjTv/wi4VRb/DCv9vwwqvBAPz+yTjGVfs7O8fXYv5LRT+VGmM+YDXAt5+Xcr8ARnyIYck9I3lmwzHOP7aKZfUvH9mP1kXlM0LfIQUvJsfff4p3az7At52cZ3T2vVjZPx/KVzTlu/o6UD5X6kD5XKmD0ueramstah1FERFXeHdm2t7tzG3q7EEjN/UPtzcZ537mqz138GZEW/tMk187HpjUlukrN0IbqBbUlYEt7Vu5h4TQ4pyF38DhENb4yJ/Zn2jl8Z4RefdYSLYEEn0aemAEczh3edn3GxjSDOKS4dwBvo/uwAsRAfb9hjzAjJ6vMKm0z29+P/wW2b/MNfrRrOtovlkwgaYARn+a+TvbqCuTv+968eaAvzHr1gbctzGFF8fbZ9OsR5bxyOAXWf/gag4MKtRtFSiuLmXtdAY8tpdmS1bxYlMg6lXuW3wrC9f3ow7bSvsMr3C/IYz7fi/jkrfxt7sGUzdkH7bxzvMXylcgmX2vjuDer1owZ/3TdHcpqYiISPlw2iiWthuuiDo3Nzflc6FO+VyrUz7X6qpSvtK6yVjo2ESnbPg53PZxUmM4ZyC3/1tsXdQv73EL55MsVPMHC4DR2cgZZBguOQnvkiLr0nuoOXYNGQCmZ4iImU2tyzefup7keZ1L9RwKnIpk8apMOj0c7tDo3py365S107l76k6avL2BxMEBRQ5TdF1+o9WIqavWMzPY/hrv+uQToqMvMC5gEWDh/OkUMvsG0n7xQXb3Ld37UPR+k9i1Mprs3uF08QX8ujK2Zz1e2BYLhRpF5/kAsMTwzbhBPJzzZ9ZsmmEfqwjFfS9W9s+H8hWmfK7VKZ9rdcrnWl15/H5wPdA5iiIi10Lt3oxou4VHP827yqUlik8W7YH+XaDoU+kA8LRYSAOaDehNq4h5zM276mjqinGEdpnFhuIuQlq7N8O77OelL+37tR5ZxuLt9qu8uN//Pek2GzabDVvMbMKLGcYpSxIJSZbC9xuT+fnZRxmzwX65UMu2V5kX148Xe/qS+fN0ej12jHs3bGLZ5U2iJYmEvHMNi66zEP/KPXT/sQ/zNy1yaMI6vBNHcnISSUlJJCVFMKtZKIM3JOY1icmcSSx8LuTlittv7D/HEr5gj32Mc5F8uD6Vm3uZAchKTuRksqXYfJDIt3f3ZXrjj9i9svgmUUREpKKpURQRuSYCuf/zD3lhzQjam0yYzFNZ2f1zjk4uekYNgHYDuP+3V+jYbhbrer/OilfrsWlQMCaTCfPr7jyy/DWGFDtZFsjYJR8w/ZsRtDeZCZ20Ca/mJXSmpZT+8X00H+1kKZDaQ1n49QSaP9kZk8lE65nH6P3VZ/y5fiJLnnyXqMR1zGrrW2g5kbSlY2k+9DNiKbouLnklz76yhZRtL3B3/fzlN/wwzNpTfNiY9xnQdiIfni+uqLh8gdz/+RKm/DTe/v51ncWOB78idoS92/v3g8E0emkPnCsm39q/Mv3n45yd34+WBUuOBNJj89W/ByIiIuXFYMnMslmtVtLT0zifcp5mzYJK3Cj/ZM6SpmDLug4gKSkJf3+nJ8Uon/Ipn/KVaz6DwYDNVjZNlkhxivpeq8yfD+VTPuVTvhs9n4eHBwkJR6jlWwsfn+q4u7uXOHZlphlFERERERERcaBGUURERERERByoURQREREREREHahRFRERERETEgdN1FPNP7ixKSY+XVx1Abm6u8l1lHSifK3WgfK7UQdXIJ3KtOPterOyfD+UrmvJdfR0onyt1oHyu1EHp81W1tRY1oygiIiIiIiIOnM4olrYbrog6Nzc35XOhTvlcq1M+1+qqUj7ntvH35t14/oQX+Usbuvl3oftLb7FyQlt8rmbI3U9hfsCdd6Jn092FZM4l822fFkx9+nfO9C2ixBLB1IazOL0xmhWh9rvSPr6Tug/+SsdNR9ncI++Zfjscj3/ewb5tMzAVua8GPDMjmcODil340UHqiuEELRlI7MoJ1LmCZ1bI1mmEjMlh9sH5eetOWvjpPl/u/GkAbx5dyYxa9rLdDzakQ70IbK+2LWKgCKbeNIebYzfycr2SdprMofcnM+mtvfxhgGw/Mw8uXMistr6lilzc92Jl/3woX2HK51qd8rlWp3yu1bn++8H1STOKIiJlqindN1iwWOz//ljZl/RpM/jrsYrOdZWMXRnY7X+s3H40745kNq48yh2DA/n3su0FZbsj/kPO0PAimsSrYIlhw1N96Trpe/6wlMF47YcRnr2NxQfzx4/k6z1dGRa6m3c3ZubdGcXWrdXoHl5Uk3iFtv6VQW9XZ8bmWGJjY4l+ysr7I19kXdmMLiIiUq7UKIqIlDNjbX9C8iaRTq+Yzt2dzZjNZloFmuk6Zwe/A2Dh4Cfj6dPWRHuTidZhM1l02nEcy7ZXuTM4jMd2pAAWjn4xmT5tTZjNJlqHTWT2HnvDc3buHbQY+jD3h4cTFmamddhUFuf3eUdW8kyPtphMZkz9H+XL37PyHojksUb1MW2+PL0fYUPbQcR2e05LJF8dup0HXhpJt8jv8pqeKNZsr8vQ8GAgkR+n96W9yYzZbKLN6Dl8n3JxtOqLptCnrRmzuQu3zVpPUf3zhRXzeNf9T3w7b9CVvtzOGbsyvMuxiw3v1hWsbjGJVyeEErdyI+kAR7axKq0PUzoDpyJ5a1BnWprNtDeZuW3WemILBkti7/RwzGYzZnMYQ5YftG9/GWuDYfxl4YuMqG+/XbNdV0LOnuKPTCfFIiIilYwaRRGRMnWCnX398PPzo7bRiE/71/nlkZkM8QUskbz52hl6fRVNdHQ0ByLHU/Pl2Sw9D2x9ksGvuzN2Qyy7Y6PZcM+v/OnFTWCwj2rd+DQDJ26mz1freaOzL2x9knvevpm/bI4lOjqWXbPrsWbko3yXCWAhPrE2E1etY+PG7SxpsYoJC/YAiSwdO50Pxq5md2w0MW+EkpKQtwO68uKuHWztVPgZVe89jDt3b2RLJvDzCr7q0J8724Yx2u1nPtgLHIlkc3Zv7g+FE3PHMST7cb6LtT/HdR3XMOjhVQXN8B56MX9nNNHb5zP+x7GELT5deIdAjTEfsHr2YIJ9bWX0vhjpPOz2gob3wIptnBoaTnD//tz583dsyATr1gj+1W0IQ72S+OahKbx931ccio5md+x3PL3vQbp9kNdkpp1ic7s5bI2OZtfKEeQ+OYWXDhXeo3tQL8b3DMi7lcRPT87nx/unMrT0R96KiIhUGKfnKIqIyNVqRKcNR9ncw37LFrOMiYMH0SdoL3tG9GL25iC2rPuUD5fFEh0VSXxWbTIscGLbNg72msuk+gBGGj3+o32WavcP5BxZxJghyZyatInVbe1dRnzkz+xPtPJ4z4i8/VpItgQSfRp6YARzOHd52ccKDGkGcclw7gDfR3fghYgA+/mSIQ8wo+crTMJeV8s/0PlTCurFoLoLWXwwk6YrttGg/7vUwZfevS8wbd1BLjSO5Kduf2Y1SaxcsQXbiacZZH66IFdd7+3E0BO4mXZTR9HSC6AdYyYFMz0imvTx/a7u/M0r5N57KPfM2siWzGD2bqzDY0/VhwYDGFnnTRbsyaRexG5uHhqGj+VnfvjpNJbjgzG/Yd/WzeLOuai8OcXqXXliat45p0EPMCX0MQZuT2FOyyLOPbRE8c24EYzzeI6o13pek+cqIiLiKs0oioiUI0PIaGb0cGdvZCycWsnEW8J5alMm1U3h/N9LD3Obe17d5efhWZI4kJgMgM3bzOOrFjDi2ykM22k/btFwzkBu/7fYGm2fuYuOjmbv9i95qmne9kZnaTLIcNiR0yInQrg7zMrKyO/4ZmMLxoTbG6JWw3rTIHIdERGxtBgahg8WwBuf1zcVZIrevp3oiBcuuRDPxek077wIXkvvwcdgwGAwYAiZVepz+KyXbRe5bFDx4zTozaCmW1n/3TrW1ujPmKYAgQwYVottK7/k+z1teCLMN+91CmHU6ouv7e7t2/ljXr+C163mJcN62+yznlvHetr3bTBgmLTe/uCRZUzpNIpZLT7i4LIJmDWbKCIi1wk1iiIi5ch6ZCUfbLoAXU0Qs5bVNfrz/LwpjBkSRsvda/nFauEC0LBXV4IjP+Wr0wAWTrw3nNYz15NhAA//dnTqOZGPX2vC/vHP8F0mNBvQm1YR85h70N44pq4YR2iXWWwo7vy32r0Z3mU/L31pP6fOemQZi7fn5D1o4XxSImeLuHBMswFduWXRbJY26c/Y/Kt9dhvGoLj3mf1La/4c5gUE0mtAEH/MW8B/MgGS2fVkRxpNXZ936OkfRK3clHc+XyIrVh6lxdAuuN//Pek2GzabDVvMbMJL+dpevl2v0atLGCeQAf092Db7S3b0CqdD3r0N+/cmKGIeq+v0Z0g9wNiN4V338Ma8TXnnZUbxzp1tuDn/RM+0bby7Me/Ey1Mr+exwV14I86Xb51n2fdts2Bb1g1MrebjvHH59eQOHZ/ekaaE8IiIilZcOPRURKVPH2NnXiBEjRiNk+QXSevQSYsbXB8sjvHnrBB41daGhH2QEmekQsI//JgLd/sGqpybzQA8Tr3obIag/yxeMxPvEroKRa4z5kPkrOnLPo0P4bf7rrHh1Mn8aFMxSg5FsPzOPLH+NIV5wtshsgYxd8gFxE0bQ/g0D7v5mOjTPPwdwGy92GMXaZaeJ7eFk027D6HPsMxaMueTKpsZeDG+byMK0v/Bd3vISDR//gVWnpzC95SLSvCEn5CHWLBhMHZKBmzEnzWdY+DzcLMlYhn7DtkGlWyqirDTs1ZWcl76n3weXXNm0fX8GnJnH7ILnFsi9n6/g+Yenc4cpEzByU/+PiJkcAByA6g0IXjGBvp9AVjIEvbOcF510gQlzn2Bh3Am8RgQXzN1ajf3557GLy3GIiIhUVgZLZpbNarWSnp7G+ZTzNGsWVOJG2dnZQMnrjpR1HUBSUhL+/v7Kp3zKp3zXPJ/BYMBmK6uLq4gUrajvtcr8+VA+5VM+5bvR83l4eJCQcIRavrXw8amOu7t7iWNXZk4bxaSkpGI3ys3NBeyLT17LOoC0tDSqV6+ufMqnfMp3zfM1aNBAjaJcEwaDgVOnThW6vzJ/PpRP+ZRP+W70fA0bNqxSjaLTQ0+rQkevfMqnfMpXHvlErhVn34uV/fOhfMqnfMp3o+erSnQxGxEREREREXGgRlFEREREREQcqFEUERERERERB2oURURERERExIEaRREREREREXGgRlFEREREREQcqFEUERERERERB07XUSxpHZDSrhNS1nVgX8xS+a6uDpTPlTpQPlfqoGrkE7lWnH0vVvbPh/IVTfmuvg6Uz5U6UD5X6qD0+UqzJuP1xGmjKCIizhkMhoqOICIiIlLunDaKpe2GK6LOzc1N+VyoUz7X6pTPtbrrPZ/NZiv4i2JJ45V1HUBSUhL+/v7XdL/KV7ny5auMn4/y2m9p65TPtTrlc61O+Vyrq0r5qhKdoygiIiIiIiIO1CiKiIiIiIiIAzWKIiIi1GwJqwAAIABJREFUIiIi4kCNooiIiIiIiDhQoygiIiIiIiIO1CiKiIiIiIiIAzWKIiIiIiIi4sDpOor56z4VpaTHy6sOIDc3V/musg6Uz5U6UD5X6kD5XKkD5XOlDpTPlTpQPlfqQPlcqQPlc6UOlM+VOih9vqq21qLTRlFERORySRf28u8TbxF//ie83WvTsHp7ujeagX+N0IqOJiIiImXMaaNY2m64Iurc3NyUz4U65XOtTvlcq1M+1+oqMt++35ez9sizABiohsWaSsL5TSSc38SAoFdo32CsXj8X65TPtTrlc61O+VyrUz7X6qpSvqpEM4oiIlKs6DNfsP7o80U+nt9ANjTcea0iiYiISDnTxWxERKRIJTWJ+dYeeZbYlBXXIJGIiIhcC2oURUTEqd2nPnfaJDaoHkqD6oXPS9zyxxx2n/r8WkQTERGRcqZGUURECtl96vOCQ0ov1aB6KPff+gX33/qF02Zx7ZFn1SyKiIhUAWoURUTEQUlNotG9Jkb3mmoWRUREqjA1iiIiUqA0TWK+kprFXWoWRURErltqFEVEBLiyJjFfUc2ijRyWHBjHLycXlVteERERKT9Ol8fIzs4udqOSHi+vOoDc3Fzlu8o6UD5X6kD5XKkD5XOlDso3X1FXNy2uScyX3ywu/XUMp9L2ApCadRKrDRYfeACr1UoH/wku5XO1Dm7s99fVOlA+V+qg+Hy5ubm4ublV2nzltV/luzZ1oHyu1EHp81W1tRa1jqKIyA3OlSYx36XNYuL5zWTkXHxs6cGHAAqaRRGBY8eOERcXx3937+Xo/45Tq1ZN7ujSkTZt2tC0adOKjici4rxRLG03XBF1bm5uyudCnfK5Vqd8rtUpn2t15ZFv3+/Li1wn8VTaXv6541aH+57rdtTh9stbAxxu28ghJet8obGWHnwId3d3zHXHXlG+yv76KV/577e0dZU934kTJ9i/fz87f4li34EYvH1q0qBBExo3CeTWDr0498dvRP16mO/W/AsvDwM97uhKu3ZmWrVqdU3yVfbXT/lcq1M+1+quJF9VohlFEZEbVFEzia44n3kSm835Y4sPPIA12KqZRbkhJCQkEBt7iP/ujmbf/gPUqOFHw8YBNG7SnNEde+Hp6eVQX79BI+o3aESXO8JITT3PkbiD/GfhYv44c5Lbu3aiU6eOhIaG4uPjU0HPSERuNGoURURuQOXRJGZak7FYi6/JPwy1S5MHy3TfIhUtLi6O2NhYftm1hwMHYvC9qS4NGjalceOWtOtyF9Wq2WcjPNzdcHd3p1o1N9zdnV9TsIaPF3VvvpkOHTtjycoiMf4wX6/6kTff/YBbmgfStbP9ENUmTZpcy6coIjcYNYoiIjeY3ac+L/MmsahDTp3JPwz1toaTyjSDyLVis9k4fPgw+/btZ3f0XmJiYrm5XkMaNmpKo8DW3HbHAIyeHnh4VMPDwx1Pj2q4u7vh6XF1v3Y1qHcTHTt2IDMrh/j4OLb+N5bl3/6Aj9GDnj260b6dmZYtW5bxsxSRG50aRRGRG0hRS2C4qrhDTp1ZfOABADWLcl2wWq0cOnSI2NiD7PxvFLGxh6jr34iGjQIIatmO23sPwdOzGkZPDzw9quHlVY1q7u5ltn+jlwdGLw9qAnVuakdom9ZkWLI4deoUcYcPEvnvD7mQcpZuXW6jU6cOtG3bFk9PzzLbv4jcmNQoiojcIMqrSSzNIafOqFmUyio7O5vDhw9z6NBh/rtrD3HxCdSt34iGjQO4pdVt9LjrXjzc3fDy8sDb6ImXZzXc3K7d0tTeRk+8jZ7c5HcLzYICSEvvSfL5VBLjD7F0+RrmzH2b1iHB3N61E23atKFBgwbXLJuIVB1qFEVEbgBl0STWNgYUuq+WVxPiko9d9ZhqFqUyyMzM5NChQ+zff4Bfdu3hyNFj1PdvQqPGTTCFdiUsfDgAHh7u1PD2wtvbs0xnDF1xsWmsTv06tWkdaiY728rxY4lE/mcPi7/4lpv8atH99s506NCeZs2aVXRkEblOqFEUEaniimoSzfVHEX36yxK3965Wm0HN/8EtN99V6LHpHbbwy8lFfHPoAdJznGx8ma4Nx7Ht5BKH+9QsSkWIj49n+/ad/Hf3Ho4fP0G9Bk1o2KgpoR26c+fdjQrqjJ4eVPfxwtvocU1nDa+Um5sbNWt4U7OGNzlWKzWrmwgKaka2NZezv58hNv4Q639+l8z089zerQtdOnekbdu2GAyGio4uIpWUGkURkSqsuCZxYPM5JTaKDaqHcv+tX2B0r0l6Ti67/0jnTKa9I6zt4c5tdapzW8NJNK/di4/23s3/Ug8UO96YVosB1CxKhTp+/DjP/202ptbtCb0tjL73NCxUU8PHi1o1vSvNzOGVqObuTm3f6uBbHUtmNjV8vKhTrz4dO99BZkYGCfEHefO9j8nNTueTjxZSrZp+HRSRwpz+ZEhKSip2o9zcXIAS/7JW1nUAaWlpyqd8yqd8yleK8WJTVrDljzmFavKbxJJ4V6vN8OAFGN1rEpNiYc7+M1zIsV+xJttmIzYjm1uM1Xg51B/zTYGMbbWUt3a1K3FmsbhmMSUlhVtrj6oUr9+1rFO+a5vv6NGj1KhZi+DWZgDSMzJwr+aOu5s71Y1e3HxTjeuyQXTG6OWBRzU3bFYLcfHxRP26j3NnfyPXlsvRxEROnDiBl5dXlXp/lU/5Kipfw4aF/+h0PXPaKPr7+xe7UXZ2NgAeHh7XtA7sTazyKZ/yKZ/yFT/evt+Xu9QkAnRu8H/UMjbifxeyHJpEgOOZOeTa4GBGDn/edZLPOjemeS0zvZs+z5qEv5U4dlHN4qoTM/H19cVcdyyg91f5yiffhQsXcHe/+CuQNdeKNcuK0csTX18jNpuNHKsVNzc33K7DQzOtVispKec4n5pC6vkU0jIugM1GdnYOKcl/FPyC7O7mhr+/P15eXlXq/VU+5avIfFWJjjUQEaliktL2FXu46aUCfW8vcpzQusMA+Cz+rEOTeC7bynnrxdunc3J5I/Y33uvUmNsaTOLwuZ9KlbO4mUVfcxOCfHuWahyRslLbrwbY7I0WAAZww2BvGN3cMBjcqIx9Y3ZODqnnk0k5n0xqagrp6WlA4fVqPDyq0bRRQxKOXv0FqETkxqFGUUSkitl0fF6h+4qaSRzb+otix/rdkkN0SmbB7WybjePZhdfC2PBHBkkZ2fh7B/LnDltKnbWoZnHj/+apUZRrytOzGj5el609aINcbORarWC1YjAYCmYZDRU425iVk8X5ZHtjeCE1hQxLeqm39fevp0ZRREpFjaKISBVzOn2fw23TzQNKfbjp5X7LdDzhMP+QU2eSMnLw9y75EJ7LjWm1mIycZKLPfF9w374/1l7xOCKuqFndu8Qam82G1Wol/08lbm4GDAY33PNmHMtLVlZW3qGk9hlDiyXjqsfyNhoxGo1YLJYyTCgiVZEaRRGRKiaXXIfbR1O2cSYtlnrVTVc8Vg33i7/8Xn7I6eVqVru6X5RPpu7h0NnvSy4UKUeenlf+R47cXBtgxWq1YjCAm5t7mcw2WjIzSElJJvV8CqkXzpOZefWNoTN+vrVIus4axQYNGlR0BClnNlvR/79IxVCjKCJSxTTwaUvi+c0FtzNyzrFk/yjGtf6yULN47PzOIsdpWqsTTWp44lPNQEp2rtNDTvMFe1ejeS0vMnJSOJkaVWRd89phDrdPpu7hrV3mQldKbXPzgCLHECkPni5e5dSWd27jpbON9nMb3YttGm02G2lpF+wXnklNITX1PDk5WS5lKYmP0QiA4Tr7vVyNRNWl9TwrJzWKIiJVTM/GM0k8sNnhvqKaxcW/Di9ynMEt5tGm3jAmN7+JadFJRR5yCjArpC4Av55ZyeIDRa+F+M6dFwcpqkkECGsys+idiZSx7Owscm25QNktiZGbayM31wo4ntuIAS6kphY0hhfSUsm1lrCmTBmrUaM6ADb9bi4ixSi/A+pFRKRC+Fdvw4CgVwrdn98snkmLLdU4m4+/CcAd9WvwQBPfIuumB/hxe/0aAKw98kypxi6uSRzf6hOCfHuyceNGPv30U7Zs2VLi+lUirkhJOcvceXP4YvlSoqJ3kZZ2oUzHzz+3MTsnh+PHjxITu4cTJxI5f/7cNW8SAapV0zyBiJTM6U+KktYBKe06IWVdB/bFLJXv6upA+VypA+VzpQ6Uz5U6uLJ8beqMxJprZf3R5x0eL+4w1Mudsxxl9eHHGHTLG0xrVZfu/jX48kgyv6baz226taaRUUF+mG+yXwTkiwPj+T3jdInPo7gm8f7gDzHXHUt2djY2m43IyEg++ugj4uPjOX/+PM2bN6dFixY0b96cZs2aERAQUPB1SarS+1tW+71R8+V/f+XzreVL08ZNSUiIIyEhjh8i1tDQvwHBwa24pcUt1KtXv9Q5ric2m/21cHNzq/Tvr1R9lfn7r7Sfj9KsyXg90Z+UrlPvvfceUVFR7N27l1q1arF58+aSNxK5jvTs2ZOUlBTatm2L2WzmT3/6U0VHuu6Y640BKLZZLMnG/83jt4w4xrRagvkm34Km0HG8FL44MM7hqqVFKalJ7OA/oeD2HXfcQa9evQpup6enEx8fT1xcHPHx8ezevZuvvvqK+Ph4Tp06VdBA5jeO+V83b95c579IsWrW9OX+MePJysoiLu4QMYdiORIfR+Smn4jc9BN+fn4E3xJMy5YmmjZpisFwfR+QVduv6CMERETyOW0US9sNV0Sdm5vbDZ1v9erV3HvvvUyfPp1evXoxc+ZMzGZzqcYRud5ER0cTFRXF/v37qVGjBitWrODuu+92qLmePr+u1l1NvtsaTcDdzZ21R551eDy/WSxOevZxsnMh+sz3HDrrR9t64wrWPcz3xYHx7DmzxGnj50xxh5ve1rDwuY2XPl9fX1/at29P+/btC+7L/wuvwWAgLi7O4d+6desKmsqgoCCaNm1Kq1atCmYl8xtLLy+vYvdbnIp+f69lXVXLd+kfD7w87b8OeXp60qrVrbRqdSu5ubkcO5pIzOFYDh8+yI5fdrDjlx0Yjd7c0rwFwS1NNGt+C57X8QyCwWB/LTw8PCr9+ytVX2X+/ruSz0dVohnF68gTTzzB4cOHycjI0PkFckMwm80Ffwh59dVXGTZsGFu2bGH27NkVnOz60r7BWACnzWJRrLkZpGZfXGYjPQe2nVxSqFHcdnLJFWW5kibxSlSrVg2TyYTJ5Pxw2oSEBHbu3MnZs2eJj49n06ZNBU1k3bp1CxrHwMBAmjdvjslkonnz5tSsWdOlXHJ9cLYGopubG4FBzQgMakb/vgM4fSaJQ4cOcvBgLPv272Pf/n24u7sTEBCEqWUwwS1NVK9eowLSi4iUD3Ub14knnngCg8HAqlWrKjqKSIXw9PRkzZo1PP744zz99NO8/PLLFR3pulJUs1iUlKzfyjNOgbJoEkujWbNm+Pj44O/vX+ix48ePF8xCHj58mG+++Yb4+Hji4+Px9vZ2mH3M/7pp06bcfPPN5Z5bKo/69fypX8+f7nf05MKFVGIPxhJ7OJbExAQSEuJYu+4HGvo3JLhlMLfcElxlz2sUkRuHGsXrwOrVqzl8+LCaRBFg7ty53H333URERNC/f/+KjnNdKW2zmH/IaXm7Vk1iSRo3bkzjxo0JCwsrOJQ1/xCjM2fOFDSR8fHx/PDDDwVfW61Wp01k8+bNtTh4FVejRk06driNjh1uIysri4SEOPbH7icuPo6Tm08SuTkSX19fgm8x0a5dB+rWqVvRkUVErpgaxevAvffeS0ZGRkXHEKk0vv32W2rXrs358+crOsp1p6Rm8fJDTstLZWkSS1KvXj3q1atHt27dHO7Pzs4mOTmZo0ePFjSOmzZt4uOPPyY+Pp6UlBSHq7O2bNmy4HZAQEAFPRspD56enphMrTCZWpGbm8vRY4kcOhTL4cOH2PnfHbh7VKNP2J0VHVNE5IqpUazk3nvvPaZPn65zEkUuYTQamTJlCgsWLGDatGkVHee6077BWKdLZ9jIKfaQ064NxxW6z1zvnlJd7fRS9wd/eF00iSXx8/Ojbt26dOzYsdBj6enpxMXFERsbS0JCArt27WL58uXEx8dz4sQJpzORtWrVon79+rpCawUwGj3LZBw3NzeCApsRFNiMfn0HcPp0kpaAEJHrlrqPSi4qKsrh8vAiYtemTRu2bt1a0TGuW86WzriQdbLIQ067Nix8xVOA/wtdzTu7u3Po7JZS7ffyJTCqKh8fH0JDQwkJCQEcr6qXk5PjcDjrwYMH+eGHHzh06BBHjhwhKCjI6eGsLVq0cHrRFam86tcvfE5sZaE/QItISfRTopLbu3cvM2fOrOgYIpVO+/btee+99yo6xnXNXG9MwdIZWbmpRS5x4VMNhrZ8u8hx7g9ZwpwdQSUukTG+1SeY6451IXHVUNQVWpOSkvD39ychIaGgiYyLi2PTpk0FX9etW9ehgby0idQVWuVK1KhevaIjiEgl57RRLOkwidIeRlHWdQC5ubk3VL5atWppnUQRJ9q1a0fNmjXL7PMGN97PF4A2dUZizbWyNHZikbVt643Du5pfkY/f5B1Iy5uKPwT1/uAPMdcdW+Vev7Kqg4v5mjRpQpMmTZweTZKYmEh8fDzHjh0jPj6eL7/80uEKrfnnRAYFBRWcG9m8efMir9BaFV+/0oyXnZ2NzWYr9dhVkSUzE5vN/lq4ublV+vdXqr7K/P1X2s9HVVtrUTOKldzmzZsrOoJIpaXPR9kw1xuDNTebpQcfcvr4zcagEse4ybvomhvlcNNroVGjRjRq1MjpLyNnzpwhPj6ehIQEDh06xPr161mwYEHBFVrzm8hLL7ITEBDgdMmQG43FkoWPV9mcp3i9sFgsFR1BRCo5p41iabvhiqhzc3O74fKJSNEq++f3esnXpcmDuLu7s/jAA4VqDiX/TD9eKnac46m7nd5f1NVNq9rrVxZ1rubLbyJ79OhRaJmP5ORkh8NZt2zZwmeffUZcXJzDFVovP5z10iu0VrXXTxcNAoPB/lp4eHhU+vdXqr7K/P13JZ+PqkRnxd9Iol6le/0uTN+befG+cxHMbBFM+w0pFRYrdcVw6gz9jN+LKjj1CYPdfTF8cNDh7rSP78QwdDnpxY5uYeergxhXHhNPu5/CbJ7Fv8th6CsXwdSbwnjxGEAUS+55mIVZFZ1Jrje3NZzE+FafFLr/+PktnEzdU+R2J1P3OL2YzfWyBMaNwM/Pj44dOzJy5EieffZZFi1axObNmzl69CgnT55kyZIljBs3jrp167Jr1y5mz55Nz5498fDwICQkhIEDB/L888/z7rvvEhERweHDh2/4QzdFRKo6HXp6I2n3F1bOjqTlyEfptn0+o3xj+Hz4ZBY9tIaTfX2vfR5LDBuen8FjCzfzR7eBJRXj8dQEpnfZxNuhXlewk2QO/xDFL3e4EvR60IuXdrfDrSlgSeSHn5O4raIjyXUpv7G7dGYxPQc+PzCGaR224l3N8WfFWctRPj8wptA4ahKvH/lXaA0NDS30WP4VWuPj49m9ezcHDx5k7dq1BVdtDQoKcpiJDAgIoEWLFphMJry8ruRndcXK0rlyIiKFaEbxBlPngSV83eF7Rk9cyOrpI3io7j/Z+3RbfACwcPCT8fRpa6K9yUTrsJksOm2//9D747kz2H6VvtZhU5l30D4reXZuR0z9R3FncH0Mo5dz4I3uNOo/kfvDhzAsPIzbh87h+yImKy+smMe77n/i23mDSg7u3Z8XX/Rk0YQX+THTWUEiP07vS3uTGbPZRJvR9v0ef/8hZv/6G2cmhzF55YcMrjuEt/LWaN/9YEMMvRZyDIAo/nZrFx45BJk/z2N852BMJhMtzeGMXnXUvsHWaTTvMoTxnQO4KWQqa7IvHrZk2fYqdwaH8diOFEjexluDOhPaxUx7k5luM1cRm/f6Hv1iMn3amjCbTbQOm8jsPXlPxhLD6un9aG+yv/btpi4nOhNOvtIRw8xNBfux395B/gziqFFtCfLvwqidG3mh/SjePZbEmoee4sf0jbzfYyrLPh6EodfCvP0DR97nzuCpfJcJyZFPMbytiZZmM21GT+Se4DAeP1b4eS7NLPr9Lz5fF+57eAh9hwxhQFg4Q5YfLGH2VyoLZzOL/0s9wItb/Fif8ALx5zby65nvWHl4BnO2B/K/1AMOtWoSq478K7TefffdPPTQQ7zzzjusXbuWQ4cOkZuby48//siTTz5JmzZtOHHiBIsXL2bMmDH4+vrSpEkTwsLCePDBB3nttdf4+uuviYqKIjU1taKfViGZWSVcslektLZOIyTQ/v+snYWf7vPCUHtowe8fkPc7yF+KPlIj///5585cyc6T2f1gGwxvH73i2CLOaEbxhuNPn4++Ztat3Rgc+zCrt4+kaf5DW59k8OvuPL0plkn1LZyYew+3vLiJMcM/p8/b7szdHMuI+nDhi+F0HPwMQXvm0QM4mNiAd/ae5l9ecHbuO5xMqs3E7Z9yl5eFk6/cRaNnzKTN75fXjF5UY8wHrAb49vNS5DZy8yOLWfSvDvR9NJzf5vfE+5JHT8wdx5Ds54iJ7UdTLJyYexeNHzbx27IPmbX0Nv4+eyMf9Eji23f/xivbM5nRdzdrtntQ50IEK89PYcaJCCKqDWVh/WWMv3M5hm92EtvJF1vMfAb3G8kjIdt5H/COSqLBvkOcbekFu5/iOcC68WkGTtlDn6/WM6utF2kf/5VHq/+F37YPpo4lis+mLyTy6GBMJ57knrdvZt7mWPr4gmXbU/QZ+Sghe+Zz23vjGPy/aRzcM4GWXol8PXwQE1aFE1HcS5IWxc4BhzjyZX0ggql57+/AD1/nrhWfcdvm+YzOjWTn8zN5+9AU3m8J8V+8x0/DvuBf6cuYOH4nDX7Yw9ehXqSuGI55hYWWeUM7PM+fH6JJEe9/p2LfsyPs7raKhPH14dxKHu40hb923cjcpsVuJJVEUTOLaxL+BvytyO3UJN5YmjVrRrNmzbjrrrsAHM6NPH78eME5kXFxcXz99dcFX3t7e9OsWTNuueWWQudHFnWF1vKUk2MlKzsbzxvwHCQpY+2HEZ49k8UHYUgoYInk6z1dGRa6m3c3ZjJjkBcQxdat1ei+oG2Z7dZ6JJKPp0/h6R+PwetlNqzc4NQo3ohiItmcHUD9C9v4aE8K9/SwH0p2Yts2Dvaay6T6AEYaPf4j6cCBPz/A8aErGFHfvnmNMY8x7ImpLD4IPQDChnDXpUcYhY/Ku22k4bD+mIeuYzP9CHcxdo5nIPd9+BETOo1nUP+d/FjwSBIbV2zBduJpBpmfzrvPQl3v7cTQ+ZIR/Ok/LID7Vm7H1uQ/rGryGC/XfI+F2zO5b98Ktvf/mNAt/+Sr5qOJ6WR/TQwhk5jR6Vnu3HiU92+FzJBeDGx58cnmHFnEmCHJnJq0idVt7fdX7zaMe16aTNv+yxgYHs69j79G3wCI//xn9idaebxnREHGZEsg0adTsK7dT4sZo7APHcjwr/cyHDj5SjEvSPV2jA+rX/yLZuzFtNE5NJ+/g/dnp/Pxoro89nNb2PpPPmsxmqN5h/HWHPYII5u8RP4fQC99ngdW/Fzk+19so+jTlRlD8jaq3Z/hbUdx58YU5o6vgMOcbzBlde7YbQ0nYbVai7wa6uUGN5qnJlEKNG7cmMaNG9OzZ89Cj504cYKEhAQSExOJi4sjIiKioInMv0JrixYtChrR4OBgWrRoQYMGDcot74X0TG7yVaMoLjJ2ZXiXY9y+/SiEBsDWFaxuMYnI4d9gWrmR9EH98DmyjVVpfZjSGTgVyVtTnuG9Y5nUsID70Dksmd0P+yqrSeydHo45NgnwI3DWQr4YGVzoD+9gYdsbb7L1viV87T+Mu67tM5YqTI3ijeZcBA+PWEjqPzbz64U/EzL+YRbtWMak+mC4/ErZliQOJBmdDHJZ4eUllz6ckQyA17JB+Iz5ngwA0zNExMwusnHcOtaT25fmnS8ycR22Vy95sMFQPlwYQegjU/h0ZP7VWiyANz6vbyJ6RF4TYknmpMVIQ5JZesnmPgPG0PvD74ho+V929/+IsdW/5+GI74j4JZuh77eF/zlLlFbwVa63n8MPaJu3mceXj2LnuCkMG72DdZ28IOQRVh8axv7IjWxat5K/93iRZ5bs4ZtzBnL7v8XWRf0KDvU9n2Shmn9G4ZnD5ER+tfhz02WvZ4b9FcxjxOjs7blMsz89Qp/wT/muZxoftJnE7qbAr5e/2Y4DXf48HVmKvOmYz7HIYtEVBq+FhIQEvvjiC156qfirlJZW/rIWJTWL41t9QhO3/mWyT6n66tWrR7169ejevXuhx5KTkwtmIg8ePMiWLVtYvHhxwRVanV2dtUWLFi6fE5mSmoZfLR/cDFX/rJzUC2klF8lVMtJ52O3wzXZ+nxzAmRXbODX0ZYL7p3HnS9+xIbMf92yN4F/dHmSVVxLfPDSFt0f8SPz4ACCRbwZ2p9sHWzg7GUg7xeZ2yzn5ZVu8jrzP0J5TeKndRua0LLzPO95ZxR3Arv/qIlNSdqr+T0O5RAyfDx/HwoGL+WlEAHUeWMKqO37hgVEL2QU07NWV4MhP+SrvvMQT7w2n9cz1NLy3D41XLsi7H1JXfMIXnl0ZH+xsHxZY92neeYnJ/Gf+CqJ7DaHz6NWk22zYbDZsxTSJAN0+z7LX2WzYFvUr9LjHgLf5/J54nntrZ949gfQaEMQf8xbwn0z7fnc92ZFGU9fzO2DzzsCanDdXFjSA0TV+4LGFqQwNC6Z67wHcueJpnk8bwMxQoNsARuxbxos77SdW2mIW8famEIZ2CSiUA8DDvx2dek7k49easH/8M3yXCSfmdqf+1D3U7z+KR95ayIvdzxMVm0yzAb1pFTGPuXnn96WuGEdol1lsyPSna+/WxC36Mu9cwiS+GdudNqtP4+vvB7Gx9vuTt7H0u4NOc1zOO9dCRn4DFzSGR9tnn5SsAAAgAElEQVT8i0cf3UnTqaPshxp3HcaI+GX8M+8KuClr32f1/5yvqdVqWO8i3/9i86X/zEtf2s9LtMUsY+HeLrwQptnE8hQZGcmAAQN47rnnynTcDv4TnF4NNV95HW66Zs2aMh9TKj8/Pz86dOjAyJEjmTVrFh9++CGbN2/m5MmT/PbbbyxdurTgCq1RUVEFV2ht0qQJJpOJgQMH8uijj/LOO+9c0RVac3NtnE2+cA2eYcXLydE5meXJvfdQ7tm1kS2Z0XyzsQ6PhdeHBgMYWecnFuzJZEfEbm4eGoaPZRs//HQayxuDMZvNmM1DeDXOnXNReVcWqN6VJ6baryPhHvQAU0K38/r2irtKvdx4nM4oZpdw9a+SHi+vOoDc3FzluyrJHPjzcMZZ/8qW13pSBwA/un20hJc69qXjLDNps//Bqqcm80APE696GyGoP8sXjMSvfj9+mj6dST1MPG8Ad/9ePLbqTYZ4wdlC+zHi6XeKz/qaeSHFQnrXJ9nybs9iZqeuhpEO/1jM37Z1ZHrePQ0f/4FVp6cwveUi0rwhJ+Qh1iwYTB2gy4AQ0sYH0OztPSSMD6T/0Fo89O5tvBIK0IvuNZ/iX/1H0R2g9mgWfp3Ig9M6Y0qBXGMgnd9dzsJQYGvRiWqM+ZD5Kzpyz6NDODf7df4y/mHuMD2N0Qg5IS/wrwkB4Ps6K16dzJ8GBbPUYCTb7//Zu++wps4+jOPfsBKGLFEBB6hUQh2IWvdAsbjaOuuqVbFV1LpttdbWaoejrWLr1r5qrbtuW7fiqNsKahW0KkMUFIEAAmGEvH8EFdnISIDnc11cmuTJOXdOSMgvzziNGbttPr2kwNTf2Tfem8HyeaTLZJh0XErAKAdMFd+yeO9oPOU+GFo25pMmbQpweNzo4XETr3ruxJ8+yYJ6lrwzoiVDb9qw0jPjG3erQaxe6ceQ952RSyyxcnPESirDOKceyk4/5vr80zevfPY0OeFN6+URJOJImzXbmF0C8xOL6/UGZfv9ZcOGDWzcuJEbN24UaJuFzde4yhAsGtfk5AMfbkQdwNgAnCy609VxDnZmrqSmphb78atWrRp9+/Zl69atRd4elO3nt6T2W9byGRoaIpdrFtbKKjw8nLi4OO7du8e9e/derND6vHfS0dHxxSqtFhYWJCVmHwERG5+IiYkME6lRgfKVdWq15hjr6enpxPNbbth14r1aP3N4jwN+Zt1YVgvAke59zJm6eyv7rzXk00UWQBJJEhcG7rvwcv6+IoJomS1wEJBRKdNmjTO+8Mg28iqHL9XLIl3+/Svo66O8nWtRokxOUatUKhITE4iLjaNOndoFfqLyOxjF3Q4gMjKSKlWqVJh8pqamZepcVdEL21L57veoV2SfkyJoi4KrH7ejaaMdqCdkdAPH+LJm1WPemjyQxlLAbxptBqUyJdCHvsWyz4OMsV5A5cCTfFe1WDaYI4lEQkpK3ieMrAjvL99++y0hISH8+uuvOpmvKPvdv38/q1ev5tChQzqZT9ePn8j3UlBQELdv3+b+/fv4+/uTkAL9BmcfUq2nJ8GhepUSG4L6+PFDwsNznOdQamIUsVy9doMH9/7j4P7dSKVSnX9+jYyMytTnoUffN6P7H2lc6/Yb6nkZi9ZcnUbjEUdItfJip+9E5ASz08OFfo0OEenTARulH0vaejJh1BXUo24xRjqcY3/c4b/3LCB8C8M6rKL2sZN5fun6z3h7mr1xHvWEnEdC6ari/Huuzfc/ExMT7t8PwtzCHBMTU/T19fPdti7LsUexoNWwNtrp6elVuHyC8NpitjDcaTRbmn/BkWWZxgpbuSCPnscI19mky2Sky+R0XbWqmIrE0qXrr9+SzjdixAhq1arFb7/9ppP5irrfAQMGYGNjQ6tWrbhy5YrO5dP14yfyvVSvXj1q164NaIrGxct+zbFderqah4+jqV7NutzOV1QoNMMXJRLNsTU0NNT557esse/YirQ5++myOtPKpk260f2JD/MGd81YrMaRvht3MWv0BNrKkwEZ1t1+JWCUA3ALTO1w3jUMz7WQooDaS0pmZI6u0OXfv8K8PsoTsZiNUKysp/5N2fm+rwKwGsT6qEGsz3aDLe1+OMLVEltCuxsrosXCJiXNw8ODIUOG4OVVvlca9fDwYNWqVdStW5d79+5pO45QAaSkpJX7YlEoYa2X8G/KkixXdmTuo1Qyr9GHXTfm7O1G9uXHXu/vaNMlj8TnMKHYiEJREAShDHJycmL16tV06tRJ21FKRdOmTTl69CiVK1cmKipK23GECqA8F4upKpW2IwiCUAaUr3c+QRCEcu7Ro0cYGhpy+PDhClMkPlenTh3+++8/9PX1iYuL03YcoQJISUnjQXgUKeVs0ZUYhULbEQRBKANEoSgIglBGXLlyhbfeeoukpCTq1q2r7ThaYW1tTWpqKjVr1iQ0NFTbcYQKIC1NxYPwKBTx5ePcg2lpKp6J8ygKglAAolAsR6KWtcVYIqfrpczXKtjpYcwb+wB242XclflPinvPASx9Ux+JTIYs48fI0hG516qM8xoWhh+/vzuaVTktfBW0m+mersjlct50bEyryYczzjsICt959Gshz1g23Z1e2zTn78tOwd/j38Le0hbJmMO5tClhyvMsaef66vMUfpCve2oeWy25Oz32hQCQuOxtrDIdV5lMhkTmzpe5PocKrn7cEMkvIZl3yO21Q+nsLEcud8Sp988cf34apqAtTGyv2W/dlgOZdy3nJ0zhO4/3XR2oJW9Mfffh/JKtXU77LWA+ZQD7R7anibwxcnljWk/e++J5FV7aunUrc+bM4eHDhxgYVOxZA3p6esTGxtKuXTtu3Lih7ThCBREVE8+DiKckJue9MqOui3wqhm4LglAwolAsNwLYsiyStwdYcNhnL09Lff/GVNmnRKnU/KQE7+aT/6bQds61wm1GGcxfJyLIfsrjCHZ+PJIf3tnO1cBAbgWuY/CZIXTf8BiUB5nx4TYSllwkMDCQmwf7ox43jK9y7GzwY9MmfXpdikC9oksxn98xfzHnV+DdvBefXc5caAWzc8gofm69gauBgYTs9iT144n8HAcmnxwlRvn8uAbz1zs14Zuf+SKHU06ognxZ/W5zPDb+9+oNJ6bR8wd9PjgdSGCgP6tMf6TzgmtAML9+OJ2T444QGBhI4Cxztg/4nKNZa8CYLXi/v42UJdcJDfTn3xWNONrfm03J+ey3gPkeLvuQ955+xOZAfwIDtzDi8scM2C5OKJzZggUL2Lt3L/v379d2FJ0SEhLC8OHDOXPmjLajCBVESkoa4Y+jeRoTR7o6XdtxXsv9ENETLwhCwYhCsbw4sYhliZ0Yu2A47x3zYWm+fweU3Fn+vJdJTn33MfjcToYDH2LZcRWau/tpegp/yCj2gpbT2XkMOwuSx9KND3q7QEAgT4HkEz4MbeGMXC6nXuOuDNqb0aN0bjx1W/ZiaAsHrOXDmPXxdI4mnmR5+zH8GqvkeD8pki+uATLkn27k/DBnTXEnc6Gp3IigCAXgSO+lK1nV3AIA/dqtaFothpsRWUMF8Pu73uxLCGTnMHemXjzEGGt3Bg50pbZtSwZeyiPn1Wk0ajmQ8T3dcXdvTL3GA/lp/Xw+6tUVD1c5cq9tGb1gvkypXg356ZwOynk2zLtGvSXb+KJhpjXJgg6w8m5nlk1yxQSQuExh0+nFfJjlfM8J/xtJ36hxXJnmmkOBq+T8osWc6/c7f3xY+ZVbrm7ewe2xs/GqBmCJx9K/uTHBGYIOsP2OB9N6VgPAsPsYehscYGHW2j7gHFdrdOPT9prjK3HpRk+zv/j2Yt77LWi+6lOvkLRlmGapcIWCR8nG6FvK8thWxTJ27FhiYmLYsmWLtqPopH/++YfZs2ezd+9ebUcRKpDY+ERCHkYSl5Ck7SiFEhQcilKp1HYMQRDKCFEolgsKji/fSWDv4XR1GMSoFheYszKfnrwT4/H4RZ9RpwMJDAzk4qinrOr5Ofvb9KHX3YNsiAOCfNmbUAWLgxcIBBJO7OJ4p4EUZLHmtHBflm69Da0aYxOzhaHDt5Gy5BKBgYHc3tKThPEDGHtH09bYLwK73+8QHfgb3/y6gLdN3Bl7egUfW8josPQ2D6e5ApbU79aVlhYZO/BbxNdnGvL1QGeQueDZqyWaUwspCVs+jaWVRjCzedZULny4/2feM23MyL0nWdhCDQl+XOp+hKCIC2x9I++c6X4RmPx4kpMnL7C+wWE++82Yz/Yc4vjFFXQ7Mo9f7gC0YvY/FzmXbd+a2ybuW8nUDtWwyrx2dZAf1+1lxE7riYernHqNB/LFbQnWmWsl5UE+/foBXReMpmmOR1xG2yV7WT+sBVayzBuPICAghY7huxnZpSVyuZy3Jh/msbEMwgMIsrellvR5WzvqWjzgXtYC26U1TcIO8s2RxyQCyvPr2HA9jqcRsXnst6D5Mm6VwY257ajv3JGvbaaypIM0h21UPD169KBhw4bMnz9f21F02vHjx1m3bl22c0kKQklKT1cTGRVLyKNIniXpfvEV/yyB0IePtB2jZO18HxOJJNN0DUvM3bridTjnaRHRC9siGXPqNXeWx1SZPJ3n27oOtD8NxTN1J6epHwquL3qPNs5y5HLNVJ2c+w+Ks52S4/2sX5kqI5NJkLjNQIz5KLtynOgSEZGtK+YV6ema4RZ6ennXmcXdDiAhIaHC5ctX+C5+OVSL8edaANBlxLtUHbuYrdPXMdAi57vc2nWCsN676K/pTMJs8BT6fDqG9SGzGdtiPKNPxjI58gCXBs9hxI6D7IzrifPuUNpNa5nLcM0k4t6z5HlHkJGlI069f8VvojMc+47tdQcR0Px5j5QXE5vPpPPJEJY3gGSXjrxTL+fCwMDWEfss18UemED3Kdep8/veLCeeVXBjbn/6bndiweHptCvAocPUjaHuGQfh3IHcczaDZJdWvFMPQIatbXWo0lLTCyazpY5dEn8pNLeZ2zoWZM+ZKNG/eobVkw9z7mdnJH4+DPQcwFiXCyyvp2mRsGkhKxtOJqR5YQsoJRCF74XHzNxzgTXSYI6N70zn0bYkTZAAllnamxCbtTPPahCr/ghm5KTmvDnKCqtuY+jZ0ZCbFG+vX8MvznDziwjODWlLm9FyItd1waYA9yuu1xvo1vtLx44d+fLLL/Hw8HiRSZfy5USb+VauXMnEiRMJDQ1l5MiROpdP149fRcsXGRmJSpWW7zYLIi1NxeNIBbFSI6wszTCRGuV/p1IW+TSKW7f/Iy3t1cesSk8nIiICqVSq889vQSW1nM+V89MzvlRV8njXKFoNmMTPobuZaP5qW+uPdnBPmfXvYAFlTJV5q4h5NVN3nvHEM+Oiwo8l77Sl7ZyWqOe65nlPVZAv/5vgzfSjoZD5vMgHxtP7j/qsvL6Pt9UBbHzHE4cNV1APrfbqBoq1nQyPHdG8+MokxpcZ7Sdx9ufPC/Z5jPJRf9jbZ/3UWrblWCja2trmeafUjGWiDQ0NS7UdaH6JKlq+/Dxau5zDacHYvufIPgCUpCgUjNk2n4GjClpYaF7aaixw7+3G3d2HOPDsCa0/G8g7//3EzN17uHbHgyktpKg2vUulIX+SBCD/nIMBwwBjzPcpXr7R5evlimvpxpYFnCv4vBCszpi9h5nsnOmxKQPY8eF7jE4bx5+nJr7oeTw3xIg2mzKO4/BDqNdl3aYMWZ71zsucJtmKqmJi6YK9pQHj+2cMq3XzYmijLxjln8zyelIgmD1r/ak8cSe18tlUdrbY2hlB+9F4WAA40tmrG05jL/CvnQuOMZcITQakAOHci61O22y/vkpS7bz47dqMjOfpPN/Wrc5bjsXT6xfuu4Ub9n3wdJYCtrQe0RG7qScJoEuB/rgU1+sNdOP9JSYmBgcHB86dO0eDBg10Ll9etJ1v27ZtTJo0iZUrVzJ79mydy5cfka/08j179gx9/eJdFEqZnEL442hkOlYwBgWH5jovUV9PD1tbW6RSqc4/v69HRrU+g+jy8WTOB8KHZ5rR+pgTNe77crzJL9x8ayn1//uOZ82+xezPkUTuHqD5gjJgLm16R/LZNR9a/TWBEQtO8zAZUhRgMWYV+6c7cGHkNI4mRnK5/RgsDq9gyK0VTPh8JZdiJSRiyZszVrF5gHPh10LImLoz4e9AnuLMtX4WdK53KYeiMdOUDts+vJ3plqu7jnN/0HnelgK4MMTLlQ83HuLp0GGvfAFb3O1eUnBu/Ejmd95EQvtceixyoMu/f4V5fZQnYuhpWac8z9J1d7BffZvg4OCMnwiufFUXxYrFuXb3v9mnEzV2r2T7Y83l+F1r2WzUiqHOoN99MO+f/ZqvbjRliKsFHbvJifh6Pn94DMRTCvof7CdRrUatVqMOmEdX8hpyCLTuTv8bW5h9SbNAiTpgHb+ccqF3S4ccmxunK3k+iictIphHCgAl975/l3ZHPVhxat2rRSLB7OzhyYQav3J198siEaD1xhRNTrUa9bouxZozZ0riIoKJLswopCbdeK/KOVbty3gygnaz/b8WfNw44zHGnGe/XwNGu2d9s1XwJDgin5VbZbj3fg+L3VszhrEouLXZl7tu7rzp6M4Am+P8kDEPM/nEcnandWKMc5bHoTzPXI+ujLikGQfzbPMiVpj3yWFob1YFyQeJ576jy+dbM+Z4RnB87UnCW3bNZYht+ebv70/dunV5+PBhtiJRKJjFixcjkUiYNGmStqMIFdTzgvFBxNNSn8P45PFjQoKDuB0YyN5z/qw8fJ5z584R9eQxMdFRJCcXeinyMk5B6Np1HDJyo7Oz5prbwXZMv/4Y9ZYB2Ko1n19M+3zCsCvr+DVjRfH7/9vMud7D6aX2ZfH8J3Tc7o+/vz+3fIdS6bt5bIqz5Z01P7ycKpN+kElDt2G15hL+/v7c8Z2O7ZcD+Px64RO/MnWHzFNwssptSoeCoKAYcMxU1NjZUUURwasDcIu7XSZX5zL+73Zsmd2i1BcNFIpXxV5jvTw4sZyVhh+wdsCrwwTqjv2SYYtmMOnIJL7I6X6dfuT4hAl4tZczSwL6th2ZsncxvaSAtCMDag7mD/M5dJGCXqduOHtfxrp3bsNO85ExdPHj8S2Qx0K6zJEWS7exqhFwLktbmRs9PG7iVc+d+NOH8fzCWfNN2me3mPn938SmX6ZHta+fNyZ58inU7X5iwokwos92od4KzS3pMlta7gvmdPtiynm1oBs5z+ymAzmw5TGBBd63G1/9MZso7/bUmiZBJrOl6ZLfWJAx7JQgP/6r6sL7WVc6DVhO95an+fDBoWzDaTLT/2ANR0KGMtrVkURkGLiN4dhKzYqvH22cw+VhnjhOSybVsiXDty3N+MbQj/lNenFo/WOuenZk/u+e9B3pSj0J6Nl1Y/bW2fn39hUwX92pO9g33pte8nkAVGr1JX8v7lDh/rjs3buX2bNnEx0dre0oZd7XX3/Nzz//zPDhw1m/fr224wgVVEpKGpFRscTEPsOikgnmZsboSYr/+/kHoSFcD4/G/1EkQdbOWFlV4Y1K5hjUNkVqJEWZGM8zZSKKxARiHt3D7KmC6jzDxlg3ejyLm/GFr/GwnJdxSUZluTvDt63kYwuIBnDvlfF3LhOrbkzo8glNt4bw+aj7/LrHhiknXEEG807X5u9D61mzJRB/P1/upVhpvszOfPj8dnH0SSD6/VtwOOOqlFQFhoGx0Ci/HrU8pu6Q8xSc11PQ6SJFbafg+NxfuTr2fK7Tn4SyQ6JMTlGrVCoSExOIi42jTp3a+d6prHT9lod8RkZGqNX59NgJQgUlkUjyfX2UhfeXpUuXcurUKfbs2aOT+QrSThfz/fbbb+zevfvFcdW1fFmJfKWXLygoiMXLfsXds1e+2y1OlUyNiVc8IT7+5bkMYxSFOx2QIqN9+KOH7AuJ4mm1xlDTGao5gswQ9CX0qGqKi7EB8ckqzX1SMv5NTSc5NorER8EEhP6HdfBVLmxYiq2trc4/vwV5v2fn+0h+apZpjuKrohc2o3LYQtQ+HTIut6Xy3e9Rr+igWYV9ag22zbrJe794cOHgMGqF72Z48xnc6TeZcR2ckcuD+KHJNhoHH+Jz890MrPwbb8XsYerfI6k51obNgfNefImaFhFBiq0t/tmmwJjzbd2BHF0Xwun2ASx98y2+WfysEFN3svtnvD3N3jiPeoJmBNTVj+1p2ujlZTa9g2THhy+H1mYo7nYAxGxhwBurcLl6Mss6Enkrzr/n2nx/MTQ05P79IMwtzDExMUVfXz/fbesy0aMoCIKgRdOmTSMtLS3fIlEovGHDhmFpaUmHDh04dep1VzYUhOITn5DEnfsh3Lrl/9rbeBYfx99Pk4hxbAXvjIBq5mDwak+lxECChZEeFkaa62ug+SCcpoYIU0MeWlTGyqUpCWFv0f7rVXzSwZUBnVq+/gMrD1qPZVLqQMbNicX0iyWaNQECDrDPrBubfbzpCjzbvIzLKiVOGXd5MVXGrTsekZMZt30S1/pXg6Dl9G2+Gofj/vyyMQX1xsw7Ol+oWGkRwTyROWJfiGUSmvTxoMq3Kzk+bB4e0gA2rrsGQ/+HDZCiCOYptthbyoq9nebhHeCvmt2YVvhFFQQdJApFQRAELXn//fdp3ry5mE9Xgnr27ImVlRWurq4cPnw4/zsIgg4Lj4rhpKw29O0FdjagJ8mx3Z9JaZjrS3CRvfoxz0ACNSoZYmtmSIwyjRA9Jy5VcWBSwE2O+K9h37wvynwPyOtzYbBXJSb81ISNXTLGTLYey+IGw5gkb4m9JSTVbkxThxtcCQaaZ54qc5KVfwYzalJ75LMkgC0NftrG/EZFzaTk1DjnXBazyUP3JfzpP5QxjRyJksgw672UkIwVSs987EznmqdR+7Qo/nZAVFAQCfJ+uBT1oQs6QQw91fF8YuipIOSuLA89bd68OdOmTaNnz546ma+w7XQ93/Xr1+nevTthYWE6mQ90+/iVt3zaGnoKcOf2v6/Vo/hvRDQ37JtBtz65FohZvWmgRz8LKYaZmj9OTWdPfAph6RnvnZGJEJ8KCQrqhx7i3E9fYG6e88RynR96KpRZYuipbhKrngqCIJQipVJJtWrVWLZsGf369dN2nAqjUaNG7NmzB3Nz84Kfo1YQdMSN6ERuWDcoVJEIcCstnePPNCud3lOq2KJIZmls8ssiEaCKCZgbgaklN10G0uiLxcTGFm7epCAI5VOOQ0/zOw9IQc8TUtztQHMyS5FPEITniuv1BiX/+r19+zZvvfUWd+/epWrVqqSmpupUvqK0A93PZ29vT3BwMIaGhjx69Ahra2udyqfrx6885UtNTS0zvVNhTyL5N706DVyceJoQQ4y5NT2tpDgaG2JmoCkao1LSuZ2QyqG4lGz3P5ucjkySwnGlKved2BhDWjokphFS9z06f/Y9Z5d+h0TyalGqzedXKP/Kw/tLyZ0TVDtEj6IgCEIpOHr0KP369SMuLo6qVbOe60QoLZUqVUKpVPLmm29y7949bccRhDzFKxScSbTEqEF9TCRqaoXdwUsVSYNKRi+KRIDKRnq0tpLSyzLnU17kWSQ+Z2P84r9Xanbjg+9+KXJ+QRDKthx7FAtaDWujnZ6eXoXLVzgKjverRuezg9kYvI4PXpwraDdexqtwDjnE53c1S0Bvz2X56NcWvpaeNT7isOHLExTp2cpxHfMz+6d3yL6Ecl6CtjB8Tgqfrx+GPOttfisYOnoxl2IlmnMd/vIbv7fXTKqOPTCND2bs424ypLl44bN+Ou/mdB4f5XmWdB7AV//q4bD6omaVshKn4OrH7Wja6M+XS0yj5PbaUXyy4BJhEiVpLpNZtX4iHvfm0s59DpdTXn4QSE4G622xRPXPegIojfhd71P793cI3D3sxbFWnvdh1KSVXIpNJtXSnXG/rWKysxRQcH3RUMasukOURIZVtwVs8+lCtkXKlAH8MXI0X595TJqlJTW6zWH9vFfb5bTfguVTcG35KMb+fJ0kCaS7ePH9yun0KORToeuvX0NDQ9asWcOOHTsIDAzUyXzF1a4s5YuKisLJyYlt27bRtGn2d0Jt5yvN/Ra0XXnLl7W3TNekpaXx55MUqFGfxpZmL66vY6JHSmoK6YbZi0J7qQGQvVexQAz0oJKhZr6imRU7Htfk3QPHGNqzW7am2vo9EMq38vL+Up6IHsXyJnwzP1/qyOBGfzFk2+PS379xF758okSp1PwkHPSm1o/D8DySXLjtBJ1gT4gihxsCWDJyHudnniYwMJA7y9/g1tDP2ZQMhG9h1OjrtNh+jcBAf/Y67eC9SYd5mtP2b+1m7dO+bFUEl0qRqAryZfW7zfHY+N+rN5yYRs8f9PngdCCBgf6sMv2RzguuQZMvOBOX/OI43l3UDruuP3MkpyJRGcCRaZ608tpPlDLT9TG7Gd3/N2J/vERgYDAXR0UxZfRKAgEOjKf3H/WZfT2QQP8tfHLjYxw2ZP99uf/l+/R/NpjNtwO547+Hb59+isMvt/Peb0HznfuKAb+YMv5SIFcD/dnk9DvvzC5/pzD48ssvuXz5slhxUwfdvXsXb29vjh8/ru0ogpDNnScxYFodTF49sXlaWhpGioiS2Wnm02xY12bYhqM8e/asZPYlCILOE4ViOfNo7TL2txnDIu8OmPqs50x+dwg/yGxPV+RyOXJ5S1otOEUocGtcXSQzrmW0WU4XA0fan9ZcVG16F8mgvTkXYFlIXAbR3/UxfoERgJI7y4fS2VmOXC6nvvsYfG5rCsjohc2QdxtIZ+dqSPp/zYSJ+0j086HfoN8IxJcp1ashz9i/sTqJdIWm4khWSkiXWVJZCqoTm9ne1IsxzlJARv2xXrz911YOZ61Rw7fgPXwbAcG7meo+mUNHJ1K3ZS+GtnDA2mUMm5LzytmWKr1H80FXdzxc5Tj1XsDvPt706epOG+fGNFidUUQFzKWZRS8WpgAoOb9oMef6/c4fH993nbAAACAASURBVFZ+JcrVzTu4PXY2XtUALPFY+jc3Jji/mjdgEV4LTJmy0jvHHuBnu3xYqv8JO33ee+V61YG1/NZgMv9rr+lStRnxOyErBlALuLrrOPcHjeZtKSBzYYiXK2w5lOU5VeDndw/rQcNpLAWwpU2vxrD7EIF57Leg+Wi9BH//dQy00OxLoVCCZSFOFFUGeHl5YWxszOrVq7UdRcjFlStXmDdvHjt37tR2FEF4ISU5mWvxgKk1GL/6BeF/kbFIVGnIHgdjHHEfo5gn6KVqehHPxRbyS9msjPQ0w1eexUN8HFg7s3j7/qJtUxCEMksUiuWJ0pel6yJx8+pKte4j+DByORPz6MmTEMymfh8y550NXA0MJPDCCgbv74fDhse82acHtU+eJBBQnTjIfzZw5uA1QMnJ3X44DXIv0FDSJL91bLjuQJeWtnBiPB6/6DPqdCCBgYFcHPWUVT0/Z09GxNvBdky//hj19jn88vN7mLhNZseWYchpxex/LnKuOYALHy+ZjP24elR1tMWi+xGMf/icrkBsRDjY2r7MZWdH9fhwHmRdvM1uEKvWD8BZPoaVJ33oapqOsV8Edr/fITpgBR+czSunkqfBVgzfe5Lj19Yx7PpMhj4ZwcZDJzm7pz/SuYvZCeAylgPXVjLGCEBG2yV7WT+sBVayzIsnRBAQkELH8N2M7NISuVzOW5MP89hY9kqbvz77nmNTF/CpAzkyG7yaffN64mzx6sIMj4Pvg20EG/t3oIlcjrzb5xySWGGCgqCgGHDMtMyznR1VFBGEvLIFS9zc7Hm2bj0XYgFlADvW+0JEMMF57Leg+QBkMuDABNo6ONP22Fv8OLoQ54nScR4eHnTu3JmZM2dqO4qQj2PHjrFlyxZ+/fVXbUcRBADuPo0FsxqaCymvLqBxMyKaU/89JCA8ishnSURHRXLv1i123QrGvyBzETNLV/Hmszjqx8dSPz4WnkbBszhIVoJaDdXq8NWpO0RFRRXTIxMEoSwRhWI5knZgOWvS+jKrgxRkHRnZNRU/n62E5tLeINaX7dfasni4KyYAlm6M8HKF3SdRtu5Nz6cH2fhEwcndITSfM5C3zp/kTrIvf1xry/QOOU38A5J8+aaWJZaWllha2uI8aC9p321jY3Mpt3adIKz3JJ6P9DQbPIU+cb5syOiEw72XpocrGxnmto5Yy4AYXyYP3Y5sRyhPgiOIOT8U0/EDmB0KSbkdF1kuN2SS7NKRd+ppdp53Thk0ds/IWZs6tpa4dWyRcfxsqZGoRDNIx5Kqjraa63OlBKLwvfCYgdsvEOh/iHkGP9J5dKbe2oC1zPrXkzXDnPPYTi5bj1Gid9CXpJn7uBroz5H3o/m25+cczfW7g+wHqs53f/J7zc2McHWkrvsMzrX1wFUqw7TQafLQ/Rf+DnlM5FfP+LnL5DzylR2Ojo7Mnj2bDz74QNtRhALasWMHFy9eZNGiRdqOIghci00G44xzGSZmf1N8kqDkZkQ0x0KiOPToGafTpKQ/fY3pJnr6hBtJSTDIONdbag6njlGZcOfOncJvWxCEMk8UiuVGBHuX/UmsYjeTnB1xdJTT789EpL4+zH+N9/d0WSs+7HCXrYcOsf92E3oN7EXnsIMc27KV35r1ppcFnBtihEQi0fx4Zcy/Mu7IrFAFCoUChSKC0MCT/OXtmkvvY5aJbQUo6AjYxbZK3ZjlqanijN3GMtrpIksuJGNrawcRES+LrPBwwqraUVt6gW/rZuSUyLDZnv38UOnGlnkUdVlzFiRoQdhia2cEvUfjYQHIHOns1Q2ngAsEZLS4/7/NXO02msG51OV5br22HemtvBjpagHIqDXCC4+nfpyKtaR2bSsIzjTHJTycSFtbsnZapiiNafLDKW4FB3Pvwh5+tInmmp0cl9d7wK9QBxxkw6nnfZgybAaPoE2oH6fK8Om7QkNDkUgknDp1inbt2mk7jlBIa9as4cmTJ3z99dfajiJUYAnP4kFqDXoZH9GSkolN1vQqKk3MueTkRqyVLbFWtlx1cuO6w5vcs6nBdfu6r7W/GCMpwcZm3DQ1g5yGrlpVZ/ZfF1734QiCUIaJQrG8CFjL4suuTL4UQXBwMMHBwdyP8Od/Te+wwucUiTncJc2iI/1d/2bS+tua25V+rF13Dbq1xAQZTfq0wmDubH536kZni8a80/IGP8w+hWnvrtgArTemoFarNT/ruuQb8c0+naixeyXbM770jN+1ls1GrRiaS2eZkVJJAgBK4iKCiVYCtd14K8yXZZc0f8xUQbvZ/p8rAxpL0e/Um/7/rOPHO8mAkpvL13Gs00C6SFvy1b2MnGolT/vnXXUVNmfOFDwJjsjxuL8kw733e1js3srZZM19bm325a6be8ZcxGBOXHiMU7eWWYrYTMcjDybdB9P56hbWZ9RisQc2c8GmFW2rQpM+HlTZspLjGUNKN667Br01w4lTFME8ypgDmrZpCG94bdP0Siv9+H7xNSp7dc1n2HHB8knCdzFr2GzWPdbc58HmtZx2bkWXMnrmiDNnztCuXTvUajUODrmMExZ03vz585HJZHzyySfajiJUUFHPEsDg1Xf92w8iAYirZAWGUm7bOnLb1vHVOxrmvCJ2gcWngVEO27CowpH/wlAq83lTFwSh3BGFYjlxa9n/+LvHDD6rl/laRz749gNqb1nMkhxGpKhx5IONa/j6z/6aOWyNx7C73UZCRmV8yO00mI5P7hPdzR0bZLTo1oQYhRtfdX2N7i2ATj9yfEICP7fXLBLT8hczpuxdTK+c/ra5deeDyO9p5jaDQ5xndtMWtL4E2I3gt+09UY2sRy25HJfev5H842/8VE9z2y+L6/HPu844Osrx/Lcf+xZ3KdxpOQqbMzcBy+nuOpoV+axSrv/BGo68fZbxro7I5S3pHzWSY4u7ZBSGQfxzqzpvy7Pu2I/5TVrQ+XQ+GWqPZceKepx8zwG5XE6Tb/QZu202XQG6L+HPd28yrZEjjvLezG+4lJChml7aMx87U32OZiEjk4/WsN1sIZ5yOfVajuHkkN8JzHeV2ALm67SEI9NU/NpejlzemLf/cGL+ntmUxX64jRs3MnPmTEJCQvJvLOi8GTNmUL9+fTF0WNCKgEQJGBq/eqXiGZcexxArK9aB/y8p0yBKCbku/29KeHh4yexbEASdJVEmp6hVKhWJiQnExcZRp05tUlNT87zT89vzO59IcbcDiIyMpEqVKhUmn6mpKWp13ouFCEJFJZFISEnJuxov6dfv/PnzCQwMZP369a+1X/H+p7v5tm7dypYtW9i7d69O5ivNduUtX1BQEEtXradjl975bre43bn9L7du+ed6+5bbYWD1JhhlKRZNzKF9Z6hilvMdX1d8CkQlQTqaBWwU0ZCeZa7ivUtcndYdZ2fN0BptPL9GRkbi81A5Vpx/z7X5/mJiYsL9+0GYW5hjYmKKvr5+vtvWZQbaDiAIglBWjR07Fhsbm2xFolA+DBw4EAsLCzp06MCpU+XvHJ9C7pKSEjE2zns5shKTkg4GRtmvd2kB8SpQJYClFGRF/AiXlg4xSojP1DkgkYC+fvZCUc+I+Pj4ou1PEIQyJ8d3mYJU1tpqp6enV6HydejQoUDbEoSKqEOHDlp7/b777rv06dOHUaNGFXm/JZGvPLz/FXe718n33nvvYWNjg6urK7du3dK5fKXZrrzlk0gkud5+924AgbeuYWtbHfvqtbCzr4WJSQkN+8wkLS1NM9dQL4deiMhQqCmHxDTNj0wfrGWFLxhzKhAzkxlDuhpUaS+vk5qSmpr64vhq6/dAKN/Ky/tLeSJ6FHVcbGws/v7+NG7cWNtRBEGn+Pn5ERcXp5V9N2rUiMWLF9OlS/6LOAllX+vWrdm5cyf29vY8evRI23GEUmBjUw1zCyvCwoIJCwsGwNzCCnv7WlS3r0VVW/sS2a+BgQGkJGmGgGYtZLNOC1Kq4FGCpmA0NgA9CUj1wUBP8wOaojAtXXPai7R0SFZpisy8GEk1P4qYl8ViahJGRjn0cgqCUK6JQlHHubq64ufnJwpFQcji6tWrpf66iIyMxMHBgYsXL9KwYcNS3begXS4uLvzzzz+YmJgQExODnp5YC66sexr5JNfb7OxqYGdXg5RkJeHhYTx8GEJEeBiBAdcIDLiGgYFhyfU26uuDKgUMpPCGG5hYQEw42OVy+gulSvNT3ExMID7jyzhVCqamJd+jKgiCbhGFoo5zc3Pj5s2b2o4hCDrnxo0buLm5ldr+rly5Qvfu3YmIiMDY2Dj/Owjljp2dHVFRUVhYWHD37l2qVctvBWBBF/n6+tKlSxdGeI/Pt62RVIaDoxMOjk4AREU94VFYKOHhD17pbbSwtMbOriZ16jhjYWlVpHymRgYkpKWA1BSq1tJcafaaq40XReYeTXUKlSpVKv0MgiBolSgUddzYsWMxMzNj7ty5YtiHIGRITExkzZo1KBSKUtnfzp07mT9/Pk+ePMl3VWihfDM2NkapVGJra8uxY8do0KCBtiMJhfD1119z4cIFbt++zcKfVxb6/pUrV6Vy5ao0dG2WY2+jnp4ero2bFyljdWN97qQmawpFbUpOBn0DTc+ikR4WFlooVrPIa16pIAjFTxSKZcCuXbvo06cPf/75p7ajCIJO6NOnD9u3by+Vffn4+HD27FkuX75cKvsTyoYHDx7QsGFD1q9fT8uWLbUdR8hHcnIynTp1okuXLhw+fBilUomJTJ8zx/ZiVbUGNWvVKXRPYE69jelZVwt9DXVNDbjzOBoSbUCZCDItrb5qZASmZpAUzzv2RlStWlWrX5SFh4dja2ubZxttnj4hIiJC5CtiPkH3iEkWZUCPHj1o2LAhU6dO1XYUQdC6yZMn06xZMzw9PUt8X5MmTeLBgwfs2LGjxPcllD03btxg8uTJHDp0SNtRhDwcPHgQCwsLfvzxR2bMmAFApUqV8Fn4IxM/GUlDJ1sC/U5x7K9t+F8+S0T4w9faT+XKValSJe8P4gVhbmEJKbGaC8mJRd7eazOSaoafRoYyrK2r9nIIgqA1okexjJg3bx7Tp0+nR48e7Ny5E5lMpu1IglCqEhMT6dOnD82aNeO7774r8W+2e/fujbu7OxMnTizR/Qhl2/nz5+nWrRsKhYKBAwdqO46QxbRp0/j3339RKpUA2d43nJyccHJy4v333yc8PJzr169z/sIlLp89QlXbmlSzd8CxzhulmllPTw9DMxmpiXGQpqUevAc3wKIqmFcDdRTN6rfVTg5BELQqx0Ixvw9gBf2AVtztANLT0ytsvu+++46DBw9iZWWFt7c3DRs2pEmTJqW6oIcglCY/Pz+uXr3KjRs3WLNmDdu3b8fT05PU1NQSff02b96cmTNn0rNnz2z3L6/vL0VtBxU33759+xgyZAhRUVHZzqupC/mKox2UrXxxcXF4enry/vvvs3fv3hfX57U9GxsbOnXqRKdOnYiJieHGjRv4+19n58blVLOvhY1tLRwc62JcCudT9KxsxF/hDyExFirblfj+XhEVCulpYFoZ4p4yzl6P6tWrl8j7bnn9/Sut/Yp8pdMOCp6vvJ1rUfQoljHdunUjLi6OlStXcvbsWZYtW0alSpU4ffq0tqMJQrHq0KEDcXFxNG7cmCZNmpTKwjUJCQk0bNiQQ4cOiVPSCIWyceNGxo0bx4IFC5g+fbq241Roe/fu5aOPPuLIkSM0adLktbZhZmZGq1ataN++PaAZZvzPP1c5fWQn+obG2NhpikYra5vijP6CuYUlhpERpOrpl8j2X5EUC8YZC9XEPdYUirWbaRayibrOuE96lHwGQRB0Uo6FYkGrYW2009PTE/mA8eNfLutd3iYzi3wiX0G3V5ztbt68SYsWLQgNDcXa2rrU9luYduL9r2jtSjrfqlWr+OKLL/jyyy9ZsGCBzuUraruykO/TTz8lNDSU2NjYYt1vkyZNaNKkCSNHfkxQUBBX/rnK+fNniY6Nw6ZaTWo41MG+eq0CbbOgutuZsff+BahegkNfYx5CZBDo6YOBDFISwNQaDGUQ/YhPncxxdnbOdjfx+5edyFe0duUpX3kiFrMRBKHCO3jwIAMGDODu3bsFKhIFITdz586lcuXKeHt7aztKhRIZGUnHjh2pW7cuu3fvLtF91a5dm/f79WXRwgXM/eYrPNq6ERN+l71bf+Vv30Pcv3sblUpV5P2kp6dTK+oWBF8rhtS5sKoONRtCukpTJALoGYDyGRb/HWGW14CS27cgCDpPDD0VBKFCW7lyJfv27ePff/8Vy3MLxWLatGmsXr2a/v37s2nTJm3HKfe2b9/OuHHj2L59O+7u7qW67ypVqtC5c2e6detGUlIS165d49yFS+zdugZLG1vNYji1nTA1e3myenUO20lXqXgWF0t8fBwpycmoUlOoV68enw/uzbmQUDYqqoFl0VdUzZGRKRhKITVZczklAU7/xskfp1CpUqW87ysIQrkmCkVBECqsGTNmoFAoOHDggLajCOXMqFGjsLKyonv37uL3qwSNHj2amJgYnjx5ovUveoyNjWnZsuWL82revHmT8xcucfb4XlToUzWjaExPV5GSkkxCXBzxcXGkpaZgaKBPw/oNaNOvF00au+Ls7IyenmbQ1xggfNIsjks9wdiseMImxYIqTbNYTkLUyyIR4OYZVnv3pXEDl+LZlyAIZZYoFAVBqJAGDx5Mo0aNmDdvnrajCOXU+++/j5mZGa1bt+by5cvajlOuPHz4kI4dOzJ16lSdHeZbv3596tevz8cfeREaGsrRY8f59/p5Hj1+Qlz0U9xcG+Pevg0NGzagRo0awMs52s+LxOeOLf6GtyfP5lilFmBVhFVQk2I1p77ITci/rP50BCO7iNNhCIIgCkVBECqgNm3aMG7cOAYNGqTtKEI517lzZywtLalXrx537tzRdpxy4ffff2fGjBn4+vryxhule47D11WrVi16dO/GRyO8iI6Ofq250Ed9ZjP159UsioiHqvVeL0h4Lr+DKhV6IX788fko+nRs/XrbFgSh3BGFoiAIFYZKpcLBwYHt27fTurX4MCSUjmbNmvHXX39RpUoVIiMjtR2nTPPy8kKlUhEWFqbtKK+tKAtmLZw4iga7/2LE4YNg0wgqV395Y1IsPA0F2zc0q5amKl8dUvosCtKSs2/04R2qS1UcXvQZ9evXf+1sgiCUP2LVU0EQKoT79+8jlUq5ePGiKBKFUvfGG28QEBCAoaEhCQkJ2o5T5ty/fx9HR0c6dOjAhg0btB1Hq7x69yDkiw+YWuURBPlCZKjmBok+KJ9phpbevwxBVyDsxssfxSNNO1NrMLMBqSn1Ym7x28c9CPtjGZUrV9begxIEQSeJHkVBEMq9U6dO4e3tTVpamrajCBWYjY0NSUlJWFpaEhgY+GJempC3tWvX8sMPP3Dq1CkcHBy0HUcn2NnZMW/scMY+eMDm4+fYd2ULlw3twKw6GJmA1AQSY0BPD9LTQZ0OKamQ+gzH5CCaWRkxtEtT3u3spe2HIgiCDpMok1PUKpWKxMQE4mLjqFOndr4rh6WnpwPZJ1uXdDuAhIQETE1NRT6RT+QT+QrUbtu2bWzfvp2dO3fqZD5dP34iX8m0a9q0KZs2bUIul+tkvpxoI9/YsWMxNjZm4cKFOplPl47fvXv3uHgniLuPo1EmJuD/OA4M9LGV6lPDqhLGpma8Xa8GderUyXH4a0U/fiKfyFcc+ezt7bl/PwhzC3NMTEzR19fPd9u6LMceRVvbvM/V83xVLkNDw1JtBxARESHyiXwin8hXoHbffPMNd+/e5eTJkzqZrzDtRL7yle/hw4c0bNiQFStW0LZtW53Ll5PSzBcQEECnTp344YcfGDhwoM7lK2y70shna2tLmzZtdDZfUdqJfCJfWcpXnog5ioIglEsfffQRKpWK//3vf9qOIgg5unHjBjNmzODPP//UdhSdsnz5cvr27Yufnx8DBw7UdhxBEIQKS8xRFASh3OncuTODBw9mxIgR5fIbPqH8OHPmDO+++y4xMTG8/fbb2o6jdf369aNatWrcunULKJ/f0AuCIJQVokdREIRy5Y033mDGjBmMGDFC21EEoUD279/P0aNHK3Tv97Vr17C2tmbQoEEsW7ZM23EEQRAERKEoCEI5ERERgZGREQcPHsTDw0PbcQShUDZs2EBQUBDffvuttqOUOh8fH4YNG8a9e/fo27evtuMIgiAIGUShKAhCmXfx4kXc3NxISEjAyclJ23EE4bV89913pKamMmXKFG1HKTXvvvsuDx48wN/fHysrK23HEQRBEDIRhaIgCGXa9u3bmThxIuHh4QVauUwQdNk333xDzZo1y/3Q6cuXL2NlZYW3tzeLFi3SdhxBEAQhB2IxG0EQyqyFCxfi5+fHhQsXtB1FEIrN5MmTWbduHX369GHXrl3ajlPs5s+fz65duwgLC8PS0lLbcQRBEIRc5Fgo5rfKWEFXISvudqA5maXI93rtQOQrSjsQ+YrSDoo33/jx4zE2Nmbjxo153kccv9JpByJfUdrBq/mGDBmCmZkZ7u7uHD16VOfyve72evTogZubGydPnixQ+/L6/JbWfkW+0mkHIl9R2kH5yVfeRjaJHkVBEMqc3r174+Hhgbe3t7ajCEKJ6dWrF1ZWVrz11ltcvnxZ23GK5O+//8bT05O9e/fy9ttvi9NeCIIglAE5FooFrYa10U5PT0/kK0I7ka9o7US+orUrjnyNGjVi7ty5dOnSRSfzlWQ7ka9o7cpivs6dO7N+/Xrq1atHUFCQzuUryPa++eYbjh07RlJSEgYGBrm201a+0mon8hWtnchXtHYiX9HaFSZfeSIWsxEEoUyIjY3FwsKCTZs28c4772g7jiCUmsaNG+Pr61vmVgVNT0/H3d0dlUrF6dOnsxWJgiAIgm4T79qCIOi869ev0759ex48eIC5ubm24whCqXN0dCQoKAgjIyOePHlClSpVtB0pT8ePH8fT05MTJ07QoUMHbccRBEEQXoMoFAVB0Gn79+/nyy+/RKFQaDuKIGiVpaUlKSkpVK1aFT8/PxwdHbUdKUezZs3i8uXLqFQqbUcRBEEQikAUioJQAdx6msLlx8lcfZLMw2epRChVhKVCiFKFhaEeTlI9bGX6VJHq0bCyEV0cjKlnqf2R6UuXLuXIkSNcu3ZN21EEQWc8efKEevXqsWvXLtzc3LQd5wWlUom7uzs9evTg2LFj2o4jCIIgFJEoFEvIgwcPCAoKIiwsjMjISKKjo0lPT0elUmFqaoqFhQX29vbY29tTv359KlWqpO3IQjkS8SyNJf6xzL0VDw+TIE2da9tY4J8s100FMNHHwcGYj+pWokttY5rbykowcXafffYZSqWSffv2lep+BaEsCAoKokmTJixcuJCOHTtqOw4HDhygb9++HD16lBYtWmg7jiAIglAMRKFYTJ49e8bOnTvZs2cPV65coWHDhiQkJFCjRg2cnJzQ19fH0NAQfX19JBIJt27dwtfXFwsLC3bs2EHlypVp164djRs3pkuXLtSvX1/bD0koY5RpatYEGnDlooIzManE/BepuUEiyfSvWvOvGsi4qLmsznQZzeWkdEICnjErMIFZajVYGDK1hRWfN7fCxli/RB/LoEGDaNmyJZ9++mmJ7kcQyrKrV6/SqVMnFAoFvXv31lqOTz/9lICAAJKSksRpLwRBEMoRUSgW0bFjx1i2bBnHjh1j6tSpDBw4kCVLllCjRo0Cb2Pt2rUEBwdz69Ytjh8/zoABA1AoFAwZMoR33nmHtm3bluAjEMo6VbqaRVdiOR2mR71KFjiZgJMJLHqaALFJmkYvisWM4aQZF1/+K8l+Wa3OaJ9RPcalsvDIExaeiKSjqwU/tbGmSbXi72Vs06YNkydPZtCgQcW+bUEob06cOEGfPn1QKBR4eXmV6r5jY2Pp1KkTgwcP5qeffirVfQuCIAglL8dCMb9vBAv6jWFxtwPNctu6kO/ixYt89dVX2NvbM2zYMHbv3l2gbeXG0dERR0dHunfvzsKFC3n48CFHjx7ls88+Izo6mk8++QRvb2/09LLPGyuLxy83Il/h2m0JTGDY0acQlQJVzJhS3/jFbR/Wq8rvfmGQnv6y5/CVHsXnxWAuPYoSPc2/z2+Q6EG6GlTg+4+Cpv8ooJYx+zta0KlGwQrG/I6fj48PP/30E82aNSv141yQfCWxX5GvdNpB+c23bds2Ro4cydOnT5k0aVKp5NuzZw8jR47kyJEjuLm5vbi+LB6/0mgHIl9R2oHIV5R2IPIVpR0UPF95O9ei9lerKIOmT5+Oj48Ps2bNYtOmTfTq1avY91G9enWGDx/O+fPn2b9/P6mpqZiYmDBz5kxiY2OLfX9C2eIfmYzR+jCGbX2kKRIlEniawMWohBdtqhgbYlDTEpCAnkRT7+npadq+uJz5X0mmf/WyXJ/xVpG13QMl726IYMIpBWnpuc+DLKiRI0fSrFmzIm9HECqaNWvW8OjRI+bMmVPi+5o8eTKbN28mMjJSpxbTEQRBEIpXjj2KBa2GtdFOT09Pa/n09PRwc3Nj2LBhLFq0qED3KQ716tVj6tSpTJ06lQULFtCzZ0+6du3KV1999Uo7XT9+Il/R20Ulqeh14DF/X810qgi9l3MQz96PopGFMcYGmsJuQk0rFj1JhOSUws9RfN6jmOPlTO2Q8L+/FfwvOJk7A6rzhrVRro8hv+NnZWX14hu7ivj85kfkK1q78p7Px8eHb7/9lqlTp7Jw4cJizxcdHY2npyfe3t4sXbq0yNsr7nbafn5VKhVqtRq1Wk16evqL/z+/nJiYSFJSUo63Pf9/SkoKarUaIyMjJBLJix89Pb1XLqtUKiQSCenp6dluy3z5ef6ycPzyI/IVrZ3IV7R2hclXnog5ioXg7OzM7t27adiwodYyTJ8+nenTpzNr1iyqV6/O6tWr8fT0LPD909PTiYuLIz4+npSUFExNhdWORQAAIABJREFUTTExMcHMzKwEUwvF4VlKOjYbH0BwouYKCZoiL/NiNSlpbAiPxbum1Yv79XjDmr9uPc5oU8A5imQtKjMPU+VlkWhpoultNDOilZkRjfYqWOAqZUITi+I/AIIg5Ourr75iyZIlDB8+nPXr1xfbdrdt28a4ceM4efJkhV5sTaVSkZaW9uInKSmJtLQ09PX1XyxWl1txZ2BggL6+PgYGBrkWd88LQH19/TyLztTU1Bf/z6tATU5ORiKRYGxsjIGBwSs/+voluyiZIAhlnygUC0gmk5GamprjHEFt+Oabbxg9ejQzZ87kjz/+YM2aNdnaBAYGcvbsWe7fv8/Zs2e5d+8eNWrU4NatW1SqVAkHBwfu3r2LVColKioKBwcH2rdvT+XKlWnWrBnu7u5YWVnlsHehtCmS06m6IUxzqovnRV2mnsTMlxPCYnlgbUpNU03PnrO5MX/ZW0BEPHnPUZS82oNIph5EE0OqWptSSV+C3MSQykYG2Miyf7PWCth8J4Gg2Ch8OlYuwSMiCEJuxo8fj7m5Ob179+bPP/8s8va8vb2JjY3lxo0b2NraFkNC3Zaenk5KSgppaWlIJJJXCsPMhZahoSGGhoYYGBhgZJT7SIrnkpOTMTU1zXffwIsCEsixoEtLSwPAwCDvj3FpaWkvtvn8MSQnJ+f4eJKSkkhJSXlRyAqCIIhCsQA6depEZGSkzr1x2tvbs27dOtavX0+tWrU4e/YsoaGhbN++naCgIIKDg2nTpg2dO3fG09OTunXr5roaa2JiIiEhIYSHh3Pu3DnWrVvHvHnzMDQ0ZODAgQwYMICqVauW8iMUACITVVTf8BAiknMuEiVZ/gX+CFUwxeXl8zWllhWL4pMhKWMidraexBz+rSSloaUxTS1kWOdQFOamTWVT7scmM/dCHF+0NC/8AxYEocgGDx6MhYUF7dq148yZM6+1jbCwMDp27Mhnn33GqFGjiIiIKOaU2qVSqV4UhJl/nv+tNzAwQCaTIZVKc+2Be16w6TI9Pb1ci9nMPaTp6enEx8e/+H/WHsiCFMOCIJQvolDMx6hRoxg6dCjW1tbajpKr4cOH07VrV0aOHMmzZ8/o378/33//faF6A01MTHBxccHFxYVOnTq9uP7cuXOcPXuWhg0b0r59e6ZMmUKrVq1K4mEIOQhWpFF7bdjLBWsyFYMvikW9jFNYSDItOBOfxK5HsfSxfzkEdIxzVVbcDAeVOvc5ihbGtLOU0SDTPMfXUcdUSkiMilXX4vF2rfTa2xEE4fX16NEDGxsbGjRowL///luo+27YsIGZM2fi6+uLk5NTCSUsXSqViqSkJJKTk1GrNYtvSaVS9PX1XwzNfD58tKA9dmXd8yGzUqkUc3NzKlfWjARRq9WvFJHJycnEx8eTmpqKkZERZmZmGBkZieGrglDOle93wCI6cOAAhoaGjBw5UttR8mVra8uuXbuKfaJt69atad26NZ999hl79uxh6tSpWFhY4OPjQ926dYt1X8Kr/CJSmXE2KXuRmNP/0Xu1ZxE9gh/Fcc9cSl0zzakrjA306FPHhl13n746R9FMRsfKMuTmRSsOszIz0OfI/TTMpQkMkuc93EoQhJLRtm1btm3bRo0aNQgLCyvQfYYPH45arebBgwclnK5kPe8xTE5OJiUlBdD0rslkMkxMTESRk4fncyqzFsrPj+XzwhHAyMgIqVQqCkdBKIdEoZiHmTNnsm7dOm3HKLCSXo2pV69e9OrVi0OHDuHt7U2HDh2yrbwqFI/4FDXL/0nDwVia8/DSHIab5jRnce/9aMbWt0WmrykAHStJaWxnjn9EPFSS0a+qKbUqSYs9f0hCMglp6aSj/j975x0fVZn9//e9UzOTSSa9UkJHpINSRBSVsiqWVRER197Lgmth1xVZ/emufVf9ftHvKir2sqwFdXEXXBGlWugJBEJNI2V6n/n9kUICKZNkJjeZPO/Xaxhm5tzn+eTeKffcc55zuH+DjyQdzMwTzqJAoATDhg1jw4YNxMfHU11d3WyUrLCwkGnTpvGnP/2J3/zmN52ssuM0jBjWOYZ1TozJZEKlUtVHCoVD0z4aRl+hsTNutVqRJAmtVossy2i12h5ZJVIgiCWEo9gM//rXv8jIyGDUqFFKS+lyzJw5k5kzZ7JkyRJmzJjB6tWrlZYUczz8rYcEbe3HU68Br7+BY0gTUcUTnMa6x0H4n/1VLBxwvLDMtEwTpybqSY/r2A/4EaeXgy4vR9wBDlo94PbV3EKhBjcgGGLWIZnD9/RHnJoJBMqQk5NDaWkpcXFxHD16lLS0tEav/9///R9/+ctfWLt2Lb1791ZIZds4MWJYXV2N0Whs5BgKokud4xgXFwccPyYOhwOr1YpWqxURR4GgG9Oko1jXx6w5Wns9WnZAfVnojo5XXFzM+vXr2b59O3a7nU2bNnH06NH6L7c+ffrw5Zdfhq2rJ7J48WI2b97MsGHD+PHHH5st9qPE8Y2GHXSOvnd3BpFDDX5M405wFButTaTpwjY0uHd6+bbUxpkZx9cKtsdJtHr87LC6+aHaA1ZXzZN1zmAoeHzdIw2rqgZr9LkD/GplMV+eqerxx7e9diD0dcQOhD6tVovT6SQnJ4dvvvmGgQMH4vP5uO666zCZTOzatavFObrC/qtrSeF2uwkGg+h0OvR6PYmJiYRCofpWT6FQqMlCM0of39aK38SCPo1Gg9FoxGg0IssyHo8Hu93eqFVHXVSyK30+OmIHQl9H7CB29MVaFL1HRRS///57Vq5cyWeffYbFYmHatGn069ePqVOncumll5KdnU1KSgparbb+6pigZcaNG8fPP/+MXq/H6XR2ucqw3Y09lSF+KTthHybFgc3dwAmsW4dIM9VPpeMOW+1zmx1+zmyHnlK3j5+q3Oy0uMFT+wUZqp031LAiTm1BnTqDutdlCYI1hXa2brfxZV4816Q1NZNAIOgsjhw5wrBhw1i8eDELFy7kL3/5C/PmzVNaVrMEg0EcDgdOZ00PWYPBQEpKiohOdQNUKhUGgwGDwQAcTw+uqqoCapxKcb4lEHRdmnQUw/WGlbCTZbnN473wwgu8//77QE3J8BUrVjBkyJCwxhC0jkajwWq1MmPGDL755psW7VqjPce3M+2ire+VrXZUNF4zOMWoYy1SExHFpqqf0th5VMlMzYhnbIohLC117K528UWlC5xeaiKEoZrxg6HGrTWCwdr70PH74+VUGzuLyNy42sncMSoMmtYvKMTi8e2ondDXMTuh7zj33HMPN954I3//+9+54oorupw+AJfLhdVqxe/3k5CQQHp6eotVSOvaQISDEnZCX81jnU6H2WzG5/Nhs9morq4mLi4Og8HQotMoPr8dsxP6OmbXFn2xRExHFN944w0WLlzIvHnzePvtt+nTp4/SkmIWo9HIHXfcwRVXXMEHH3ygtJxuSZkjwF8LLCwc1Lhf5dAEPWvlZtJK5doI44lOoyRBvI4bc0zH1zq2gsMbIN/q5ptKNwSCx53DUOh4C42GkcT656n1DetadJwQWaxzIgmBM8Qdq4+xbIboySkQKMWvf/1rsrKycLlcTJ8+HVmWmTt3rtKyAHC73fWppXFxcSQkJKDVamO+TUVPRKPRkJCQQEJCQn2ksbq6ur4qrU4X+UJrAoGgbcRknmBdWumePXsoKirib3/7m3ASO4HLL78cl8vF559/rrSUbsmD6yrAeXL+e7xahmRD44hifWSxCSdRlpmabWJhXlLYTiJAscvHNxWu4z0V6+ep/ZqQ5OOP61+Xjts1uUZSarB9zfOvf19JlTvQhj0jEAgiwc8//0xSUhLz5s3jxRdfBGDlypX84x//4JVXXlFMl9frxWKxUFJSgtPpJC4ujqysLMxms2jy3kOoizJmZWURFxeHw+GgpKQEi8VSX8FWIBB0PjHnKB48eJCZM2fyxBNP8Nhjj2EyiWbfnckzzzzDSy+9pLSMbofNG2TZD5VgcTX5+tDE2nQcqaHTJTV2GmuduBm5CYxNaXsrigGJei7OjG/g/EkNnMImnESg6TWSJzx/ol0wxAs/WdusTyAQtJ9nn32W6667jv3793PppZc2eu2dd95hy5YtPPnkk52mx+/3Y7PZKCsrw2azodFoyMjIIDk5Gb1e32k6BF0PvV5PcnIyGRkZ9UtbysrKsNvtrRbbEQgEkSWmHMWdO3dy4403snnzZs444wyl5fRIBg0ahMVi4YcfflBaSrfisfVV4A0CIfY7T756Ot4cV+tshZp3xtRq5vdPZpi59cIAR+xeqjwnR/X6JeqZk20CtaoJJ7SZSGGdUyk1jhwet6fx85LE4g2VrWoUCASR4YILLuDIkSP89NNPmM3mJm1efvllKioqWLRoUVS1OJ1OysvLqaqqQpZlUlJSSElJwWAwINV9RwgEgCRJGAwGUlNT64sXVVZWcuzYsfrCRgKBILrEjKO4ZcsW/vznP7Nq1SqlpfR4brjhBv79738rLaNb8eTGmgpwSBJbqk6OKqbq1WDQgCxxxxgj75+fxGMT4pkzqNYp1KiY39dMWittL7zBEOtKHHxR5uCrEjvV3pOdxZx4LTfkmDCoVbXOn3RymmlTzmNrkcSGaakVXr493HT0VCAQRIaNGzdiNBq57bbbeOaZZ1q1/8tf/kJiYiK33XZbxLXY7XZKSkrw+/2YzWbS09OJj48XlUsFYaFSqYiPjyc9PZ3ExER8Ph8lJSU4HA6lpQkEMU1MOIrBYJDf/va3vPnmm0pLEVATVfz666+VltFt+KXcA1XeeifqYJmt0esVHj8XD3RRdX0S1jvSeGJiHLP6qLh7lJb/mxaH9eYkiq9OZHBSAE8g2Ow85S4fXxy2sc/lQy+BHArxTYkdaxPOYqJOzdxsE2a1fHwtpNRU5PCENYpwsrPY0L6B3eNbqtuxtwQCQTj85S9/YeHChZSXl3P++eeHvd2DDz7IyJEjI1LcJhQKYbPZKC4uJhQKkZGRQUJCQo+sHCiIHBqNhsTERDIyMggEAhQXF2Oz2QiFQq1vLBAI2kRMOIp33nknt956q9IyBLX0798ft9uttIxuw5s7GjiGkgQOLw5/jcOXoHfz9BkBRqVIqFrIyjJqQtw9Cq4b5uWg7eTU1YM2D1+VOPAEg8RJEkZZRi9JqEMS60sdzTiLKq7MNTFErzm5YE2jNYrSyU5io0hig6qnDdJP//WLBbu3ecdWIBC0j+nTp2O32/nuu+/q+9e1hVtvvZWLLrqImTNntmv+YDCI1WqltLQUSZLIysrCZDKJ1FJBRJEkiYSEBLKyspAkiZKSEqxWK8Gg+F0RCCJFt3cU9+/fz1dffdWlmwX3NPR6PQkJCUrL6DY8u9te858GTtSmKidzhnhYOAp0qvCvkg4yw9JzQiTrjy/4//GYi3XHXMRLEnFIGGQJvSQRJ8voJJCR+LHMia0JZ9GgUXFOVjxD9OoWIoec8LjhfeiExw3sfbBse+PoqUAgaD/ffvstarWa++67j0cffbRDY1155ZUsWLCACRMmhL1NIBCgurqaY8eOoVKpyMzMJD4+vkM6BIJwiI+PJysrC7VazbFjx6iuriYQENW1BYKO0mTt/JKSkhY3qrtaI8st+5mRtgPqSybX8corr3DXXXe1up2g8ygpKeHw4cP1x6kjx7cputL7r6PzFjuDcMjZwKmq2eb0VB9Dze3rG6aVQ9x4aoA/rJMotHkptHnQSxIaCdSShLrWOZQlkBv0Pdxa7mJIkp4UQ+N5dSqJX+UmkFbuYK3Fw8n9EWnQR1Fq5r52mkaPQ/yjoILLsxuvVYyl4yv0CX2dpe/pp5/m+++/5+DBg8iyTHl5eYf1jRw5ksWLF9O/f3/WrVvXrD6fz4fL5cLv92M0GtHr9TidzhYLjkRj/9UVyonEeEJf99WnVqux2WwcPXoUtVpNXFzcSenOXe3zG207oa/z9GVnZ7c6VneiyTPRzMzMFjfy+Wp6vbW2ziDSdlDjhDTUd/ToUS6//PJWtxN0HocOHeLMM8+sP04dOb5N0ZXefx2d98OfbUBtq4g6Z9Gs4fEJrVcubQmDOsTlA/3c9F8PWllCC2hkGZkQaqnmXiXLEAohSzLBWudtV6WLwSE9acaTtY9PM5KgVbGy3HmyEyhR809zzmJdZDEYbPT8N1XSSfszlo6v0Cf0RVuf3+9n2rRpnHPOOXz//fcR1zdr1iy++uorRowYwdatWxvp83g82O121Go1aWlp6PX6+vYFanXLF7oibQdQXl5OWlpap84r9HVtfW63G7vdjiRJmEym+r6cXeXz21l2Ql/n6osl2hey6ELs27ePvLw8pWUIGrBu3TpOPfVUpWV0C9aWeGr+06CFxNpLUlpcjxguk7JDzO2r4bODATRyTSRRJcmoAbUk1xYxPZ4WGgqBX5bYW+3BEwiRm3Byo+vBiXpSNCreLLGDPwCSxLxeai4boGFwskyuSabaE2RnRYBPCr3871bX8chjU05kiQdfIIQmEn+wQNDD+Prrr/nVr37F6tWrmTJlStTmGThwIDt27CAnJ4eqqipUKlWTJ98CQVdDr9ej1+vxeDz1BW9EtV2BIHy6vaO4fft2sUC+i/H666+zbt06pWV0C/5d6eXENXwjkyO3dPjiQSq+OBxEBjTScWdRJoSKEz43EkiECEoyh2xe3IEQfRO1qOXGdqkGDXf0SWR9uZ2Hx6g4u3fjH1yzTmZStsykbA0X9NNy/n/sUN3gKptUm7YKEAixudTDxGzRYFsgaAuLFi1iy5YtnXYFOy0tjZ07d5Kens7GjRsZNGiQqF4q6DbodDp0Oh0+nw+73Y7L5RIVeAWCMOj2xWz69evH0aNHlZYhqGXNmjX86le/olevXkpL6RZYLH5qF+8BISadEtnCD/0TJdRQH1HUSBIaONlJrEVFTXVVjSxR7vSxo8LdZJGbeI3E2+eqT3IST2RKjoYDVyRCYq1dw3TV2sf5lbGXqiEQRAuHw8HkyZNJTEzstL7BgUCAysrK+mqmM2bMID8/v1PmFggiiUajISkpieTkZJxOJ5WVlaLojUDQAt3eUZw+fTrbt29XWoaglgULFkSlWXPMYvfToNILv+4d2RQuvTqEWpKQAZUkIYdRQFUOgTpU4yzavQF+OeaixN645cawJBfZ8eF9fSTpZT4/19RMFdQQFo8oZS4QhMPnn39Obm4uzz//PA8++GCnzGmz2aioqMBoNJKUlIRKpeLw4cPMnTuX7777rlM0CASRRq1Wk5ycjNFo5NixY9hsogK3QNAU3d5RvOSSS3jmmWeUliEAli1bxrnnnsvIkSOVltJ9qHOSap2n0zMjmwYjAX0MUr2zGG6atlRrr5YgGAyxvcrD9koX3mAIg9rHxQPb9tVxZo6Wi4bqaegU192XOf0tbisQCGDhwoW8/PLLVFVVMX78+KjP53a7KSkpQZIk0tPT0el0jV7ftm0bixYt4vPPP4+6FoEgWuh0OjIyMpAkidLSUtEDWiA4gW7vKJ522mn069ePf/7zn0pL6dGUlZXx8ssv8/TTTystpXvhP94qAqDKHYXomiQ1vSax1c1q7FW1kb+Ddh8/lNpJ1bYvVfS0NA0nOokQokJEFAWCZqmqqmLUqFH06tWLzz77LOrz1aWZulwu0tPTW+yDuHbtWl5++WWWL18edV0CQTSJj48nLS0Nl8sl0lEFggZ0e0cR4N133+Wvf/0roVD4jckFkcPlcjFq1ChWrFihtJTuSV1/QWDt0ciu1wuG4LAz2O6CT3XbybVOZoU3SI6pfVpGpqlOSjtFkvAGxedWIGiKjz/+mP79+/PGG2+wYMGCqM93YpppOL3FPvvsM77++mteeOGFqOsTCKKJLMskJSWJdFSBoAFNVj1trYpauFXWIm0HNc0sm7L//PPPGT9+PO+88w6DBg0KezxBx7n11lspLi6OuSajncK0O2HS7TXOogxryzyAIWLDWzwg19aPaWNAETkEUv3FlxAyIIdCZBrbp0WC+shpvaBQEIPc+DugK36/RHNeoa9z7KB76bv77rspKyujtLS00TjR0Od2u3E4HJhMJpKTk4Hj/ehO1NfU86+99hq//e1vWbJkCffff3/E9YVLc/qiOa/Q1zl20Hn6VCoVKSkp2O12jhw5QkJCAiZT61dIu9P3S2fN2xP1xVol3ZiIKAJotVq++eYbLrzwQl555RWl5fQo3njjDZ5++mlMJhP/+Mc/8Hq9jW4OhwOHw3HS803djhw50qpNuONF2i4a+rjg7kbZmD/kR3Z9xBFbkGAIQu0IKAYlAImaxNCa+xASP5W2L1W02lMzzokFbVL0MfM1JBB0mJKSEkaMGMEpp5zCe++9F9W56tJM3W43GRkZLaaZtsbzzz+Pz+fjgQceiKBCgUA56tJR3W53fdVfgaCn0WREMVxvWAk7WZabtdNoNOTn57N48WKysrJ4/PHHufrqq2POu++K3Hvvvdx88808/PDDfPfdd00WGOro8W3PeJG2i7g+gxoq/Q2a0MM3hzyc1UvX+ratEAqFeGJjAJAIhUIE5fCqnh7fHvy1EcC6tO4AIfKr2pcquqVMBUYN2L0QCtZPkpugbXJfxcTxjbCd0Ncxu66u75///CePPvooa9asYciQIVGd12az4XK5SEpKQqfToVa33lZZluUW7R577DGeeeYZbr/9dpYtWxaWvnDmDdeuNX3RmjdcO6GvY3ZK6UtPTycQCFBdXY3BYGg2utjVv1+Evo7ZtUVfLBGTl/IfeughNm7cyM6dOzEajTzwwAMsW7aMI0eOKC0tpjGZTDz33HPk5ORw9dVXKy2nW9DPqGqwRrGmsM3sj6pw+jp+5fK9nX4OOCEQChGk5r4t1NnXbe+rTRf9tixAib1t+kqcIcDIwuHZnD8sA4y6+vTTgUnh/aALBLHMjTfeyH/+8x+Ki4tbdRI7QmvVTDvKPffcw+TJk7n00ksjOq5AoCSiOqqgpxKTjiJAZmYmTz31FF6vl/Hjx/P+++9H9cdXcJyFCxeycOFChg0bprSULs+ZKbV9E+vX7NU4Z1esqu7QuOUOP09uD+GvcxKDIUKhmohgOPg47hwGgLqsfF8oRJE3xB9/aFvRnae2HM99HZwQx8JROUwalgVamTNy4to0lkAQSxw4cID+/fszceJEXnrppajOVVVVFVY1045y7bXXMn/+fM4+++yozSEQKEHD6qjV1R37nRYIugMxfynf7/fz7rvvotFoWLNmjdJyegxjxozhrbfe4oYbbmDp0qVKy+mynNc7jte/qwRJbpB+GuLbPT6e2WRnwVgjshzeAsPyTZvB76faFeTz/VpOq/DgCwRr+yFKSFJNP0WJmgI3TRGiplJqEAiGQgRDoZqIYm0aat199d4Q/3NY5vIh2lZ1fVgAOf6T7aYDk+L8lK8rI3HQQAwZGWH9nQJBrLBs2TKWLFnC6tWr6devHyUlJVGZx+/3c+zYMcxmM3q9PipznMgll1xCUlISo0eP5qeffuqUOQWCzqCuOqrb7aa0tJSUlJSwU10Fgu5GTL+zCwoKuP3227n99ttFGowCjB49milTpnDllVdGvShDd+W8Pvp657CmPCn1ZUqLnGZ+952fP47zkWRoOS9+xRlnU7m1oP5xAnBadKUD8GkYNrraW1MkAu/X/n/y//s943//YER0CQRdnfnz56PRaCgqKorqPA6HA6fTSXp6eljtLiLJWWedxbJly8jLy2P//v2dOrdAEG30ej1arZaKigoMhshVKxcIuhIxm3paUlLCtddey7///W/hJCrItddey/jx40Ul2mYw62RIq0s/pbYoaAiMWlJ0ahK0eh7/0ciXhR6qnT4CTVRdK91/uJGT2F1Z94fHlZYgEESdgoICcnNzmTFjBq+99lpU56prHJ6WltbpTmIdo0aNYs2aNZjNZkXmFwiiiSzLpKWl4ff7sVgsSssRCCJOTEYUd+7cyUMPPcT333+vtBQB8OCDD6LX67nxxhsjXjghFrhreCIvrC6jfo2iJDE47fj6IaNaZkN5IhvKwR0IsvnYMcaZQ6glib8Vws1aP0MBDRIZ7fhIuwhSQQCA/n36tHl7v8/PgaNH0AAZtL0iWMP5BYJYZunSpTz33HNs2LCBnJycqM3j8/koKSkhKSkpqmsRw6Vv374cOHAASZKoqqoSTqMg5khMTMRqtVJSUkJKSkqPrI4piE1i0lG85ppr+PLLL5WWIWjAK6+8wuOPP86SJUuUltLluG+cmRdWlzdao3h6UtNpLLssbjYW+9lYKtXYShJfHLYyFEhB4mLaflJYiIcvcSIhceGFl7X9D7BaeP7Nv2NG1a759+NjJfa2zysQdCPmzJlDcnIy+fn5UZ3HbrfjdrvJzMxEktrRQDVKJCYmEgqFSEpK4scff6RXr15KSxIIIoperyc1NZWKigr0en2XuEgjEHSUJh1Fn6/lioatvR4tO4BgMNii/UsvvcTUqVPJzs4Oe0xB9Lnooovo06cPDz30UIt2rR1f6Nrvv/bMmxmngf5xsM9Vk34aryVV3/Q1nDXHHLVCQvWJ47HUAtjn88Xc8Y2UHQh9HbEDZfT99NNPnH/++fztb3/jsssua3G7juqrqKhAp9NhNpujtv/8fn+HxisvL2fQoEG8/fbbjBo1qsvpi5YdCH0dsYPuoS8QCGA2m7FarZSWlpKcnNyl9Inv5/bZQfj6Yi2aHHMRxU8//ZTnnntOaRmCE0hMTGTu3LmsXr2aadOmKS2ny/H3MYncWOiqWaOYYmzSpsrjB7unPpJYF4H0tbE/okAQbY4dO8aePXvYtn0nW37ehlatZtLE8YwdM5q8vDyl5XUaL7zwAsuWLWPLli1kZWVFbR6v10tFRQUpKSndIr2/oKCA8ePH88QTT3DuuecqLUcgiDgJCQl4PB6Ki4tJSUlBq229QrhA0BVp0lEM1xtWwk6W5Wbt3G43wWCQkSNHhjWfoHNRq9UujsKyAAAgAElEQVTs2bOHGTNmNGvT0vE9ka72/uvIvNecaubGz8rAE2RGYtPl6z8os9VGEiWgNk01WNOyIlb45z//iSzLzJ49O6aOb6Tsuqq+srIyCgoKWPvdD+wt3I/XGyA9uxe5uX2Yef4cgsEg+wrzWfvSMqyWY0w4bRxTJk9gxIgRrZ5Addf9d/HFF9O3b19+/PHHqOqz2Wx4vV569+7dpF24ZfvDsZNlOWLjbdq0ifPOOw+n0xlWwbnO1hcNO6GvY3bdTZ9arcZoNFJRUUEoFGqUiip+P04mlvTFEjEVUayoqCAhIUFpGYJmGDlyJKWlpUrL6JJoVBJXjjHz3sZqhiU03YDeUemq+U/ouJOIDFZix1McNmwYixYt4rrrrmP+/PnMnz+fCRMmKC1LcALFxcXs2bOHzT/+wrZtOwkEQmRk9yK3V19mzJ6IyXTy9/DocRMZPW4iXq+HosIClr/3GYef+ivDhg7mzDMmMWrUCFJTUxX4ayLL5s2bmTZtGsuXL+eiiy5qU2pTW6lLNU1JSYnaHNHk66+/Zs6cOVRXV3P99dcrLUcgiAopKSnYbDZxjirolsSUo5iVlcXKlSuVliFohsLCQhITE5WW0WV5ekoK7+3zNvnaz1VO8PhrUlPrncSa9NNArZ/oJ4SzHSsWPbX3IULgcrR5e7fLCdSslWzP/K4G25xyyil89NFH2Gw23nvvPRYsWMCxY8fqncaelLbYlThy5AhFRUVs3vIzP2/bgSxryMzuRU5uHy645GoM8SYAZFlCq1YjyxIajarJsYJBPQkjxzBsxCh8vgCHD+7nP2u3sOyt90lONHHG5NMZN3ZMsxGyrsxTTz3FBx98wJEjRzCZTFGbx+PxcOzYsZhIafv444+54YYbqKqq4t5771VajkAQFUwmE16vl+LiYpKTk3tkZErQPYkpR1GWZaZOncru3bsZMmSI0nIEJyBJkjjRb4Eck5qHhqfibMJXXG1110QSaewkgkSwdo3iMUK8Rsf6OD3/6tJ2b1tBoMPz12Eymbj99tu5/fbb2bt3L8uXL+ecc84hOzu73mkUP7TR49ChQxQUFLB5yy9s3bYdjc5AZlZNxPCSK04nPj4erVqNTqdGrVKhUsnode07HplpiYwcMRyP18fhw4cp2JvP12texO2wMuH0cUyeNIGRI0cq1gcwXGbNmsXw4cPZtGlTVOdxOBx4PJ6ornnsbF599VV+97vf8cc//pFHH31UaTkCQVTQarVkZ2dz7NgxJEnCaGy6HoFA0JWIKUcRYObMmXz99dfCUeyCPPnkk3g8ntYNezALTovj4W896E48KbbUVkQlVBNVDHLcWax1FFVAIidHcVwEcRFCQiKtHSlqPq+PKpsFNZDQxPit4SGIo4X5PR4vFru12e0HDBjAkiVLWLJkCevWrWP58uUsXLiQGTNmcNVVV3HZZe1o6SFoxIEDBygoKGDT5p/ZumMncXEmsrJ7kdOrD5fNm4zJaESn06BRq9DpNGg1kfvp0GrUaDVqjAYdyeYhDBk8AIfTQ1VVNXv35PPa8n9w6P89xeiRwznrzEmMGDGCpKSkiM3fUdatW8e0adP45JNPmDlzZlTnslqthEKhbptq2hJPP/00jz32GHfddRcvvPCC0nIEgqiRmpqKy+XCarWKVFRBlyfmHMU77riDjIwM7rrrLqWlCBrwzjvvcN9996FStd3R6Ekkx8GZvSQ2HDn+nMMfBLu3JuWU42sTCVFb/bTGLg2Zyzj5R2crbr7FRUK8iavm/qbNmlwlR3n5o3fJRc0FtD2dbhtu/ouLeKOxyfnLiwp5+/N/hjXW5MmTmTx5MkuXLuWDDz7grbfearSeceLEiW3W1xPZv38/O3bsZMuPv7BzVz5Gk5nM7F7k9spj7tiz0Ov16LUa4vTa+qhhZ6HVqNEmqklKNJKbk8G48afhdHspKtzDyq+/5+VX3yI9NZmpUyYyZsxoRVshPf7443z99dfYbLaop4BWVVWh1WoxGJrusRoLPPTQQ7z44otcffXVvPXWW0rLEQiihslkwuFwUF1djdlsVlqOQNAsMecoGo1GHn74YZ544gkWLVqktBwBUF1dze233051dbXSUroFV5yi5YejLuRQzcdzp6U27bS22GnDQjaEIIZq2bSJSy65hEsuuQSPx8Py5cu59957KS0trXca+/fvr7TELsPevXvJz89n05Zf2LFjJwlJqWTn9CGn1xBGT5yBRqNBo5LR67UYDbqIRgw7glajJtkcTzKQlDCKIUNPwen2cqyshK27C/jsqzX4PS6mTD6dCRNOY/jw4Z2mbfr06UyaNInvvvsu6nNVVFRgMBiIi4trtY9cd+fOO+8kKSmJCy64gM8//1xpOQJB1DAajbhcrvrWNgJBV6RrnA1EmAULFnDDDTewYcMGTj/9dKXl9Hj69+9PcXGx0jK6FY+fFcftq5wkazSstThrnMG6tYmN7qlPPe2pxMfHc9ttt3Hbbbexb98+li9fzowZM0hPT2f+/PlceeWVjcqS9wQqKirYsGEjm3/8hZ07d5GclkVWdi9y+5zCuMkzUalqvvo1Kpl4o564OG2nRg3bg9Ggw2jQEQwGSUowkJWTw2kTz8ThsFNUWMDSV9+l+PDjjB83lilnTGDMmDFRib6tWbOGadOmsWrVKs4666yIj38iZWVlmM3mbl+0pi3MmzcPs9nMGWecwTfffKO0HIEgasTFxSHLMuXl5aSlpSktRyA4iSYdxdbKeYdb7jvSdgDBYDAsfUuXLmXUqFG8/PLLnH322WGPL4gcH3zwAUuXLuXnn38mFAqFdZzDPb7hoOT7r6PzqoEnzlBz37c+qHY1aIkRBFlu7CzGUEjR5/N1aP/16tWL3//+9/z+979n/fr1vP3229x///2cffbZXH311VxyySUtjhkr77/f3b+IvgNHkNtvOBPPmo0kSY1s9FoNCaa4dhegURJZljHFx2GKj8MfCGCz6zEnJDBsxBgA9u/N550PV/LnJ59l6f/8jYyMjPptO3p8H3nkEb7//nu8Xm/Y79WOHN+SkhLS0tKQZbk+kqj0+6+1iGak5p0xYwYmk4kRI0awZcuWLqevrXYg9HXEDmJXn0qlwmQycejQITIzM6OqLxZ+3yI5bzT0xVqhva5dRq6D7Nixg4ceeogvvvhCaSk9im+++Ya7776bjz76iJUrV4qUinaSEifx2GQVGELHI4ohapzFUKjB49hxFCPJhAkTeOGFFygtLWXevHm89957mM1m7rjjDr7//nul5UUVj8fDiDGnk5yajtPlxO314PP7UcsS6SkJpKcmdEsn8UTUKhXmBANGg4zVWsK///M567eso9phweZ0UV5eHpF5PB4PU6dORavVsmrVqoiM2RKBQIDi4mIyMzPDbggei0yaNIm33npLpJELYh61Wk1GRgbFxcUEg21vMyUQRIsmf4HC9YaVsJNluU3jrVu3jt/+9rd88MEHvP7662FtJ2g7P/74I+vXr+fFF18kIyOD+++/n1mzZgHHr9hE4/h2tl1n6+uTBEeuySHntcNQ6aem6qnUON00hvzEhvsikvv50ksvZc6cOTidTpYvX84f/vAHjh49Wr+eccCAAUDsvP8k6fg1wGAoRNDnIyD7yUpPQJZD+AN+ZFlGlrrftcJAMIDdZsVircZms+Cw2wmGAgC4nDb8vuP9ZdRqdaP91Z7j+9VXX3HxxRezevVqJk2a1KxduOO1RF0LEKvV2mofyXAdyEjaybLc6fOOGDGC9evXk5iYWF/Qpyvpa4ud0Ncxu56gr3fv3pSWlmIymWrWjnfj85e22sWSvliiR1yqfP7553njjTcYNmwYt9xyC3fffbfSkroVbrcbh8OB3W7H5XJx5MgR9u7dS2FhIS6Xi7fffpu8vDwuvvhiPv74Y4YOHaq05JgizaBi329y6Pf6Eajy10QQpbrKNtQ7jSUEeZGqZsex2K08/+Kz7VBQM34R/hbHbw2bw97M/J3n6RoMBm655RZuueUW9u/fz/Lly5k1axapqalcffXVTJ8+vT71J9ZINBmRJZlgMEQwGAACSJJU6zDW3J+YotoVCAQCWGzVWK0WbLZqnA47oWbW5fbr25sff9kWsbnvv/9+tm3bhtvtjtiYLeF2u7FYLKSnp3fKfN2F7OxsysvL69PzxP4RxDIZGRmUlJQQHx/fIx0TQdei+11Obie/+c1v+OWXXygqKiI+Pp5HHnmEbdvafkLx6quvcuqpp7J+/fooqOx6LFq0CLPZzODBg5k6dSpXXnklTzzxBD/99BPJycmce+65FBYWsmXLFv74xz8KJzFK5JrUlN2ax+BT4msrnTZMR605aZYIoUNq5cZJN3V96dQQeq2+iVtcizetStfB+ZUhLy+Phx9+mD179vDcc8+xa9cuxo4dy0UXXcRHH32kkKroYTadXNglFAoRCATw+f14fF68Ph/+QICgggWSfH4/xyrL2V+0l63btrBp8zoK8rdTUnwIh93WrJMIkGRORK/Xd1iDzWZj3LhxpKWl8eWXX3Z4vHBwOp14PB5SU1M7Zb7uhsFgwOPxMHz4cAoKCpSWIxBEldTUVJxOJ06nU2kpgh5Oj4go1qFWq3n22Wd59NFHWbp0KfPmzcPv93P66aczduxYTjnlFNLS0khJScHtduPz+di5cyclJSWsWLGCQ4cOMXnyZN577z3uuece/vCHPzBt2jSl/6yocdVVV3HhhRc2ezW9LSmlgo6TZlCxe24ur22zcsNnJeAKNqp6moGKy0hs87iFePgSJxISt958e9uFWS08/+bfSUXNnCb6OLbGfnysxN72eSPIhAkTmDBhAg899BAbN25k+fLl9Wmp8+fPZ8qUKYrq6yhGg64+rbFZQhAMBevXx0iShKySUUkSkiwjEZ1oo9frxWKtwmqtxma34nZ17MTInJhASQcigJ9++inXXXcda9asYezYsR3SEi42m41gMEhycnKnzNedKS0tZfDgwbz55puiqrkgpklOTsZutxMMBntc5W5B16FHOYp1GI1G7r33Xu6++26KiopYt24dW7ZsYdWqVRQVFZGamsqBAwcYO3Ysfr+fsWPHsmDBAmbOnFmfmvWf//yHtLQ0du3aFZNXgG+77TbGjh3L3LlzlZYiOIHrhycwo6+BISuKse+xx9Qaxa7A7NmzmT17Nm63u34948GDB+udxry8PKUlthltOy7mhEIhAv4AAQAJVLKMJMn1qartxe1xYbVYsFqrsNlteDyudo/VFMlmMyWlZe3a9p577qGoqIiKiopOuwBmsViQZZnExMSIFd+JdfLz85kwYQJLlixhxowZSssRCKKG2WzGZrNhsVhITGz7hWCBoKP0SEexIX379mXgwIFce+21zdrURc5OXL9z+PBhJk2axCeffEJubm40ZXYqV155Jb/5zW/qi9EIuh45JjW2a3rx1y0WfvtxidJyYhK9Xs9NN93ETTfdxIEDB1i+fDkXXnghiYmJzJs3j2uvvbbb/HCr1R3skRiCQCAI1EQbZUlCUtUUw5ElqcW1jQ6XHZvFgtVmwWa34vN6OqalFfR6Xbu2Gz58ODfddBNPP/10hBU1j8ViQaPRRKXfY6yzfv16Zs6cSXV1NXPmzFFajkAQNUwmEw6HA6vVSkJC27N2BIKO0GPWKEYDnU7H+vXrmThxIv/973+VlhMRTjvtNM466yzOPfdcpaUIwuCesYlUX99ydURBx+nTpw8PPfQQ+fn5PP/88xQUFNCnTx9mz57Nhx9+qLS8VnG7I7vOJVgbbfT5fHh8Xnx+f+3axiB2u42jxYfYnb+dTVu+Z9vWLRQd2EtlZXnUnUSAeKOxXdu9++67nVrozGKxIEmScBI7wFdffcWKFStYunSp0lIEgqhirP1es1qtCisR9DSEo9hBNBoNhw4dYvHixTz11FNKy2k3K1asYPTo0bz00kvccMMNSssRtIEuWKgyphk/fjzPP/881dXV3HTTTXz44YfodDpuvPHGLnvB6JVXXuTV1//Ouu/XUl7evrTMZgnVVCb1+/1UVlWyfcePHDy4j+rqCgL+8JsZRwqNpjZRpo2fi1NPPTXyYpqhLpIoogMd57333uOXX37hz3/+s9JSBIKokpCQgEqlwmKxKC1F0IMQjmKE+Oabb3A6nQwcOJD169fzf//3fxw9elRpWa1y8OBBZs2axfLly1m/fj3jx49XWpJA0G248MIL+eCDD7DZbEycOJHFixfTu3dv/vCHP7B7926l5dUzbNhwjlWUs+a/q3n57//LX198ln/9+18cOFCktLQeh81mQ5ZlEUmMIP/7v/+LxWLhT3/6k9JSBIKoYjQakWUZu13ZAnCCnoPk9nhDgUAAp9OB1WKlX788SkpaXvNUVxWvtSp6kbYDcDgc9SH4rqhvx44dPPjgg5SVlfHYY48xf/78VrdRgkOHDvH3v/+d1157jSeffJKzzz67/jVxfLuXPsehQ3x22jnIhDC049qPjxB1CYEJhrZXVvMHgzjdzojMf2VxQbc/vkeOHOGjjz7io48+wmg0ctlll3HZZZdhNps7Td+ddy3gyuvvqX+uf+9MgsEgBw8UsWvPbvbsya9PYdLr4xjYfwCDBw2hX/+B7Sp8U4fdYWPvnh3t3j5SbPl5Gzu2/swjv7+/UcsepT+/TqeTYDDY7NpWp9PZqgOp5Oejq+t79tlnOXr0aIvrTMX+E/piQV91dTUqlaq+HVB3PX+JRX3Z2dns27efhMQEDAYjKlUHawQoTJPFbFprOB1uW4RI2wGUlJR0aX0AmzZtYsyYMSxatIiPPvqI+++/n8mTJ4e1bbTZuHEjTz/9NOvXr2fRokUcOnToJBtxfLuXvlB6Oiq9noDbjb2DJVCtzvZfpQwidWj+fheeQ2ZmZrc/vpmZmYwdO5Y//elPbNmyhXfffZdJkyYxadIk5s+ff1LhjWjoUzcYS6ut+ZqXZZm+ef3om9ePWdN/RWlZCQUF+eTn72bbjm1s27ENlUpFnz55DBk0mMGDhmA0du+S7KmpqY32l5Kf30AggFarbbEFRnl5OWlpaS2O5/f7gZp2T51p1x30LVy4kBUrVnDnnXfy/vvvdzl9XX3/CX3dR19aWhqVlZVotVp0Ol23PX+JVX2xRI+vehothgwZwn333YfRaOSBBx6gqqqKyy+/nMsvv5xhw4Z1qpZffvmFjz/+mI8//hiTycS9997LBx980KkaBNFDkmWu/O4rfnjscVwWC1qttkX7uoblLVWqjIYd1PTMa0pf0oABjL77zla3726MHTuWCRMm8Ne//pWVK1ee1J/xrLPOiroGWWr6SmlGeiYZ6ZlMOWMqdruN3fm72b1nN0VF+9i3by9ffLWS7MxsBg8ewsABg0hPz4i61ljF5/PhdDpjspVSV+Pmm2/GbDYzffp0Vq1apbQcgSBqJCcnU1xcjCzLop+1IGoIRzFKmEwmbDYbc+fOZfbs2ezcuZMPP/yQOXPmoNPpmDJlChMnTmTSpEn06tUronPv3buXH374gU2bNvHFF18QHx/Pr3/9az788EOSk5NbvSIi6H6kjR3D7BUfxcQVuVjl/PPP5/zzz8fn87F8+XKWLFnC/Pnzueqqq7jqqqsYOXKkYtri402MGzuecWPH4/V62Vu4h90Fu9m3dw9r/ruaNf9dTWJiIkMGDWHQwCH07t0bqRkHVNCYQCBAVVUVOTk5SkvpMVxxxRUkJSVx2mmnsXHjRqXlCARRIy0tjZKSEvR6fVjpkwJBWxGOYpSIj49vtNj4lFNOYfHixSxevJitW7fy73//mxUrVnDfffcRCoWYOnUqycnJ5OXlkZeXx8CBA9HpdBiNRgwGA/Hx8QQCARwOR/3N6XSyZ88e9u/fz/79+/H5fHzyySckJSXVO6H33HMP/fv3r9fR2vpTgUAQXTQaDddffz3XX389hw8f5o033mDu3LnExcXVRxpTUlIU06fVajll6DBOGVqT+VC0f1/9usYNmzawYdMGtFot/fsPZMzI0eTl9W9lxJ5NWVkZ2dnZSsvocZx33nmYzWYGDRpEQUGB0nIEgqiRmZlJaWkpWVlZSksRxCDCUYwSdRHFphg6dChDhw6tj8AcPnyYrVu3UlhYyP79+/n2228xGAxs3Lix3iE0mUyUlZVhNBrrb6NHjyYYDNKnTx9GjBjBoEGDePLJJ8M6yVyxYgX9+/dnxIgREf27BQJB+OTm5nL//fdz//33s23bNpYvX87gwYM57bTTmD9/PnPnzlVaYpPrGncX7GbXrh3YLBbhKLZASUmJOHlTkPHjx7Ny5UrS0tIoLy9XWo5AEDUyMjJ6dMaOIHoIRzFKxMfHU1paGpZtbm4uubm5Jz0frWI7AJdccgnp6ens2LGj1cXXAoEg+owZM4YxY8bw3HPP8eWXXzZaz3jNNdc0qkzcFuL0La9ZbQsN1zVarVZKSoojNnasUVZWJtYkdgEGDhzIrl270Gg0VFdXo9PplJYkEEQcWZZJTU0Nq6COQNAWREJzlGgpothVWLVqFdOnT1dahkAgOIFZs2bxzjvv4PF4mDp1Ko8++ii5ubk8/vjj7Ny5U2l5QE3z50GDBisto0tSUVGB2WwOq1KiIPqkpqbicrnIyMjg8OHDSssRCKKCWq0mISGBiooKpaUIYgjhKEaJ7uAojho1irlz5/LAAw8oLUUgEDSBSqXi2muvZfXq1WzYsAGTycTll1/O2LFjef7556msrGx1DG8MluvuylRVVWEwGFqtPizoXNRqNXa7nSlTprB9+3al5QgEUUGn02EwGKiurlZaiiBGaPJyZ2t9QMLtExJpO6hpZtkd9On1emw2W5PbdgV9dSxYsIAZM2awatWq+tS2rqSvM+YV+jrHDoS+jtilp6dzxx138Mgjj/DTTz/x9ttvM3DgQE4//XTmzZvHFVdcUT9eKBSs3y4Q6Fhvze6M3+9vtH+jfXytVitqtRqNRlPfB62t77+67aKhryN2EBv6CgoKGD9+PC+99FKL/Y27wv4rLy9n7969bN2+ky0/bUWj0XDGxPGMHTOavLw8xfV1ph0IfeHaaTQaPB4PFRUVJCQkNNLXVX/fIHb0xVqrEpEXEyW6Q0SxjroWGi6XS2kpAoEgDEaPHs3o0aN5+umn+fLLL3n77be59tprmTdvHnPmzFFaXo/E4XAgyzJGo1FpKYJW2LRpE+eddx6/+93vuOCCC5SWU09paSm7du1i67YdbNuZj88XICu7N9k5vZlxwRxCgSD7CvP59sXXsFWXM378WM6YdDrDhw8XEWxBI+Lj47FarTgcDvGdJOgQTTqK4XrDSti1pbGokvrMZjMOh6PFbbrK/tNoNHz22WdcdNFFfPHFF11OX2fMG66d0NcxO6GvY3ZN6Zs9ezazZ8/G7/ezfPlynnzySaqqrWHNGevURffqiNbx9Xg8BINBkpOTW9TSGrIsh72uUQm7WNL33XffMXv2bGw2G/Pnz1dE39GjR9mzZw9bfvyFrdt2EghJZGb3IrdXXy64aByGeNNJY4weN5HR4ybi9XooKizgnQ+/4PCzLzJs6GDOPGMSo0aNaLKIUk87vkIfJCcnU1FRQSgUQqvVdsvft86YN1y7tuiLJUREMUp0p4gi1BTPWLVqFc8//zx33HGH0nIEAkEbUavVXHfddVx99dVcceXVSsvpUVRWVoo2GN2QTz/9lGuuuYbq6mruuuuuqM939OhRtm/fzuYtP7N12w5kjZ7MrFxyc/tywa/HYTTGAyDLElq1GlmW0GhUTY4VDOpJGDmGYSNG4fMFOHxwP/9Zu4Vlb71PcqKJMyafzrixY+jTp0/U/y5B1yUlJYWjR4+KXq6CdiMcxSgRHx+P3W5XWkabeO655zjllFOYNm0aQ4cOVVqOQCBoJw2veopiNtGloqIirN61gq7Jm2++yd13382f/vQnHn744YiOffDgQfbs2cOmzT+zbfsO1No4snL6kNurD7++chJxRgNatRqdTo1apUKlktHr2hexyExLZOSI4Xi8Pg4fPkzB3ny+XvMiboeViRPGM2ni6YwcORJZFjUMexqpqamiEqqg3QhHMUp0t4hiHatWrWLixIns27dPaSkCgSACBIMh/P4AanXTkQlB+7HZbOh0OrE+rJvzt7/9jcWLF7Nw4UKeffbZdo9TVFTEnj172LjpJ7bu2InBmEBWVk0q6WXzzsBkNKLTadCoVeh0GrSayJ2CaTVqtBo1RoOOZPMQhgwegMPpoaqqmr178nlt+T849P+eYvTI4Zx15iRGjBhBUlJSxOYXdF20Wi1arVZUQhW0C+EoRonu6ijm5uby8MMPc/PNN7Ns2TKl5QgEgghgd7kxm0RBg0ji9Xrxer0trksUdB+WLFnCc889x/XXX89rr70W1jb79u1jx45d/PjTL2zftRuTKYmsnN7k9urPVeOmodfr0Gs1xOm19VHDzkKrUaNNVJOUaCQ3J4Nx40/D6fZSVLiHlV9/z8uvvkV6ajJTp0xkzJjRIkU1xjGZTBw+fBiv1ysubAnahHAUo4Qsy+h0OlwuF3FxcUrLaRPXXnstX3/9Ne+//76ooCgQxAAOp6dHOYpujyfqc1RUVIh1PzHGggULWLZsGZdccgkffvjhSa/v3buX/Px8Nm3+mR07d5GYnEZWdm9yew1hzKQZqNUaNCoZvV6L0aCLaMSwI2g1apLN8SQDSQmjGDL0FJxuL8fKSti6u4DPvlpDwOtm7OjhnH32VIYPH660ZEEUqEtBFeupBW2ha3yLxSh1UcXu5igCvP3226SnpzNjxgzMZrPScgQCQQdwe7w4PV4Mup5xJdntdkd1fLEuMXa57rrrSEpK4txzz+X9999n/foNbP7xF7bv3EVqWhZZ2b3I7TuMcWfMQqWqOYXSqGTijXri4rSdGjVsD0aDDqNBRzAYJCnBQFZODqdNPBOHw05RYQFLX32X4sOPM37cWKacMQoYefQAACAASURBVIExY8ZgMBiUli2IEMnJyVRWVopMCEHYCEcxitQVtElPT1daSrtYtWoV06dPZ+PGjUpLEQgEHaSiyooh8+Sy+YK2Ybfb0Wq16HQ6paUIosTFF1+MyWTioosu5dzzL6NX3qlMPGs2kiQ1stNrNSSY4tpdgEZJZFnGFB+HKT4OfyCAza7HnJDAsBFjANi/N593PlzJn59+jldf/h8yMjIUViyIBDqdDo/HI/orCsKmSUfR10qVvNZej5YdQDAY7Db64uPjqaqqOmn7rqKvtfFGjRrFBRdcwO9//3uWLFnS5fRFal6hr3PsQOjriB2Ery8UCp70vNfrp9JiJzkxPuz5ujt+v7/R/uro8fX5fNhsNtLS0qJ2fP1+f0TGE/o6Nt6kSZNIy8hgxJjTAXC6nKjUalSyijithuQkU7d0EJtCrVJhTjBgk/0cPHKUjZs2U36sDL/Pi83u5OjRo/UR9Fg5vj1Zn8FgoKysDEmSTuoLqLS+WPj9jbVeiyKiGEW6Y4uME1m0aBHnnHMOa9euZcqUKUrLEQgEHaDKYkev18Z0CqrfH4ja2BUVFWRmZkZtfEHXQq8/vmwkGAoR9PkIyH6y0hOQ5RD+gB9ZlpGl7tdyIhAMYLdZsVirsdksOOx2gqGaz47LacPv8yqsUBBN0tLSKCkpEd9nglZp0lEM1xtWwk6W5W6jLyEhAZfL1ex2SusLd7xVq1aRlJSEy+Xqkvo6007o65id0Ncxu3D1SS2cuJaWV5GTkYw2xq561mFrcHFOrVY32l8dOb6VlZWkpaWd9LxaHd711nDsZFmO6HiRtutp+k5MNQVINBmRJZlgMEQwGAACSJJU6zDW3De1ndIEAgEstmqsVgs2WzVOh51QKNSkbb++vfnxl231j9Vq9Un7KxaOb6Ttupu+tLQ07HZ7k21SuvLvW6TnDdeuLfpiCRFRjCKxEFEE0Ov1vP/++1x00UV88sknSssRCAQdIBgMcaS0MqadxUjjcDhQq9Xo9XqlpQgUxmw6ubBLKBQiEAgQAJBAluQax7HWeVQCn9+PxVqFzWrBZrPgdDqAph3DE0kyJ6LX66NeFEqgLHq9XqxXFLRK98uX6EZ0116KTTF79mx69erFSy+9pLQUgUDQQeqcRW8b1md0F1pbI9Se8ZxOJwkJCREdV9D9MBp0yHIrp02h42vBvF4vHq8XX8BPMBggFKaj1h68Xi/lx0op3JfPz1s3sWXLOvbu2Ulp6RGcTjvhOol1mBPF+70nkJiYiNPpjPj3piB2EBHFKBJLjiLAiy++yMCBA5kxYwYDBgxQWo5AIOgAdc5iSlICCcbu18KnOaos1oiOd+zYsW5buVoQWdoTgQ+FQgT8x6ONKllGkjoebXR7XFgtFqzWKmx2Gx5P00tD2kuy2UxJaVlEx+wo4nMY+zSXDi1QDuEoRpFYST1tyKpVqzjnnHPYt2+f0lIEAkEHCQZDlFdYcLu9pCabumVRjhOpqq6O3FhVVZjN5tajSIIegVrdwR6JIQgEgkBNVWJZkpBUNcVwZElqcW2jw2XHZrFgtVmw2a34vJ6OaWkFvb5rtn8RjkTs0hXX9gqEoxhVTCYTFotFaRkRJS8vjwceeIBbb72VF154QWk5AoEgAtgcLhwud7ePLrrcbux2R0TGqlufJdYlCupwu50R/XwEQyHwBwgQqI02quoL4zgddqx1xWfsVgL+zk0Tjxdr1gQCAWKNYlSJxYgiwC233EJ5eTkrVqxQWopAIIgQddHFI6WVUW0xEU32FR2M2FjV1dUkJiZGbDxB9+eVV17k1df/zrrv11JeHuG0zFBNZVK/309lVQXbd/zIwYP7qK6u6HQnEUCjqY0jiCCPQNCjERHFKBJraxQb8vHHHxMfH8/06dMxm81KyxEIBBHC7fFy4Gg5SYnxmBMM3SYdtaraErE1VTabjfj4eJFyKmjEsGHDKdiTz5r/HmHNf1djMpkYMmQYQwYOpk+fvkrLEwgEgojTpKPoa6USXmuvR8sOaqqJdRd9er0em8120vZdRV9Hx/v000+ZNWsW3377bZfU19X3n9DXOfP2RH2hUDDsMZujymLHYnOQaDKSnBjf4fGiid8foKDw5HXTfr+/0f4KZ/+53W6sViu5ubktVgKM1vFtrfqg0u+/nqTvxPVwl8y+lGAwyMEDRezas5s9e/LZtGk9mzatR6+PY2D/AQweNIR+/QfGROsZc2IiR6j5HNXtVyWPryD2iYXf31jrtSgiilEkliOKABMmTGDatGk8+uij/PGPf1RajkAgiDDBYIgqix2bw0VSYnyXXL9oszvYmV/Q4bWJc+fOZcCAAaSmpjJkyBAAcnNzIyFREANotTWnS7Is0zevH33z+jFr+q8oLSuhoCCf/PzdbNuxjW07tqFSqejTJ48hgwYzeNAQjMaufaFFIBAImqNJRzFcb1gJO1mWu42+pKQk7HZ7s9sprS8S4z3yyCNMnTqVWbNmMXHixC6nL9J2Ql/H7IS+jtmFq0+KcLqo3x+gvMJClcXepRzG8mMV7Mzf02wUSa1WN9pfLe2/OXPmsHv3bn7++Wc+//xzCgsLKSsro3///gwYMKDRff/+/enbty+SJKFWh3e9NRw7WZYjOl6k7XqavoZVGJtLwc5IzyQjPZMpZ0zFbrexO383u/fspqhoH/v27eWLr1aSnZnN4MFDGDhgEOnpGWHp60qo1eqT9pdS7wNBbBMLv7+xhvhkRpFYLWZzIv/617/IycnBao1s/zKBQNC1aOgwmoxxnbqGsaqyErvdhtvt5ki1ix32AAll+9DKoFZr0Oj1HYrcXH755ZSUlJCcnFzvcHi9XgoLC9m7dy+FhYXs2rWr3oncu3cvffv2beQ8Nvy/wWCI4F8v6A7Ex5sYN3Y848aOx+v1srdwD7sLdrNv7x7W/Hc1a/67msTERIYMGsKggUPo3bt3xC/qCAQCQSQRjmIUifXU0zpMJhPLli3jsssu46OPPlJajkAgiDJ+f6B+DaPJGIfZZOx4j7kmKC0pYVdxOT8frWC7Jg2Ssxif1Ad1jgFjXDxelx2n24nTaaesqhxN2T4yZS856rZXbW2qgI1Wq2Xo0KEMHTr0JHu/38/+/fspKiqisLCQwsJC1q1bV///xMTEeqexX79+DBw4sN6RTE5O7tB+EXR9tFotpwwdxilDhwFQtH9f/brGDZs2sGHTBrRaLf37D2TMyNHk5fVXWLFAIBCcjHAUo0hPiSgC/PrXv2bVqlW88sor3HzzzUrLEQgEnUAwGMJic2KxOdHrtISCjZuAu9xu3O7wG4Pb7Q78fj9VlZX8cKCYn+KHQNYomJAHRiNoZAoTdVxv1uPyBfEHQ9j9NfcOXxC3y4mjeD+bDxcRcmzi8OHDDB8+vNV5A4EALpeL9PT0VouhNCQvL4+BAwdy3nnnnfRacXExhYWF5Ofns2/fPj777LP6yGQoFGoyCpmUlERaWlrY8wu6D02ta9xdsJtdu3Zgs1iEoygQCLokwlGMIj0loljHyy+/TF5eHtOnT6dv375KyxEIBJ2I2+OlouIYa7/9rt1jBAIBNh+tZF9iHky8EXplQ1zjn6lMtUyituZ2IuUuLQeMp5LQbxi+4adz55ffcfa2A/zPb69Hq9U2O6/FYol4z8SsrCyysrKYMGEC0HgNVlVVVX3kce/evaxdu5bXX3+dgoICqqurm0xnHTBgAP369YuoRkH4xOmbf/+0lYbrGq1WKyUlxREbWyAQCCKJcBSjiE6nq2+g21MWav/rX/9ixowZ5OfnKy1FIBB0I5wOO5+UeWDGLdA/D9RNr93a6Q/yjd3LZKMWzQnNwNPi1KTFqal0BziqSWf/xAt5dX8RG+5ewhd/uLXJQgRutxtJktDpdNH4s5okKSmJcePGMW7cuEbPl5f/f/buPC7qav/j+GuGZYYdFARUNlfcktRcyyUV1HKtNCtNzat2b2rXbov9WvRWtqdlpXZLb2WpLZotLnjNpVxyRStFUwQ3NtkZmIFZfn8MoMggIMPMAJ/n48EjmO+Z73nPl5D5cL7nnHS8vLzKRh7Pnj3L77//znfffceZM2dISEiwWECW/teWr0FYh7e3N97e3vaOYZGLS+N43yKEqJz8K1DHSkcV/fz87B3FJtq1a8fs2bOZPXs2S5cutXccIUQ9kJ6n4X/FvjBrDrhWPddxu9bAzqJC5nqr8LumoMzSG/mtsJg9upJ9JA1GcAvgj/b3Efr6Wn4c14u7goLKnSs7O5tmzZpZ9fXUhlqtpnPnznTu3Nni8VOnTnH27NmyuZG7du0qG5n09/cvKxojIiJo1aoV7du3p3Xr1vj6+tr4lYj6zsvDw94RhBB2JoViHSudp9hYCkWAxx57jFGjRvHDDz8wcuRIe8cRQjiwK5pC/perhulzKx1FtMRghHdzdSxo4kZqsZGj2msKxFJerqBUQGoBtB7K3V9u4lBwEN07tAMsL2Dj6EpHFC3dpXLp0qWyovGvv/5i48aNZSOTTk5OFkcjw8LCCLqueBYCoECrtXcEIYSdSaFYxxrbPMVS33//PSqViry8vHJ7UQkhRClNfh7bUiC0/wCUuakk+gYwwtedth4uNC2Zg5ivN5FYWMzGLB06U/nnG4ywM7+I7dobrHLq4QJN1ZChhU4j6LHsB87Nu4eQkJCyBWwaihYtWtCiRQv69+9ftihPaUGZkZFRbl7kjh07+M9//sPZs2fJzc2tdF6kzDc3K9QWgXWnsTq8mixEJYRomCwWiikpKTd8ktFo/qttVX+FtXY7AI1GU6/yqdVqEhMTyy2H7kj56rLftWvXMnDgwLItMxwtX03bST7JV1/y6YuLqzyXvRn0er6/qIFbBhDkroLUJHoVZ9Ipone5dp7OCjp7ueLv4sSHqQUVznPDIrGUjwpydKA3QcRg+vx7OT89Np5mzZqRnp5erqk9v78FBQUV8liz34iICCIiIhgyZEi5dgUFBSQlJZGYmEhiYiL79u1jzZo1nDt3josXLxIeHk5ERAQtW7akbdu2hIeHlz12/bzPhnT9DDVYAbchy8zMLLuu9vz+ioavIfz+bd68eZXnqk8sFopV3YZSXPImxNLCAHXZDsz/E9WnfH5+fqhUqnKPOVK+uux37NixHDp0iE8++YRnnnnG4fLVtJ3kk3z1JZ9zNc5lb79cuAJNO9A+8Opt+WFNvHDW5KD3qDh0E6Su5T6NfmpILwQgJSKGdzft5tPnHq/Q7PqRuMpYux2YF7OpanuMusjXtGlTIiIiLB43Go1lo5DHjh0jJSWF/fv3lz0WFBRUbhTy2rmRN1qkpT5cP6dGsghdVZo0aVJ2Xe358yEavobw+7ehkZ/MOtZYbz0t9corr9CjRw+GDh1atky8EKJxy83KJNnoB2o1Pqqrv6CLDAZc8jIwqD0wOVn515PLNX8x9vDlswN5PPXnn3Tq1Mm6/TQwSqWStm3b0rZtW3r06FGhELtw4UJZ0Xj27Fm+/vprEhISOHv2LCqVqtJVWq+9y6Y+KGqAbwCFEKIqUijWsdLFbBqzn376iY4dO5KRkWHvKEIIB7AlXQd+EeBWfjuHM2k5tPDxRHXlIgqTEaOzK3rPJhjU7hzJqeV8KbUTFBdDkc780bIL9723jhMr/l278zZyISEhhISEMHDgQKD8CFF6enq5eZHbtm1j2bJlnD17loKCggrFY+nnoaGhdnxFlhmNJvR6A87OtRzZFg3f3tl0eEDPq6eWMUYFoGX7vT4M2T6CJUkbmFsy0H5kenO6N9uMaVHXSk60mUebvE7T+J28XOVU6mxOfziDqe8eJ0MBxb5RTF+xgvldG9nEWmF1UijWscY+ogjm21bee+89Jk6cyJo1a+wdRwhhR5kZ6RjcQ8BFDUXlR2nSNFo2n0girIk3Pm4uuDo5kZ2czlnc2e5d83kf7TT5uBjNcxj/1OohN/vqQbUHJ9N8iIuLIyoqqlavSVgWEBBAQECAxbtJsrOzOXPmDElJSZw5c4aDBw+ydu1azpw5w+XLl8tt89GmTRvatm1b9piTk32KtfxCLb5esmWEqEK3cQwr/iefnYIxtwDaHXx9rA/jbjnC+zt1zB2lAo6yd68zdyyvrEisob3PM+o9D/69O57xgZC3/j46TljArfGLGWadHkQjJYViHZMRRbPx48ezfft2Vq1axdSpU+0dRwhhJ3/lGcC5ZCXkIj06vRHVNdti5Bfp+TMlE6PSiSK1BzqVOy7FeXi4atCoa/Ym/ZJKRUBxER56AxRbWPTGoynLth9ghRSKNufp6UlUVBQ9evSocEyv15fb5uOvv/4iNja27LGWLVtaXKXVx8enyjmKtaEp0EmhKKqm7sN9vc/Tb38S3BIGe9fzfZup7LjvGyI37KRgVAzu5/axUTOYmb2A5B28O/MZPjivw1MLTmNf5/NXY4gEIIXjc4YRFZ8C+BI+fwVfTmiP+3VdGoLH8eyKVowPNH/tdWsfOmQeIEMHqBDipkmhWMdkRPGqlStX0rJlS6Kjo2nRooW94wgh7CAhVwuhV+enHcvOp6e/N0alE4da3UJ4Xiaemlz+aNEalCW/oow3t/qkxtkFjbMLYIJkC3+wa9qCj/ZsZPk8k2zj40CcnZ1p37497du3t7jYSekoZOltrb/99ltZEenp6WnxdtbWrVvj7+9fq1xaXREFuiLcVa61Ok99ka/R2DtCPaWm17h+8M1+rswII239PpLHvkz74RqGLPyOWF0MI/du5n99p7NRlcI3f5vJe+O3cXZyGJDIN3ffQd+PfiVzBqBJZvet67i8tiuqcx8ydsBMFt66k9fble/RKWIQk8vWo0ph+5PL2Pbgx3wnRaKoJSkU65iXlxdJSUn2juEwtm7dSkxMDH/88Ye9owghbCw3Jxs8A8s/ePkKOl9PDL5+4KIisUkwNAku30ZZy19VRUYwVnIOVTNOnz5N+/bta9eHsJmwsDDCwsIYPHhwucfT09PLrdJ69uxZNm/eXPZ5cXExrVu3plWrVmW3spYWki1btqxW3xlZubgH1a7grC/0sj3ITXO6cywj5+/kV117ju/0Z95TgRA8ggn+S1h+TEezzUdoOnYg7tqf+Wl7KtqLo4l6x/xcpdaJrKPx5i88+vCvR7uaRxAjpjHzlnncvT+H19tVMvdQe5RvJo1nkstzHH1tQIWRRyFqSgrFOia3npbXqVMnHnnkEebNm8c777xj7zhCCBsqLCwArrt1r0jPscQUWvepowVMjCa4nA8ulYwCuXiRnJwshWIDERgYSGBgIH379q1wLCcnh1OnTpGQkMC5c+fYt28fq1ev5syZM6SlpZUbhWzVqhX5Fu4GKirSk5mTTxMfT1u8HFFfBd/JqNB32fpdGEc9h/NBKEA4I8Z588SGtfxwrAv/escHKKRQ0YH7v9/P26X/BGankKkOAjYDaryuOa2byQTA3odc6fdFyRzvKVswrYqBc2uYOXoBP9/1MadeHYDjLQkl6iOLhWJV+4BUd58Qa7cD855O9Smfu7s7OTk55R5zpHy26Pf6do899hgjR47kxx9/JCYmxuHy3Yjku/l2IPlq0w6qn89kMlb7nLaUqwcUFhYiydNyVqOGJiZQWvEW0CIDpGjACCgU5mKxuKh8G1c3Dl1I5/aS0RN7f3+rGsWRfJWrKp+HhwddunShS5cuFfZNKyoq4syZMyQkJJCQkMCff/5JRsYVi+fJyslHrXZtNLeg6vX6sutqz+9v/RLOiOEuvP/qWo4N/5TuJY82H34nEdMW873/VL5tBtCX+/o8wr2LdzF/8QD8tUdZOiSaOTMOYZoBaPbx/s4c5o7ygeQNfPpXH14c6EPfyUWYVl/TXfIGZkW/zh9vx/LXqDCbv1praQi/f6uzJ2N9IiOKdczDwwON3OdfwQ8//IBaraagoAClUln1E4QQVlFcpAOFApfKRtjqUILe1fLIXqsuYHAxj/z5qMCrltmMJsjRmT+urZmdXSwWivvOpfJ47XoU9ZyrqysdO3akY8eOgPkN3+Qp0yttn5qeRYvAJrg2sDeFpbKyc+wdod5rPqgP+oU/EPPRNSubdhvOiLTFvPrAsJLFasK5Z/V6Xpg1h9sjdYCaJsM/5uSMMOAEeATTfv3DRK+EomyIWLqOBRaGChPe/hcrzlxCNb496pLHDOrhvHX+6nYcQtwMi4Vidathe7RTKpX1Kp+fnx/5+fkWn+sI+WzVr6V2W7du5e6772bbtm0Omc8SyVe7dpKvdu2qm0+hqPyPL1lZmfy8/Qf8AwJp0TyM4Bah+PraaPNzoxGcLayukHoBmoWa5xKmF0KWFvzUNS8YKysQS6lUoC8y76dYSu0Oxpxyi6UAFb6ujDXbKZVKu/Rb3XaNLd+NFjgyGk1cSs1s0MViKWdnZ4f4+ah3+i7lj6Kl1z04iEWXi1l07UPBw1m4cTgLK5xgOMsyh1erq1ZvncX01k0ndRgN4fdvQ9MAfzIdi8xRrNyQIUOIjY3lzTff5Mknn7R3HCEaBQ9PTwKDWpCWlkx6Wgpxcb+hVrvRvEUYzVuEEBTUss5GGxUKBRgs3Lqjv26UT2+6WjCWFotuzubbUl1Lbl01msy3lhpNoDOA3giaYssFYiknJ/D2BU0+aAvNj+m0mGTFU3ETGnKxKAvZCCFACsU6J9tj3Ngbb7xBVFQU0dHRdO1qpY1nhRCV8vDwYtCdd2EwGEhLvcylS+dJST5Pwtl4Es7Go1Ao6my00UtpJKO0KAwIMd9ymnwW/IItP0Fvgiyd+fPS/1qDu8fVQrFYS5tmvtY7t2hUSovFpn7eeHu42TuO1WTl5No7ghDCAUihWMdkRLFqW7dupWvXrqSkpNg7ihCNhpOTE8HNQwhuHgL0Iz8vl8uXk7h86QKpaZfLjTYGNw8hPLwtQcHV20KgMq1cikksLCkUm7c2zxkMiaz9i6mpa0cQi7UMbRNu+wyiwTAaTaRn5KDVFuHfxAvlDW79ri+ysrPtHUEI4QCkUKxjMqJYtcDAQN58800mT57MG2+8Ye84QtR7N3PbmKeXN+3ad6Fd+y4VRhvPJZwmLzen1oWiq6sKtCVfqO24w5dWCyjAywsURpo0sdEcTdGg5WkK0RRq6/3oYqFWS36+LMInhID6/2cvBycjitUzadIkTCYT33zzjb2jCFHv9endkx2bvuLYoT2kplyu8fNLRxt73NaPu0dNZOSoiXToGFXrXJ7ePqBJN3+RmVzr8900JyX4+oGrikDXTNq2bWu/LKJBKR1dvJSaiV5vsHecm5KQeN7eEYQQDkJGFG2gtFj09JQNem/k888/JyAggPHjx9OsWTN7xxGi3np87myuXLnCsWPH2P/bQY7sjcU/KJRmwaGERbSp8fk8vbzx9KrGGuslm0FXxsXVFVROoM0HXUGNc1hN6WI9eRmMCG2Kt7esHy+sS6srIulyOn4+nvh6u9eb21GzsnNISU2zdwwhhIOoH/9y1XNy+2n1rVmzhpiYGHvHEKLeCw4OZtiwYSx48XneW/I2Y0YMwlmfxYYvlrNnxybiTxynsNC6xZrphkuOmvX3NIEms/wWFbaUcR6ST5s/v3KRKbfXfqRUiMpk5eSTdCmdzBzHv7NIrzdw+myCvWPcnOSVjHZSoFaryz7cw6Po8/ourlhqf+QpoqLm88tNdablwKJRTNpd82fufcgPxRunzF98ex/uimsz++J96zCmbk2q9vny1t+H/9hPy73GnE1PcXfXSCIjI2kz9nV+qGRLTGu30+5bzORe7YmMDKd17yksPmXFBciE3VgcUSyu4hd4Vcfrqh2A0Wisd/k8PT3JysrC39/fIfPVdb81ydexY0fGjx/Pk08+yaJFiyy2ketXOcl38+2g4eZTq9X07NmTnj17wj/g+PHjHDx4iF1bvsZV7UlAUAgtw1rh18S/2lluVlBgM/jjAmjssKF3YQ5kXoKQLgD0NPxF9+73lpvTae/vb1XzSyVf5aydz1TFCHl1GY0msnLyydMU4ufj6ZDzF/PyNZw4ddri3ES9Xl92Xe35/a2SWwzPXd7CcyU3CJhOLuP+Ox4m+tZTHIm+bv/Wjs/y3Xdwc/cuZfPXT0c5eHst8wKFvV/j0L6n6Q6AltT1M+gz4XHePb+BuTe60UF7ktgX5jJvxW4y+t599fHkNcyYdZxe247xY3sTfz55B50fjyJ9VQzl/nW3drusDcwa/yk5Xxwgvr8PV1aOJGDWcobvmEtNlitrCL9/G9peizKiaAMyT7Fm/vWvf3HkyBF+/vlne0cRokG65ZZbmDx5Eu+/t5jHH/sbnds2J/7oL2z+bjUH9+0i+dKFOuvbycmJLgGeoLVBoajNB4P+6ueXTkBgK1B7woXjPH13f1Qq1Y3PIYSV6PUG0jNySLqcTq6m0N5xyqRfyeDIsd8b3AI2ig4TGd81laPxKbB3Nq17j2FyrzCadHiUH4+9ypgxr3OYfTzbpivjjpc+K5vt97ZE8VkqZO9jxfgBREVF0S0ynNa9H2VZElz88G+8+kc6aTMGMmm3Dkhk25xoukVGERUVSZeJlY+63ZiawHETiVGeZF88cHIRPXzG8HZRxZb56xfzvtM/+HbxqHKPG37+kq+6T+XR9ipATae/T2XoT2vZet3gntXbbVrJp53/ySf9fQDwn/Y5ScsmEHozl0E4FIsjitWthu3RTqlU1rt8Xl5eaLXaCo87Sj5b9FvddqX5tm3bhouLCwZD5YsByPWrSPLVrl1jzBcZab6laMKE8aSlpREXF8fefQf47detBASG0DwkgrCINiiV1vu7Yufm/vx+5jAYh4MVz1uONh/Ox5k/d/MxjyYqnMA7EEwmehScYNzwyZU+3dm5elP4rdlOqVTapd/qtmts+RTXbqNiRaUFY1ZOPl4ebjadw5iVmUl+fh5arZZL2YX8mW/AOy0BVyU4O7vgolbj4VF+PQVnZ+cK18te/x/UROHRVXx2PIyYV4NA/T+/WQAAIABJREFUD25HUwj+/TSZ7VRw5CmeA6APj03V02LVLgoWD8A9azMfHejBkpWBXPlmOktb/JudXw3AHy17H2pNvxWzeHTRf5j/xW289OpOPu8Pl96exJji5zgZH0MoWi69PZSWsyJJXzOamt2jkc35lavY4nor/9ce8Pk7m45Nw9O1YkvPBz7ie4BvV5d7PCclGYKCrvYbHEyLvGQu5FBu+NTa7VITEyAohdXjB/DZ8VQKIgYyb8m7zKjR62849UdDIovZ2IDMUaw5pVLJjz/+yIgRI9i0aZO94wjRKDRr1ozo6Giio6MpKCjg+PHj/LpnH+u/WE7TZi0IahlOaHjrCm8ka6pAo6GbsoAjhzZCz7FWSn8dtSdE9IALv5uLRABnZ/MI47EfeeXRe+umXyGqSa83kJWTT06exlwwenng7Oxk9X5SU1I4mZxO3OUM/nAJgCbB3OYXhnMLdzzcPCkqzKdAW0BBQT5pWem4pCUQpCyihXM9W7W1cAf/DvXlLQDUeAdF0uXldazuqYK9oOswiLvbVbyDoPkDjzBk4H/Z8NoAxn65kq8G/4tV3uA+7Qd2Hd3Cz8uXcP5kHDsP5kNANhB4zbNT2Ln+V0yXnmZU1NMlj2kJcNvPSUZzRxWR3fa/yGDfV0u+UtM0ciBT1i1nug+AL83Ca3gJKnlcr67bdtosLcrNOyjc+j1Huqo4v3Iy/UY/Q8SxxQyVmzbqNSkUbUAKxZszfPhwYmNjWbJkCY8//ri94wjRqLi7u9O7d2+6dzfPnjl16hT7fzvIr9u/A4ULzYJCCY1oTVP/qmf55OXmoMnNRavTYtQXE9KyJQ+NHsEDTi7862wchNbRgjIualB5gL7kPqliHRz8jkXDbiG6b4+66VOIGjIaTeTkFZCTV4Ba5YrJWP6+vkKtFq22+guD5Odr0Ov1ZGVmsi8pmaOekRAcBb0jwMMDXJSc9VExzVdNYbERvdFEvt78X02xEW1hAZrkcxy6mIhJc5CLFy/SpUsXa79s63MbxAvnr85RvJ7RzReLu7dGPMDMLrfx7NZjFK5JIuadGNyBs6/0oO+PXfjHrNF0mziQAa6H+LHCLCIt4Ib7G7uIG+9T8lA2l7VqAr8YiftDP5qLrchn2HzyVa6PVth7Ib+UzVGsvaCgYPg1hStgHgVMTuZis2CGqOq4XUQwxj5T+VtX8zUInTaVwU+9zq4cGCqL2NdrUijagMxRvHmLFy+mU6dOREdH07FjR3vHEaLR6ty5M507d2b6I1NJSkri4MHD7Nm3jyuZ2fgHtiQ0vA0qNxUGg4G83Bzyc3Mo1ukwGvR0aB/J6GFD6HVbD0JDQ3F3dy+7hafo4y94Ni4OWlupWNTmg9FgHkXMy4Cia+ZdpZxjfMdA5k8db52+hLAyra6IjIwr/LL715s+h8Fg4NDlTBJ8IqDPdAhpDm7l3+4FOSvxcTV/XC+90JUkj854t+pEcZdePLb5Vwb9nsSHj0+z6i3ojiOIMdN68/SimSzVPsL7PQES2b/pBGmPbueFyT6gPcrSx07CbeZnmNwKMWTrgHAGjYggY/Fy9ox+mn6qbA4/2YMeV94mfc0PFDxYvqe9NcqVTVqiFs/wIMsFrgVOd45l/PxVvHl6DK+3M/Hnh6v4350vs0Z13fms3W7EAwx5Yw3/TZrAv8IgZ9OX7PfvwxIpEus9KRRtQEYUayc2NpZevXpx8eJFe0cRQgBhYWGEhYVx773jyMjI4PCRo+zZu5+Tp85w+fIFbuncmf4T7qH7rVG0adOm3Fyv61eNmz/9QfSrN/DCsT+heaebD2XQw7mD5iLRkrQkRnVozrpXnrj5PoRwcAWafDam6SBmJrSOAGfLhd0JvZGd+UX083DF5bqpmAFuzgS4OZOpNXDZpRnn+ozkk3OJ/DZnId8/PZ2QkBAbvBLbch7xd0bPjmbx0+tKbhcN5+7/m87gf/bilg+DUKt96dH5dkhM5AoD6D2iA5rJYbR67xgJT/zExtSZzGm3Co0b6Dv8jR+X13R+ogUnP2RE7wNMTP+OJyzMU7QoeBrvLYnjwZHtCddBcYdH+X5tyQqlJz9kRO/dTLqwhbnWbhfxd75ZlsiDo8L4WOdGsW9v5q5bwLDaXgNhdwqtrshkMBgoKNCQm5NLq1YRVT6p9Bd9VZM6rd0OICUlhaCgoHqV74UXXsDFxYXnn3/eIfPVdb/WyLdy5Ur27NnDJ5984pD56rJfySf56ku+M2fO0KZNm5s63383bmLqrvMQ0rvKfixKPg15lWwUfuFP5t/Vl3/eO4yAgIAbnqZ0G4CqFtewdjuA9PR0yedA+R54aAr3Tvp7lf1aW0ZGOr/s3lrj56XnafhfsQ9MnAOu1Zvr6KSEud4q/K4pKLP0Rn4rLGaPrmRf1LwiSC+ZrXYmll+mxXB79643PG9dfH8VCoXVtiwRjqc639/68PvXxcWFhIRzePt44+7ugZOT9ecd21JDvIfA4ciIYu1NmzYNjUbDunXr7B1FCFEJT8+bX+RmyugR7JrYky5nN8Cl+PIHDXrzojT5GVe/Lsi5+pF9CTQZFU965SJOZ39j09NTWPTopJvOJoSju6Ip5H+5anhwbrWLRACDEd7NNc9/TC02siVPxzvZuqtFIoCXKwSW3PzYJpo7PtrC4ZOnrRlfCOGg5NZTG/D09OTcuXP2jlHvrV27liZNmjBo0CD8/PzsHUcIYWX9b+vGb507sPrHWF7e+T3nPTqCfwgoncCoN48auqpBV8l+byoPUHtBQQGBmnim9G/Hi9NfxM3N8TY4F8JaNPl5bEuB0P4DUOamkugbwAhfd9p6uNC0ZA5ivt5EYmExG7N06K4btDEYYWd+Edu1N1jl1MMFmqohQwuRMfRY9gPn5t1DeHh43b0wIYTdWSwUr59DUtPjddUOwGg01rt87u7u5OTklD3uaPnqul9r5tu0aRPDhw/nl19+cch8ddGv5LNNO5B8tWkH1snn7OzMlDEjGNG3Bxt37WP9gU38YvSkSBkMfv7g6gZ6LZiMoC8y741YVAgGI67GZO7QJjLh9lsZM+ifZX9QKr29zWg0ln1e29dbV9dP8t1cO7B+vvpwm6NBr+f7ixq4ZQBB7ipITaJXcSadIsrfwu3prKCzlyv+Lk58mFpQ4Tw3LBJL+aggRwd6E0QMZsCij/n9radwd6+41EpdfH9Fw9cQfr81tL0WZUTRBjw8PNBoKvkLuKiR7t27M3LkSBYuXMjLL79s7zhCiDri5+fHlDEj+Nt9o7lw4QJxJ0+z/9xlCjUa4tOyyDMq8FKaaOfvjUmhZEDH1vTs0q9BLrQhRGV+uXAFmnagfeDVu2zCmnjhrMlB7+FToX2QupbzpfzUZfMVz4cM5onlq1k2r6bbqgsh6guLhWJ1q2F7tFMqlfUun5+fH/n5+RUed5R8tui3uu2qk+///u//GDx4MPv27aN///4Ol68u+q1uO8lXu3aSr3bt6ipfq1ataNWqFeMsHNfpdKSnp9OyZctq5avOohlQvcU1rN1O8tWunbXzXbtaryPKzcok2egHajU+qqs/T0UGAy55GRjUHpicrDwe4HLN0hYevnx8IIPHT52iUyfLKxZb+/8D0bA1lN9vDYksZmMDspiN9W3atIno6Gh7xxBC2FlhYaHFW9+EaOi2pOvAuxm4ld/9/ExaDgCqKxdxS0lAdeUiTlrz7aZHcnS161TtBMXFoMmH7Exo2YX73pNF5oRoqKRQtAFPT0/y8/PtHaNBUalUfPXVV4wePdreUYQQdlRQUCCFomh0MjPSMbiHgIsaisrPm0rTaNl8IomTyRlcysknIzuHpL9Osev3U3yXXVTjvtpp8umUl0OnvBxIz4TcbNAWgtEIag9OFvoQFxdnrZcmhHAgUijagIwo1o1Ro0YREhLCBx98YO8oQgg7qMkebEI0JH/lGYCSW2OL9Oj0xnLH84v0/JmSya9JV9hyOZ9dBc6k5uThoa35egmXVCo0zs7m/ootLHrj0ZRl2w/U/EUIIRye/Ha1ARlRrDvvv/8+7dq1Izo6mrZt29o7jhDChuS2U9FYJeRqIbRJ2dfHsvPp6e+NUenEoVa3EJ6Xiacmlz9atAZlyVs9441XhK2MxtkFjbMLYIJkC+9lmrbgoz0bWT7P5PDzOoUQNSMjijYgI4p1KzY2VuYrCtEIabVa2SNRNDq5OdngGVj+wctX0OmNaN29wUVFYpNg/ghpf7VIBPPnylqMDxQZwVjJ81XNOH369M2fWwjhkKRQtAFnZ2ecnJzQ6Wo5iVxYFB4ezjPPPMOsWbPsHUUIYSMGgwGj0YiTUy2X+xeiniksLKDCDWFFeo4lplDo5lE3nRpNcDkfXFwtH3fxIjk5uW76FkLYjRSKNiKjinVr5syZpKens379entHEULYQFFRESqVquqGQjQwuXpAYeEPJHlazmrU5qLOmooMcDEPjIBCYblYdHXj6MUM6/YrhLA7KRRtRArFuvftt9/y8MMPy3xQIRoBnU4nhaKwm+IiHcXFNV9B1BoS9K6Wi7VWXcDgYh75y7NCNqMJsrTm8+mvKT6dLewl5+rGnnMpte9TCOFQLN5snpJy4x92o9G8upZSeeM609rtADQaTb3Mp1arSUxMxM3NzSHz1WW/tsy3Zs0aBg0axA8//OCQ+eqyneSTfI0pX0ZGBk2bNi1bPKM6+QoKCkhPT7dJvpq2k3yOl8+gr3zxl6ysTH7e/gP+AYG0aB5GcItQfH2bVNreqoxGcLbwR5LUC9As1DyXML3QXOT5qcGrkttFKz2/CXJ05g+jheMqFeiLzPspllK7U1iYVnb96+L7Kxq+hvD7rXnz5lWeqz6xWCgGBQXd8EnFJf84uLhY+KtSHbYD8/9E9TGfn58fKpWKoKAgh8xXl/3aMt/dd9/NoUOHWLFiBc8++6zD5avLdpJP8jWWfAaDAYVCQWBgYI22yEhPTycgIOCGbap7Pmu3k3yOl8/pBm08PD0JDGpBWloy6WkpxMX9hlrtRvMWYTRvEUJQUEtcKpvPV0sKhQIMxRUP6K8bRdSbrhaMpcWimzMoFeBacuuq0WS+tdRoAp0B9EbQFFsuEEs5OYG3L2jyzfspAui0qHzUZde/Lr6/ouFrKL/fGhL5ybQR2SLDdhYsWEDfvn2588476d27t73jCCGsTOYnCnvz8PBi0J13YTAYSEu9zKVL50lJPk/C2XgSzsajUCjqbLTRS2kko7QoDAgx33KafBb8gi0/QW+CrJLF9LKsuKieu8fVQrFYS5tmvtY7txDCIUihaCMyR9G2YmNjCQ4OJjMz095RhBBWJvMThaNwcnIiuHkIwc1DgH7k5+Vy+XISly9dIDXtcrnRxuDmIYSHtyUouGWt+mzlUkxiYUmh2Ly1ec5gSGTtX0xNXbtnYrGWoW3CbZ9BCFGnpFC0ERlRtC1PT08++eQTJkyYICuhCtHAFBUV4eXlZe8YooHT32COYmU8vbxp174L7dp3qTDaeC7hNHm5ObUuFF1dVaAt+ULtXqtz1YpWCyjAywsURpo0qfs5mopri1MhRJ2TQtFGZETR9saOHcu2bdv46KOPmDFjhr3jCCGswGAwAMj+iaLO9enTkx2bvqJJsxYEtYwgMKhmi1RYGm3Mzq79XS6e3j6QnA5NQiAz2byAjT04KcHXD5ycCHTNpG3btnXaXVpaWqOaI9tQ86WmphIQEFBhAZmqFooR9iGFoo3IiKJ9fPjhh7Rr147o6GjCw8PtHUcIUUtFRUW4utbNIiFCXOufc+eQnp7OsWPH2P/bQY7sjcU/KJRmwaGERbSp8fk8vbzx9PKudS4XV1dQOYE2H3QFtT5fLYKY/5uXwYjQpnh71/61iYZPpVKh0+lwc3OzdxRRDVIo2oiMKNpPbGws0dHRnD592t5RhBC1JPMThS0FBwcTHBzMsGHDyMvL4/jx4xw4eIgNXyynWfNQmga2JCyiDW5utr0FtL+nid2azPJbVNhSxnko0kJwO7hykSn3Rtknh6h3XF1dKSoqkkKxnpBC0Ua8vLxkWN1O2rZty5w5c5g9ezZLly61dxwhRC3I/ERhL15eXvTr149+/foBcOzYMQ4cPMgvsd/iovLAP7AlLcNa4dfEv86zBAU2gz8ugCanzvuqoDAHMi9BSBcAehnP0KvX/bbPIeollUold9jVIxYLxar2AanuPiHWbgfmzSzrYz43Nzdyc3MpLi52yHx12a8j5Js5cybjxo1jw4YN3H333Q6XzxrtQPLVph1Ivtq0g7rPZzAYKC4uxmQylc19qWm+qhYosff1k3w31w5sn69Tp060a9eOhx58kPPnzxN37Dj7f/uV7Nx8/ANDaBnaiuAWIdXqr6acnJzoEuDJ71obFIrafHBRg5Oz+fNLJyCwFag94cJxnrrrDpycnMpd+4bw/a1JO5B8NWlXVFSETqcrN0+xofx+q86ejPWJjCjaiMxRtL/169fj5eXFlStX5NY1UadeeuklXnrpJXvHEA7o+eef54UXXrB3DGFlrVu3pnXr1twzbixpaWll8xr3/7KFZkEhNA9pRVhEmwoLeNRG5+b+/H7mMBiHgxXPW442H87HmT938zGPJiqcwDsQTCa6a/5k1NAH6qZv0WCp1WqZp1hPWCwUq1sN26OdUqmsl/l8fX3RaDTljjlSvrrut7rt6jpfbGwsd911F7t27XLIfLVtJ/lq185a+ZRKJS+++CILFiyo1rlE47Bw4UJMJlOlKwUqlcpqrV4I1Vvl0NrtJF/12jVv3pzmzZszfPhwCgoKOH78OHv3HeDrzz6gWXAoQS3DCQ1vjYeHZ7XOXZnCAg3dlIUcObQReo6t1bkqpfaEiB5w4XdzkQjg7AwGPRz7kUWP3nfDa9QQv7+VkXzVb+fu7k5RUVG536MN6f1BQyIjijYii9k4hv79+3P77bezaNEinn32WXvHEUII0YC5u7vTu3dvevfuzaSHJpKamsr+3w7y6/bvQOFCs6BQQiNa09S/WZXn0uTmkpeXg06rw6gvJiSkJZPGjOABpTP/OhsHoXW0oIyLGlQeoNeZvy7WwcHvWDTsFqL79qibPkWDJvMU6w8pFG1Ebj11HK+88gq33XYb0dHR9Oghv+SEEELYRufOnencuTPTH5lKUlISBw8eZs++fVzJzMY/sCWh4W1Qu7tjNBjIz80hLzeXoiJzYdgxsgOjhw/hth7dCQsLw93dvWykpujjL3g2Lg5aW6lY1OaD0WAeRczLgCLN1WMp5xjfMZD5U8dbpy/R6Dg5OWEymTAajVa9HVtYnxSKNiIjio4lNjaW1q1bk5lZ+82PhRBCiJoKCwsjLCyMe+8dR0ZGBoePHGXPnv38dS6RS+cT6dKpMwMm3EO3W6No06YNCoWi7LnXL0oyf/qD6Fdv4IVjf0LzTjcfyqCHcwfNRaIlaUnc0zWMdQvm3HwfQmAeVSwqKkKtVts7irgBKRRtRApFx+Ln58eyZcu4//77+fzzz+0dRwghRCPWtGlToocO4c5BA8nPz8fX17fG53j+obGEeG1i6q79ENL75oKkJVReJF74k2dG9OalGQ/e3LmFuIaTkxPFxcVSKDo4Ge+1Ebn11PFMmDABd3d3Pv30U3tHEUIIIQDz+4WbNWX0CHZN7EmXsxvgUnz5gwa9eVGa/IyrXxfkXP3IvgSajIonvXIRp7O/senpKVIkCqtxdnaucrsOYX8yomgjbm5uFBUVYTBU8pc6YRcrV66kZcuWDBkyhPDwcHvHEUIIIWql/23d+K1zB1b/GMvLO7/nvEdH8A8BpRMY9ZB8GlzVoNNYPoHKA9ReUFBAoCaeKf3b8eL0F3Fzc5M39sJqnJ2d5T1xPSCFog2Vjiq6u7vbO4q4xk8//cSIESM4ceKEvaMIIYQQtebm5sbf7hvNmIF92bBjD1/v28xukydFBIGfP7i6gV4LJiPoi8x7IxYVgsGIKyn01yVx/4BujLvzSfz8/Oz9ckQDJCOK9YPFQrG4uPiGT6rqeF21AzAajfU2n5eXF5mZmdXeh0Wun236bdu2LVOmTGHu3Lm89dZbDpfP0a+f5LN8HlnJTVhiNBorfXN0o2Ol7P3zIflurh3YJ5+npyeTRsYwbdzdXLhwgbiTp9mXcIlCjYb4tCw0RgUeShORzfxAqWRgpzZ069CPkJCQsnNcm7mxXT/JV7ft9Ho9Op0OpVLZYN4fNLS9FmVE0YZKRxQDAwPtHUVc57HHHmPcuHFs3bqVmJgYe8cRQgghrCokJISQkBBGVnI8IyODpk2b2jSTaNxKRxVdXV3tHUVUwmKhWN1q2B7tlEplvc3n5eWFVqstO+5o+eqy3+q2s2e+LVu2lK3CVdlokFy/2rVrLPlkNFFURqlUlu19V5Nj17NHO8lXu3aSr3btJF/t2jliPjc3NxQKBS4uLg3q/UFDIu9mbEhWPnV8sbGxREdH2zuGaGyyVjLacxgv59q643281FqBQq1GXfLhHj6QmE+PUWCtLpJXMtpJUXZ+cx9R9Hl9F1es1EXm27ejeHTXDVps5tEmA1lw3kodCiGEqDUnJyeZp+jgpFC0IdlL0fENHjyYbt268eabb9o7ihA2EsodsVq0WvNHxoZoCmbP5XlrFlVuMTyXdrUPzeaZhL75MNGxOqucvskj33D2xV43aDGIhUfW8lioVboTQghhBbKgjeOTQtGGpFCsH9544w2++OILjh07Zu8oojHaO5vWfV7nsIWvM9++nYCxs3hw2EAGd42kzdjX+XzxTMYNG0i/9lF0/ugUlLRrMXwKDw4bYz429nV+yKl+BLVfEB18zJ/rfl7M5F7tiYyMpF3UMCZuTAIg/8uRhET+k+90gHYf87uE4f9VUrXOr+gwkfFdUzkan2J+fb3HMLlXGE06PMoXOi2nP5zMkPaRREZG0mngoyw+pQP28Wybrow7XnqWbLbf2xLFZ6lkfnIvrRf+BqTwy1PR9I3qTVSU+fr8lAqwgxe73c/75wEqO7/5urUZO4sHhw1j4MAoOg18lM9KXpJ23zJmDOhKVFQU7aIGMmbdKfOoa4X81b/OQgjRmMkWGY5PFrOxIbn1tP6IjY2lS5cupKam2juKENfQciXRjyn7dzJUtY+XWt/B5Mg9aLb0wv3kIroPX8K3M5YxCLic4seU/f9lqErL5VeG0uKZKDTLYqi4Oc8lDkT74qsGhVZLtk6Nz2tbWeMDZK1h8pR1KL45QHxPH0wnlzE6ZgJ/77CfDx/4nP9uuo0hj/fmh/zneO32j0gfH1atV1F4dBWfHQ8j5tUg0IPb0RSCfz9NZjsV/Pw3Qt5z4u3d8YwPhPwv76PH6GeIOLaYx6bqabFqFwWLB+CetZmPDvRgycpA+E/JiU+u5JnvW/PUsWWMUWn5fdFM3olL5a5r16f6eTaDKzl/f7ScTfRj2f7lDFVpOTK9Fd2Xz2LyU5d5fPI6/H46QFw7FWRtZlbPCTzTIY73uC6/EEKIapERRccnI4o2JCOK9UezZs14++23mTRpkr2jCHENNUQNZKgKIIJWQb7cOqiXufjzDaJlgZayP0UNu7+knZrm44YTtWMLuy2eswU9Y7PJzs4mS6vFeGIZoz8ZxeCvUmHvJr5qPZEFPc3Di4oOU5nb8zTLdiYBvgxe+hGPb7ufkX/cS+ySGPwri124g3+H+uLr64uvbxDtJ25E//I6Vvc0F1a6DoO4u6TIOrH+Zy6OfZzxJYtDez4wj3G5O/jsFDR/4BGGrP8vG3RQ8OVKvhr8KH/zvqafiEHc7/kNk3sPY+L85Rzt928+iCm/yvSNzm++vsPKrlt4h1aQnQ1H17MtLZ4N43sRFRVF1KD57C7OZld8ToX8Qgghqs/JyUlGFR2YFIo2JCOK9ctDDz0EwOrVq+2cRDREyTuWseZYyX2KWvN/vEqOKQuvaajVUu7PS2p19TrQXvN5YTYAqjWjcFcoUCgUKDrMZ4uFpyk6TGRufyeO74iv5MSaq59mn+RsUTMCso6yp2Twfe9DrubzKxQopm41P+g2iBfOm4vR7OwUzsfv5KeZXcsKS6Obr4WRTgsvJOIBZnb5Hwu3HuPLNUnEPHrdCKm6D7MPXeDkh49zt/c5fpjTE49//lbFwjza8l9WcnmLgqfySVwccSUfx/fvZ994n2rkF0IIURkZVXRsUijakIwo1j+ff/45TzzxBGlpafaOIhqYwp/e4oHXtnAeyNu3gzj/DrT3BvyC8UmO49dcgBT2rNlBeo3ProUt/y2Zl5jNnmXriRs0hl4Tv6fAZMJkMmE6+SrDLDzTcG4DH+3Khz6R0HcE439fw4ID5pEz08lVvLerA2N7h4H2KEvve40fXj7AiRcMLHn4dfbooO/qIvP5TSZMq2q+J2nHcXfScsNyviopPPPWr+RL1z5Mbg8QxJhpvTEsmsnS/Ef4v57XPXnvU9zSeyEnug3jwfnv8t85XSAxsVyheOPzV+LWEQxOX8NjpU869yH3dBnGM8dv8BwhhBBVkkLRsVmco1hcXHzDJ1V1vK7aARiNxnqbz83NjdzcXIfNV1f91vd8mzZtYujQoRw6dMgh811L8t18O7BePqPRWOVeiq2eeJ+nJ8yiq3oCivDe3PnRW+bCrcM0lowfz4xbIlmmDuLWsbfTy1Ttl1BCjatvMp9GR/FijpaCPk/y6/sDKhn1Os+BaDVq1KjVUOQbTqeJn3NyciAwkRVfJzJ9di8ic8CoDqfX++tYcYuWP5+cxJyQN0maHIY//+Hj9Xdw+4KBaF7tVbvRtTvfZPucOUztH8kLCnAKGsS8jUsYU3Jnp/OIvzN6djSLn17HHdc/t+88Pug/mbldI3lSrabYN4p3VozBn5+rdf7MyjL5jWX5j4nMeLw/kS8ogCA6v7WO124B9tbs5RmNxkrfFN3oWCl7/3xIvptrB5KvNu1A8tWmHThuPpPJRGFhYYN5f9DQ9lpUaHVFJoPBQEGBhtycXFq1iqhp8BBgAAAgAElEQVT2N6qqi2HtdgDp6ekEBATUy3zr1q3jxx9/ZOXKlQ6Zr676bQj53n77ba5cucK8efMcMl8pR71+jS3fSy+9hFKpZMGCBVX2WRcy376dpmdewbRsgF36F5YtXLgQg8HACy+8YPF4RkYGTZs2veE57PnzIfkkn+STfNZup9PpyM/Px2AwNIj3B+7u7iQknMPbxxt3dw+cnJyqPLcjsziiWN1q2B7tlEplvc3n6+uLRqMpO+5o+eqy3+q2c9R8zzzzDEOGDGHPnj3cd999DpevlKNev1KNJV9Vo4mi8VIqlTg7W15w/EbHrmePdpKvdu0kX+3aSb7atXPUfAqFAo1G06DeHzQksj2GDcliNvVbbGwsLi4u1S4UhbCXJk/8So3vVhVCCCFsrHTVU4VCYe8owgL5s7cNyWI29ZtSqWT16tUMHz7c3lGEEEIIIRoEpVKJ0Wi0dwxhgRSKNiQjivXfoEGD6NChA4sXL7Z3FCGEEEKIek+hUEih6KCkULQhGVFsGN555x0+/vhjTpw4Ye8oQgghhBD1mlKpxGSSCROOSApFG5IRxYYjNjaW6Ohoe8cQ9UXySkY7KVCr1WUf7uFR9Hl9F1eqeGrm2z1QPLrLwpENTHUbxmtpwJGniIqazy81yXTuHe7wnsgHN5Eve8er3NsrksjISCIjBzJm3amyvQpzNj3F3V3Nx9qMfb1kL8fKZHNkehcU7yVdfUh7kh/+1r/k3JWc49wqJvhHMa6SfQwry1fwwVD8rnmNarUahXogz1W6TWrl+bpFRhEZGUXff24kHuDIIu7wVpU/t0JN0690N7oAQgjR6CkUCikUHZQUijYkI4oNR4sWLXjppZeYNm2avaOI+sIthufStGi15g/N5pmEvvkw0bFWKCQ6Pst33z1Nd1vk025m/qR1aJb+Rnx8PH9uHo/psYd5/jyQvIYZs47T66tjxMfHsbHNN4x6fKvFYtNwbgcfjezJ4NV/lXv80geTGHXlEb6Ljyc+fj/rWq5m1ONbywpRtEdZOulFdle2HdgN8rn/YxtZ2tLXmMhPd4fAv9/l2WY1z/dlfBzx8WuYdnA6E77KgW7P8kuuruz6nXnnDoKHvUvseFU1Lr4QQjRecuup45JC0YYUCgVubm4UFBRU3Vg4vKlTp1JQUMC6devsHUXUQ4oOExnfNZWj8Smwdzat+7zO4dKD138dv4zJvaKIiooiytII24lFjBlT0l57ku/nxNAtMpJukZHc+ug64m6iFi2Xjx3MaxFI5G6AcMa+v5wVPX0AcIroQ/fALP5MAcPPX/JV96k82l4FqOn096kM/WktWyv0r2XfO0vYe+/nfD2p/L5e7n3/j62v3U8kAL5E9Q6HlJSSQjGbPbNn8u6MN5jqX9lfnyvPdy3NJ3/jnozHOPRUV9wrnKPyfC2eOEThmofN+bKzuaxzw8lXXf7pJ99h6usezFs+s3bFuxBCNAJy66njku0xbKx0VNHdveJbE1H/rF27liZNmhAdHY2fn5+944h6pPDoKj47HkbMq0FQ2ehYqUQ3Bu2P47PAbA7PvoMej0ehWWW56aUPJjH6wmxOHXuYdqpEvr5vFA9vHMax8T43n49AFhz+jed8AXUHoseUttJy8cOneN9rGt/2hJxfkiEoCP/Sw8HBtMhL5kIOUG7UTs3tSzdyO3D4UPk3B359xlJ2U3fWDp577ThtXvkYf+DKyklMcn6JA5O9WbawkuA3yFdGu5l/vXiBYetnVVLIVZ4PQK2G3xfdwf3vHuREt9f5dcC1o4Yp/PTkK/zvib1sC6skoxBCiDJy66njslgopqSkWHq4TOnwcFWbSlu7HYBGo6nX+dzd3UlKSkKpVDpkvrrot6HnW7NmDYMGDWLLli0Oma+u+5V8FeXn5+Pp6Vn+wcId/DvUl7cAUOMdFEmXl9exuqcK9lYRbMwspgYC+NJ96nCiHtjCbvpbaJjN/k1/0mbu/bRTAYRz39fHqdbOnzfKB3gHhVfo6/dF47nnqza8vvVp7gAuVXJqvbqSAzdgOLeGv49ewNbp33NiVCAcXcS9n3VmxdYY/NlXjTNUzFdK88XbLO/yT5J63vxtoV2e/YU/n01h70O3029WJOmrYswF8smVvPBHNP/5or3F5xUUFJCenl7jY6Xs+fMh+SSf5JN8ddEuLy+vwbw/aN68eZXnqk8sFopBQUE3fFJxcTEALi4uNm0H5iK2Pufz8fFBpVIREBDgkPnqot+Gni8oKIjDhw+zdOlSXnnlFYfLV9f9Sr6KKhSJAG6DeOH8Fp7ztvwcZeE1X2i1lJvNXO1CS1vxoexE/tAmsaHfQF5IAFDRdF0qV26rWb7y3Zzkm0mjmKV/jB93zaV3yWBlUFAw/JrCFTAXTcnJXGwWzJAa1mM5m+Zw16MHCHkvlsTR5mG5wytXEheXz6SwVYCW3NQcdNHhdPvsFEeir+ugknxmiXy3Mo6mc78ltGaxAEjesYbfm48jur0KCKLvtEEEP7GTk8RwB5DwyZccGf4BD1QygOvu7k5AQIDFY+np6ZUeK6XXm4efnZ1vfEOQtdtJPskn+SRfXbVzc3NrUO8PGhKZo2hjsqBNw/Tss8/y66+/snv3bntHEfWRXzA+yXH8mguQwp41Oyj3d9+dO9mjA9CS8OUO4gaNsTieCEH0ubMTZ1atNa/ESQrfPHQHXb4P5/mzJkwmEyaTlis1vA0VtOSmJJKpBUjk27uimdPyY45sKF+EOd05lvGHV/HmaR2g5c8PV/G/O+8nRgWQTVpiClXN0Nb9PIdB885zT+wu1oy+eu9m96VnyM5OISUlhZSUzcxvdQujYxNLisTq5QMgax8/HO3MrIHXH6hevoK9LxPzzNXru33lTpJ7Dyu5hTWRn/en0mZ4bwvzHoUQQlgit546LikUbUy2yGi4ZMsMcdM6TGPJ+EusuCWSyMj7ed//dnpd8zvTT72Pt0ePYdywYTyS8Ri/LhlQaSHS/InP+d7/Ex6IjCQqahjvtH2fkzNqO1luHwu696LvAWDT88z5+SKZy2JoV7INhKtvOP13A8HTeG9JOw6PbE94eCTRf9zL90tKb8n8kBFdp/Cf3Bv1k8jnT77P0cQtzO/qc3WbiUErSgqzyhzltW69GLK7inwA547yV7MO3Hr9SqfVygetn/iG7/0/YUzJ1hvPuDx3zffjHIdPtGBopKx0KoQQ1SWFouOSxWxszMvLSwrFBkqlUvH1118zbtw41q9fb+84wpEET2Nj/o22Ugni9qW7ObHUwqEnDpH5hKXnjGVV4Vjzp83eIC6u5GF1B0b+Zzcjq8oUMY9fSouiKvMN4p1LqbwDwOdcMn1eacvAce/xv3HvVTzQ4VkO5Txb4eHuSy9z9e1BONMPG5leVXb68PzZY+W+XnQ5lUXVyEe3NzicaOHxauWjius7iGWZcRaPCCGEsEy2x3BcMqJoYzKi2LCNHDmS0NBQPvzwQ3tHEUIIIYRweLI9huOSQtHGZI5iw7dkyRI++OAD/vrrr6obCyGEEEI0YnLrqeOSQtHGpFBsHH766SeZryiEEEIIUQUpFB2XFIo25unpiUajsXcMUcfCw8OZP38+M2fOtHcUIYQQQgiHJbeeOi6Li9lUtQ9IdfcJsXY7MG9mWZ/zubu7k5CQUK1zyvWzTb91lW/q1Kls3bqVdevWMW7cOIfLZ61+JZ/l81RnA1/R+BiNxrK9xWpyrJS9fz4k3821A8lXm3Yg+WrTDhw7n9FobDDvD6qzJ2N9Ique2pgsZtO4rF27liZNmhAdHW15E3YhhBBCiEZMbj11XBYLxepWw/Zop1Qq63U+X19fCgoKcHFxcch8ddVvdds1xHyxsbHcdddd7N271yHz2bJdY8lnldHEb+/D/d5vMKpK9+RT49qhN/e8toJVMRX3Rcx8+3aannkF07IBN9HZUT4fuYKCb5cz07Umz9vHS63vZ9uqJHb3P8n7HTszO8GF0sRGdRCtxs7nk+Uz6VetrQWzOTL9Drrf8iOmOWFljx1/ZzKPrjhNhkKN3/DXWbc4hlALz7Vuu0S2zZnB07HnKQDoM5+1yx8mqpZbJCqVSpydLf+N9kbHrmePdpKvdu0kX+3aSb7atXP0fNBw6o+GRO6NsjEZUWx8+vTpQ0xMDAsWLLB3FFHPFPZ+jT1aLVqtFq02hb+eb8auCY/zroVN4Zs88g1nX+x1cx1pE/np5xRq/y+TGwHfl+bVUpS4gX/8NY/bFx6r8pmGczv4aGRPBq++brXgTbMZ+3UnFhyPJz5uDf/4fTphn6VWPIG12337JCMODmbpsXji43fycvo8bl2RVM3rIIQQorpMJpNM13BQ8l2xMVn1tHF68cUX2bZtW6WjikJUTU3guInEKE+yLx4y3+5B5PD7GdI+EMXEdZxYeR+tF/6G5pMhKMau40rp004uol/kP/lOB6nr53BXryiioqLoGB5Fn9d/4wop/Pi3p9hWsJMP+z/Kxzmg3beMGQO6EhUVRbuogYxZd8o8qlZTvrfy4NgOcDKeK2jZfq8KxbOWikYt+95Zwt57P+frSU3LHTmyfjsJE2cxVAWoO/DQ1K6wZsvV11dH7XBTo9amoNUCWi1arTv4qm/mKgghhLgBk8mEQqGwdwxhgRSKNiYjio3X1q1biYmJsXcMUW9lc37lKra43sqQ9uZHTiUG8/TxVExrJhBUMr/DY9w/ePjQKj5OM7dJ+ORL9o6dwhjTDpa8lsagr+KIi4vjxI7JeL38Kl/kBnH3f95gqPtA/r57GdONm3l88jr8/nOAuLg4Tu94mqDnJvDM8Zon1ifv4P21p6BPFP6oGfD+KS491dVCSzW3L93Ifx/uhZ/62nkq2Zw7lwXhQVcfCg4mIDuF8mN71m4HjHiTNa2/ZnhYEK0DI5lk+Be/TgisycsXQghRDVIoOi5ZzMbGvLy8pFBspDw9Pfn000+55557+Pbbb+0dR9QDbvtfZLDvqyVfqWkaOZAp65Yz3QcyAQaOMY+MXctvOHNi/kH3tUk8MyOBj7/zZ97PXUENr+6O4Nct/+U/a+KJO7qDs0V+FGqBa+clHl3PtrR4nMb3YmvJQ0XF2bjE58AtPlUkLiR3lG/ZwJurbzhtxn7M0bnmytY5KJzmtbgeV1V3ZO/m22V8cC8zNM+zI3Um/UyJbJ8+lNsfj0KzbADu1c4phBCiKkaj0d4RRCVkRNHG5NbTxm3cuHEEBASwYsUKe0cR9UBh74Vsz84mOzub7OwUzu5fy4sDrinWLNZBarpNu4dWa9ZyaMcq/tt2KnNDgeQNTGk7jKd26fCIHMYjC2dxm5PlfouCp/JJnHnkMS4ujuP797NvvA97H3JFoVCYP6ZutfBMN7y/L82bTVpiHHsXT6jFAjC+RET4QWLK1YeSk0kPCiKsTtulsHP9YXRTp5gX4VGHM/jvw2izbwuHb/alCCGEsEhGFB2XFIr/z96dhzdVpn0c/56TpFmadKW0bLI5bIKyuY4KoiI6LuAoqOOG8qo4MuIGMu4bWsdtBkdhcN8YlxkUFdwVR0VFAZ1RAUXABQqhdM2+vX+k6Zo2aZP2JOn9ua5ebZo75/yatEnvPM95TheTqadi8eLF3HXXXWzbtk3rKCJTHXYpc33PcdktH5I9e2p4Rc/vVrLCejw33n8xZ02dyJB1K1kbcNcvYGMOusOji2NO4Gj7Mi57oW6Bl60P8ftRU7j2azjsGS+hUCj88Xj7p1H7y7axo7J9txl76tEULVvMu1WA+zueefwrmDaRHoC3chs7Kt2dUFfC8OG92bv8ZTYCUMm3z73PD8MPYXi7f2ohhBBtkUYxdcnU0y6WlRWe4+X1ervlMrsiLHLKjG+++UbrKCIjDeesmTb+dM9YnjmubgTysEt5YOR5zB12CL3zwDVwNOP6/5cvtgEHjeF3R3/DzCETqfnwAxa/to2L5h7JsBsVoISR9zzPXfsnmsnN6suGcsyQzwktjHacYitOWMRrG85l9v4DKFdMWKc9yPZzw8cK/mfWUI7p9yGh+w9Oet2Ie17jhf+7hFMHzCdoMqEfM5sVi0+hR6J3gxBCiCaCwaA0iilKcXu8oUAggNPpoLqqmkGDBuLz+dq8UeT6WI1OsusA7HY7RUVFaZ2vpKSEr776iuLithdGkPsvs/M9+OCDbNq0iUWLFqVkvlS//1I532233YaqqnJKFNHELbfcQiAQ4MYbb4x6fXl5OYWFhVGvi9Dy70PyST7JJ/k6o87pdLJjxw4GDx6ckvkg/v8PLBYLP/64lZzcHCyWbHS6Vo7xSBMy9VQDMv1UAFx88cX88ssvvPrqq1pHEUIIIYTQhEw9TV1Rp57GOyVSizpVVdM+n9VqxePxpGy+zthvvHXdLd/y5cux2WxUVVVhNLa94ofcf51fl6x8cuJg0RpVVdHrox/10dZ1zWlRJ/kSq5N8idVJvsTqUjmfTqdDp9NlzP8HmUT+m9GArHwqGnvrrbeYPHmy1jGEEEIIIbpcMBiUN1hTlDwqGpBGUTR25JFHcsQRR3DHHXdoHUUIIYQQokuFQiGtI4hWSKOoATlGUTR3++2388orr7B27VqtowghhBBCdBk5RjF1yekxNCCNoojmzTffZPDgwezdu1frKEIIIYQQXUJOj5G6ZERRA9Ioimjy8/N5+OGHOeOMM7SOIoQQQgjRJUKhkByjmKLkUdGAHKMoWjNjxgyys7N57LHHtI4ihBBCCNHpZOpp6pKppxrIzs7G4XBoHUOkqEcffZR+/foxefJk+vbtq3UcIYQQQohOI1NPU1fURtHn87V5o1jXd1YdhH+Z0j2fxWLBbrd3+c8Rb75Uv/+6Q77XXnuNyZMn89VXX6Vkvo7UQffJJ0t9i9YEg0H8fn+7r4vQ+u9D8nWsDiRfInUg+RKpg9TO5/V646rX+v6LJ1+mnWtR/pPRgByjKGIZMWIEF154IVdffbXWUUQH3XLLLSiKIh/yUf9x8803a/1rKYQQKUeOUUxdUUcU4+2GtahTVTXt8+Xl5eFwOFI2X2fsN946ydfgqquu4oQTTuDdd99lypQpKZevI3XdJd+tt97KDTfcENd+I+9QxrPfsrIySkpKkrK9ZNd1Vr69e/dSVFTU6j8RkXfI9frYR1LY7XaKiorarIl3e8mug/DvXzx18W4v2XWSL7E6yZdYneRLrC5V8wUCAYxGI8FgMGP+P8gkcoyiBmREUcRr5cqV6HQ6nE6n1lGE0IRer8fv95OVlaV1FCGEEEnm9/vR6/X1009FapFxXg1IoyjaY+XKlZxwwglaxxBCE5FGUQghRObx+/3odDqtY4hWSKOoATk9hmiPSZMmMXbsWO6++26towjR5aRRFEKIzBUIBOKewiq6njSKGpDTY4j2WrhwIcuWLWPDhg1aRxGiS0mjKIQQmSsy9VSkJnlkNCAjiqIj3nzzTUaNGsWuXbu0jiJEl5FGUQghMpc0iqlNRhQ1IMcoio7o2bMn9957L+ecc47WUYToMjqdThpFIYTIUIFAQI5RTGHSKGogOzsbp9NJKBTSOopIM2effTaKovD0009rHUWILqPX6wkEAlrHEEIIkUQympj65NHRSGT6aU5OjtZRRJp56qmnKCkpYfLkyRQXF2sdR4hOF5l+Ku86CyFE5pBGMfUpbo83FAgEcDodVFdVM2jQQMrKytq8UTAYBGj1BMidVQfgcDjIzs5O+3zjxo1j1apVbZ6cWu4/ydda3TfffMPll1/OO++8k5L5WiP5JF9H9ltTU4PBYIi67fbkczqdWCyWpOdLRp3kk3yST/J1t3wOhwOfz4fNZsuY17fevXvz449bycnNwWLJTvs3OKO28W01LwA+nw8Ag8HQpXUAZWVlGZEvNzcXs9ncZq3cf5KvtbqSkhLOO+887rvvvianzUiVfK2RfJKvI/vNycmpf95sLnL8YjzvStvtdoqKitqsiXd7ya6TfJJP8km+7pbPYDCQlZWFxWLJqNe3TCLHKGokOztbFrQRCbnmmmtYv359i1FFITKNrHwqhBCZR86hmPrk0dGInCJDJMNbb72FTqernz4hRCaSRlEIITKPHKOY+mREUSNyigyRDIqisHLlSo4//nitowjRaVRVJRgMykrRQgiRIUKhEKFQKK7jA4V25NHRiNVqlRFFkRRTpkxh+PDh3H///VpHEaLTyCkyhBAic8hoYnqQR0gjMqIokum+++5j5MiRjB07NubB1kKko8j0U/nHQggh0p+c8ig9yCuuRuQYRZFsb775JgceeCA7duzQOooQSSfHKQohROaQN/7Sg0w91Yg0iiLZ+vTpw7x587jgggu0jiJE0kmjKIQQmUNWPE0PUR+hWOcBifc8Icmug/DJLDMhn8lkory8vM1auf+6Zr+ZlG/69OmsWbOGZ599lunTp6dcvlS//yRfx+ugc/MpioLD4cBqtSaUL1azqfX9J/k6VgeSL5E6kHyJ1IHka29dbW0tZrO5viZTXt/iOSdjOpERRY3IiKLoLM888wx/+tOf2Lt3r9ZRhEiayLEssqCNEEKkt0AggKIosuJpGog6ohhvN6xFnaqqGZEvNzcXp9MZV63cf52/33jr0iXfm2++yYknnsjatWtTMl9X7zfeOsmXWF1n58vOziYYDGI0GlvUxTOFSVXVuKc6aVEn+RKrk3yJ1Um+xOokX/x1Xq8Xq9Xa5Pk9k17fMom08hqR02OIzjR+/HimTZvGddddp3UUIZLGaDTi8Xi0jiGEECIBXq+XrKwsrWOIOEijqBE5PYbobH/+85/5+OOPWb16tdZRhEiKrKwsvF6v1jGEEEIkwOPxRJ0ZIlKPLDekETlGUXSFt956C5vNJqMwIiM0Pk5Rzr8lhBDpR45PTC/yKGlEpp6KrpCVlcVLL73EySefrHUUIZJCRhWFECJ9yWhiepFGUSMy9VR0lZNOOon+/fvz4IMPah1FiITJcYpCCJG+5PjE9CKNokZk6qnoSosWLWLRokVs3rxZ6yhCJCQrK0saRSGESFMyophepFHUiIwoiq721ltvMXnyZK1jCJEQnU6HoihyPkUhhEgzcnxi+om6mI3P52vzRrGu76w6gGAwmDH5srKyqK6uxmw2p2S+ZO1X8nVNHbSdr3fv3syfP59LLrmERYsWpVy+ztqv5OuaOui6fIqi4HQ6MZvN7c7n9/s7PV9H6kDyJVIHki+ROpB8idSB5Iunzul0oqpq1Ntnyutbpp1rUVY91VBkVLG1RlGIZJs1axZWq5WNGzcyatSoDm/nu3IvX+zyssHu5ZdaHzu9QX72wq+eILl6hYFGlV4mlSKjjpEFBibvY2JEDzkmQSRH5DhFee4UQoj0Iccnpp+ojWK83bAWdaqqZkw+m82G2+2OWS/3X+fvN966TMh3xhlntHu/ZbV+Fm2oZuE3VbDTA75gy0IFCEGVAhtCsKHRVfMAsvUUlKjMHV7LcQPNHFRiirnfePMlqy4THt/O2G+8dV2VT1VVXC4Xen3DS1jjr9vKF09dvNtLdp3kS6xO8iVWJ/kSq5N8sesCgQBWqzXq1NNMen3LJDKiqCE5TlGkMrc/xOKvvHy0y8F/KnxUfG9vuFKp6wpR6i7T8nOo0WcAp5+9P8KNW3ZyI0CugasOLuDaA/PoYZFz4on4yXGKQgiRXuT4xPQkj5aGZOVTkYoCwRB/+byCs1a5Kasxsq8lm5l98iA/O9wgqmq4AVTVussKoIS/rr++7vv1nxvX192+2s+9b+2i6O7vmfTvHazb5db2BxdpRVY/FUKI9CGrnaYnaRQ1JI2iSDXPfluD/q9bmPfKTl77qbLJdecMKYIsfV3TpzT6HK0pbP79xs1l488K+EO8v66ScX/7EWXpNt77ydXlP7dIP0ajEa/Xq3UMIYQQcfB4PHJ8YhqSRlFDMvVUpIr1uz0oj27n7Gd/hj11/3yXO1hT7qivKTIboG9OlOZPafhQlFZGFglfhigjjI2aym1Opjz+K5e9X44/GGoeU4h6MqIohBDpw+v1yohiGpJGUUMyoii0Vu4KcMS/djD2r1vgR0e4gWvU5K3ZWo7L37BwzZX9CsCUFX36aZsji2obl+v2SWQaK/zjw70Ylmzj+woZMRLRyXGKQgiRHuT4xPQlj5iGZERRaKnWG6THMz/z0bq6KaZKsyZPUcDt5/Gyqia3O+k3PerqGzV7NGoSda0co6ioDSOP0OyYxbrv51ugyAoDCjk0P5/9X67kb+ua7l+ICLPZjMslU5WFECKVuVwuOZ1RmpJVTzUkI4pCK5WeID2f+hl+rVtARmnUHEa+rvu+++cqfs7Ppl92+NiC3+SYoE8u7KwON38QZdVTpemqp4oCoUarpNqM5BeYKdCpDLMYKMzS08PUctnpQ8nmuc21bK0q5/6jCpN9N4g0Zzab2b17N1arVesoQgghWuF0OikslNfwdBS1UfT5fG3eKNb1nVUHEAwGMyaf2Wymurq61Xqt8yVrv5Kva+ogvnw7qz30f6YMdtdN62w8wtf4stLw+cXtlVw5omf9Nq7cJ5/7ar3g8DTURbrCSFMY+awS/pxrYVSeiXG5JgqiNIWt+W2hlR+rPNz2cSXXHpRd/315fLtmv+mQz+l0YrFY4srn9/u7PF+8JF/H60DyJVIHki+ROpB8rdX5fD4CgQDBYJBgMMo5mBvly4TXt0w716JMPdWQjCiKrra1OkD/J3aGm8TWjhmEhlHFyLTRWjf/3tF0Cujs+lVQmx+T2OhzgYUjBhYwe0xfrhxaxLHFtnY1iRGDso38Um1i6X8dsYtFt2KxWGT6qRBCpCiZdpreoo4oxtsNa1GnqmrG5MvLy8PhcMSsl/uv8/cbb10651tf5uPPH3lgb907YpFjDJVmI4iqCoQaRhiV8Ejhth3VbLEaGZxjAsCsV5k2qIDlP5SHp5dG3naymZhQYGJEjhmzPnnvRVn1Ot7driff4uXMYQ0ji/L4dv5+463TIteiqTYAACAASURBVF9OTg52ux29PvaRFKqqxlUHaFIn+RKrk3yJ1Um+xOokX3Rer5eioqKYC9lk0utbJpFjFDUki9mIrlLjDfHQl372sZgaHYsY7bPa8BkajTCGL7+yrYJL9yvGpAtfHmgzMbpXDhvKasBq5LRiK/vYkr/89XaHhxp/EAgx7zMv+UY4uq+cj0k0/PMjJ3MWQojUEjl3oqx2mr6kUdSQTD0VXeXGDz3kZNX9uZuM4PU1aw6bjSA2HmlsPB01EOShrRVcuW/DQemTSmyMzDXR05zYO22/Or387PTyiyfAT9UecPvB7QmPVkbOqVh3fMPxP6ts++M+9LbKU5homH4qjaIQQqQOmXaa/uS/LA3JiKLoCs/814ca0jV8w6wHn7/lSCIQdfXTyNcQvuzw8uGuGo4sttVvsiNNYpXHz7fVbtZUeqDGFW4IQ6G6j7qvlcg02LrLqhpuGj1BTnxjD+tOK+nAPSIyjdlsZs+ePeTl5WkdRQghRB2Hw0Fubq7WMUQCpFHUkIwois72/Z4g68uafTPfDNXupudNhNirnza6/IXDz5EdyLPL7WN9hZtvq9zg9TeMFNL0lBzhkcP6c2s0W0VVgWCI/31TyytjnJw2TF6EBJhMJtxuNyaTSesoQgjR7blcrrhWoxapTRpFDcmIouhsf1/vQkfTY/mOyDbyH7XZ9FKlWZPYpDmM1AJ6HRN6WhlX2L4n/41VLlaWu8DlaxgxjGw/0vxFmsFgqH4BnfpmUW3aJEauP33FbhyDbVgMcvxDd2exWHA4HNIoCiFECpBpp5lB/rvSkIwois5U7grw182VLb4/vG7V0vqFa+pPadFoJLHFZQWd1cyswQVxN4kOb4Av9ji47/tyVu6oAU+gYbtNTsnR7NQczU/ZoUSa1Wb5FAWq/fzxvT0duHdEpjEajXi9XkKhUOxiIYQQnSYUCuH1euW48QwgjaKGZERRdKY7PqsAZ8uTw1r1KvTIbmVEsXGzRn2zOKFPDpcPzGtYECcOZU4fH5a7wiOAaqPVVBs3p/XNnwooLae7Nj6fY/Pv131+4uNyKtyBuHOJzGU2m+WcikIIoTGn0ynTTjOENIoaMplM+P1+/H6/1lFEhvEHQ9y/Zi9UOqNePzzH1KgJaz6iV9e01V1/XL9cxhW0/wl/cJ6J0/vkgKFuIZ3GzWGTkcxm01wbjyQ2Xkin+XTZyOWQwqL1Ve3OJzKP2WzG6Yz+Oy+EEKJryLTTzKG4Pd5QIBDA6XRQXVXNoEEDKStrvvpFU8G6JepjnRcl2XUQXkEpOzu7zZp0yjd8+HDWrFkTdbW+VMjXlXWSL3n5ntjkZcFbtaAoTDtwHwZamh6nuMft56mvdzRM82w8che5rFc5Z0A+RXGsaPprrReLQSXf2HLEscLj5/Ffa8Af/jmITA2MLGQTWek02Oj7zVc/bfK9xpfr6nMVdp4dfVGbTHx8JV/rdeXl5RQWFqLT6VrUxvMut5b3n+STfJJP8qV7vkAgUP88nG6vH8nI17t3b378cSs5uTlYLNlRX4vSSdR5ZCUlbS857/OFp7MZDG3/A5nsOoCysrKMymez2cjOzo56m1TI15V1ki95+Ra8uKV+5G1tpbtFo9jDpAdrFjh9XDbWyhG9DfxQGeDrcj/Pb/GCTuWcAQUUmdueauoNhvjc7uR/tV4K9SrH9rKSl9X0STHfqOfCPjaW7ajF6Q80LFjTeGGaxgvVRD7Xr3ZK3YqojRa8UZpdXxlksz+XI/u2fAczEx9fydd6XXZ2NoqiYLVaW9Ta7XaKiora3F5khode3/bvfrLrJJ/kk3ySLxPy1dTUkJ2djc1mS7vXj2TlyySy6qnGZEEbkWzvbndCmaf+1Be/7KqC3jn115d7/Fw40scNB+ehUxrdsL8OyGLpJAsOn8Kj3/jZ6VAx6qK/02Z3+fjU7qIyECS3rrl7f1ctRxdbyWnWLOYa9ZzZ28aLO2uo9gcbnRdRaTg/YijYYlXTFpeVRs1ipEkMAYrCwi8qozaKonsxm83s3bs3aqMohBCic7lcLgoLC7WOIZJEjlHUmCxoI5Jt8Td1bzxEmkCnD0fdtM8ck5t7Dg8wulBp2iQ2k20I8afRMHM/Lz/VeFtc/1ONh3fKHLgDQbJVBbMCWaqCGoQ1u51Ue1suLpNr1HF6LxsDDPqmxyrWL0zTyvkbI9+PTI+NugBPiDe/rqbWG4x194gMp9frUVU1I9/ZFUKIVObz+VBVNe2nW4oG0ihqTEYURbK99JOz6cnrgbUVTk4c5OHK0WDUxX/6gCF5sPjoEEZdQ+P3xR4nH+9xYahrDs0omFQVo6JgVlWUUIgv7U7Kals2mLlGHb/ra2OsxdhowRpaNoeNL0drDqN99gV56lv5WxLhcyrKojZCCNG1ZLXTzCONosZkRFEkkz8I/OoOX2g0TfOQQh/je3bs/HJZaog5o/1UegN8scfJllofJkXBUtccGlSFLCXcLGYpYFJUlBBsrPSw09GyWTTqFCb2tnJ0vin6KqZNmsBGxyi21iTScHnlT9IciHCj6HK55JyKQgjRRYLBIC6XSxrFDCONosZkRFEk06e7/I2O6SP8OVfPHYcmduye1RDitH39bKn1kgUYVQUDkKUoZCl1l1t8Vvih0ssuR/QpgAcUWvh9T2tDzuafozaNjT83uz4Er0eaZNHtWa1WeW4VQoguUltbi81m0zqGSDJpFDUmjaJIptU7/fVNU8TH0wrbPB4xXof3DvGH/ob6JjE8kghGVUXfqDnM0qlkoWCsu/7HKi8/V3mibrN/jpEL98kDvVrf9P2hv4F/HZPNtzNyqL4on5/Oz+ONk23M3r+u2W080gh1n+sul7nxBWQUSYQbRYfDoXUMIYToFuI5fYRIP9IoakymnopkemmXv2E1UABFYVRB8v7Mpw7R1zeJOkXBoKroFMhSVQwoGFDQh0CvhL/OUlUMCvzi8PHtbhf+YMsmLteo44/9cxmXo+eVSRYePtrMsf319LWFc+cZVQ7rbaD08GxWTsuFHF2jkcSGnxOAIHyxS0YVRZg8vwohROerqamRlaYzVNTTY8RaLS7e1eSSXQfhOdCZlM9isVBVVRX1NqmQryvrQPIlUgdQVhFoMh3zsBHJPVZgcC6oqoIeMCjhlVMNNB3BbEwNgYqCAtT4g3y528WIAiO2ZqfPsBoUnj3GQG9r203t4b0NbJ+eR/9/VkB1oOl5GOs+f2v3ML6o4aktkx5fyde+OqPRSFlZGSaTqT5f5PxfqZCvOcnX8TqQfInUgeRLpA66d76Kigp69erV4vvp/PrRXLz54jknYzqREUWNyTveIqmcIRofw3daf1NSN2/Sh9ABusZNYhxUVUEF/IEgX+528kt100Vu9itwxWwSI/JNKq8da6PJeRUbTqhIhaflqTlE96QoCtnZ2TIFVQghOolMOc1sUUcU4+2GtahTVTWj8uXl5bFp06Y2byP3X+fvN966VM+HN9hkhG18cdQ/8Q5TgIHZOsqcQXRK6yOJzamhcHOphkLoFIXvKt1U+oMMyTOSn+Vn6r7te8/qyD5ZnDLczCvfOOt+3mBduiAVXiXqfZUJj6/ka39dfn4+drud3NxcVFVFr4/vb0KLOsmXWJ3kS6xO8iVW113zuVwuevbsiaq2/jqerq8fjbUnXyaREUWNyYiiSKoAdQNr4ZG+zvgDH1mooCrtXx1HDYXQ191Opyj8XOPl810O8rM6dmL0g4oMzU6REW6Oy90yoigaqKqK0WjE5XJpHUUIITKK0+nEbDa32SSK9CaPrMZk1VORdA2zMKnohKbprZ/D21TbubioUrdaafhJJ4SiwB6Pn34dXE17dJGubtppeHsQHkl1+WXVU9GUPM8KIUTy1dbWyiI2GU4aRY3l5uZSVVWldQyRKcxqfc9ECO76KrknoHf6IEijgbx2CCoQajQCGASCikJJBw9tyDWqUUcUc7PkaU00pdPpMBgMeDzRT9MihBCifdxuNwaDAZ1OF7tYpC35j0pjMvVUJJVJaTKi+PF3zoZBtyT4and4NLGj2wzV3TBYN7IYDIVYvyvYoW1trw5GHVHsYZYXLdGSPNcKIUTyVFdXY7N1cEqQSBvSKGpMpkSJpGo2ooii8NWejh0D2FwoFOJfm0L1vVl7m8VQ3eqkgbrP4dsrbKroWKP45W4dZBtp9gPTK1saRdGSwWAgFArJqKIQQiTI4/Gg0+niXvRGpC9pFDUm73KLZCow103FbNTNHbmiEqevY81YYx//EmDNniABBfyhEH4l/k4xFAoRJHw7UPCHQuF1d0IhVttDlNW2L1+ZMwRkc+WoXvxuv16QbSDSLP4mv/utSibiI8+3QgiRuJqaGjk2sZuQRlFjMqIokumYvMhoWqP5p9UBpr+V2HGwdkeAOZ8ECACBYAg/EKhr9uLhV8DXpFkMX/YD2z1BblrTvlHPe75sOEhyaI6JK0f35bfDiyFLx+F9knvuSJE5IqOK7TnJshBCiAY+n49QKERWVpbWUUQXiDpmHOtFNN4X2WTXAQSDwYzKZzAYcLlceL3eulUhUytfV9aB5EukDmBiiY4XgHCTqBJpFj/83sN9ax3MHWdBVeNbica+9gvw+6l0BXntxywO2evB4w+iVxQUBVRFQVVAh4JC9AVuQqFwggAhgqFwkxkkfGyiPwT+UJAQUPF9iId+UTl9WOwXnhc3Q29/y7pjgUPMfso+3EnOb/bF3LMnkFmPr+TreB2E8xmNRioqKigoKEjJfH6/v0v3K/m6pg4kXyJ1IPkSqYPk5du7dy8mkymu2kx7/YgnX6ada1EmF6eAyKhiTk6O1lFEmpvYu+6UEYrS4vNWZy5Xf+TnhvE+8i1tP5EtP/wo9n69uf5yDjC+k7MDrIijxlj3EU0u8FLd14fcOp9x185LSi6ROUwmEzU1Nfj9fjm+Rggh2sHv9xMIBDAaW3sVFpkm6qtkvN2wFnWqqmZcPqvVisfjafV2WufryjrJl1hdvkkHxUbY7W0y+xSLgUKjHtCzcF0Wk3rVcGgvFZtJh67ZiXJ3bf2lSZOYrj69sZRDbriu/nImPL6SL7G6SL7CwkKcTif5+fmt1sbbRCazTlVVTfYbb53kS6xO8iVWJ/kSq0tGvurqagoLC1Hr/m/ojq8f3Y28nZoC5DhFkUxzRuay6D17k8VAhxY1LGGdrVf5zJ7LZ3ZwB4J8vsfOQXmgAxZtVbjI4Gc4YEChuANPES6ClNcdvTi4f/92397v87N9x68YgGLa/6TceP9CRGM0GnE4HHg8HnlnXAgh4hBZMdpoNMpx3t2INIopQFbiE8l0zfg8Fr23u8m004PzLVFrv6ly88XOAF+UAaoKSog3dtcwHChEYSrtX9VsCx5W4URB4aSTTmv/D1BdxQNPPUIeug7tfys+Xkf+nkTbcnNz2bNnD8XFxVpHEUKIlFdZWUlRUZHWMUQXk1VPU4CMKIpk6pejR/mNteEUGRYDPUzR3xNavcfZ5FQa1C04I0Sm0+l0WCwWeZNOCCFiqKmpwWKx1E85Fd2HPOIpQEYURbI9Ni4/PPU0FELfIztqTYXHDzXu8IVGzaJM2hTdhc1mw+FwEAwmfp5RIYTIRMFgEKfTic1mi10sMo40iilARhRFsv1huBVMKqBwTE708wo+t6vudy5yDou6kURXSEYURfeRm5tLVVVi5xkVQohMVVlZSV5entYxhEakUUwBMqIoks2gUzhjbB7oFEbkmqPWeCrc4eawbuQRgGAIJ9Ioiu7DZDIRCoXqF2oQQggR1ngBG9E9yWI2KUBGFEVnuOeIQv75ozfqdRsqXODxRT3fYqCuafQTwkn7p+RF/t0OEQKXo923d7ucAAShQ/t3deA2onuThW2EEKIlWcBGRG0UYy17G++yuMmug/Bc6UzLZ7FYqKqqavH9VMnXVXUg+RKpg6b5eprgupEFuKLc/L0qV8MooqKERxbV8Lk0ImvZ7CHEYyQ2Je+BRxd3+LblBBLev8/ny9jHt6v2213yGQwGKisr437nvLPy+f3+Lt2v5OuaOpB8idSB5EukDtqfr6amBoPBQCAQIBAItFqXzHzp+vrReHuZdq5FGVFMAVarld27d2sdQ2SgOWOzuG1NEGPzlcqq3Q0jiZEmMRgMnyKjroHUAbnoWmzTRRAXIRQUigoL253J5/VRUVOFHsiJsv1YPARxtLF/j8dLVW11u7crujebzcauXbswGAyysp8QolsLBoM4HA6ZZSGiN4rxdsNa1KmqmnH5cnNz2bZtW6u30zpfV9ZJvsTqmucrNsCR/bx89mtDjcMfhFpP0+awcbNYN6JYhMpp5LTYx9e4+RAXOVYbZ515XlzZG3OV7WDJS8voi54Taf8qav/FzWpcWLOzo+7fvm0Lz772MtD0PsvEx7er9htvXbrn69GjBzU1NeTn56PXx/c+ajLrVFXVZL/x1km+xOokX2J1ki+xuvbkq66upqioKObzqrx+ZD552zQFyDGKojNNH5FFUGmYbvK/KlfDKqeNVjttvKBNpnj44YdZuXKl1jFEmjCZTASDQVnYRgjRbckCNqIxaRRTgKx6Kjrbwolm9tbNrf+4ygWhugVfQiEg1DCSmEFNIsDvf/97/vGPfzBp0iTWrFmjdRyRBvLy8qioqNA6hhBCaKKiokJOhyHqSaOYAqRRFJ3NrIe/HGVij8cHla6mTWH9yGLj5jEz9OzZk5dffplbb72Vq666iqlTp7Jp0yatY4kUpqoqFotFnpOFEN1OTU0NFotFjtMW9eQ3IQXI1FPRFXqYVe6caIRsGk0zbdYcBjPz1BKHH344n3zyCTNnzuSUU07hggsuwG63ax1LpCibzYbD4SCYoX8PQgjRXGQBG5ut/WsHiMwljWIKkBFF0VV6W3X8ek5vKDA0nW7a5HPm/nN8yimnsHHjRo444gj2228/rrrqqpjLhYvuKTc3l6qqxE7PIoQQ6aKyslKmnIoW5PQYKUBGFEVXKrLo+PG8Pgx6YgdUeMOnyAgFCb9vFKpf9bSMIA/S+rFaVbXVPPDgfR1IEN7BNvxtbj+WGkdtK/uPPXV25syZzJw5k/vuuw+z2czNN9/Mdddd1+EsIvOYTCbcbjdutxuTyaR1HCGE6DQulwudTicL2IgWZEQxBciIouhqfW16dl8ygBEjbA0ji6FgeApq3bGLCiGMKDE+aPGhp26BHEKYskxRPsxtfmTpjAnuP35XXnklPp8Pl8tFTk4OTz75ZHLuYJER8vLyqKqqkimoQoiMFQwGqa6uJjc3V+soIgXJiGIKkBFFoYUii45vzuzLY/+t5sIVZeAJNqyCChSj4zTa/8KxBQ+rcKKgcMlFl7Y/WHUVDzz1CD3QMyPKeRxj2YqP12nfGy+333478+fPZ86cOQwYMIDS0lJmzJjR7n2LzFNYWEh5eTlFRUVaRxFCiKTbs2cPPXr00DqGSFFRG8WysrI2bxR5dzXWqkjJrgNwOBxN8lW5PHz4w8+s+3l3/fdCdQtzKIrS5raSXQfg8/linpAz2vbGnHQ6Fz/yIqqqS8l8HanLt5iYsG8/RvUuBDr2+EaTSr9/mZDvhCJYd6aVse864Sd/PDM300ZZWVm77r8bbriByy67jNtvv5077riDP//5z0ycOLFJTbo9vpIv8XxOp5Oqqqom77h3Rj6n0xlzkSUt7z/JJ/kkX2blq6qqQlXV+u2k4/NzquXr3bt3zG2lk6iNYklJSZs38tWdjy1Ww5HsOgj/41dSUkKFw8XVL7zFY69+FPM26aEPa1d+rnWIpLsToCiPVX88nSn7D4lZH3l825IKv3+Zlq8ECA2Cv35Zydx/7Yy5n3RRUlLS7vtv8ODBvPzyy6xfv55rr72WpUuXUlpayvjx44H0fHwlX+L5KioqMJvN9ccrRhZB0uvbnpgTbx2A3W6POXKZ7P1KPskn+bpnPrfbjV6vJz8/v/576fr8nGr5MklaTj2tcLgouHExbN0BRflcNWkcx43ct/76QCAAgE6na20TnVIHsHfvXgoKCrp0v6mab8vuvTz12Tes+fwbjr95KQ/Pmc4lRx0YM6PQzuXj8jg/dx8ev1PrJNobM2YMb775Ju+99x6zZ8+un5Lar18/raMJDeTn51NWVkZxcXFcszeEECJVhUIhKisrYzY+QqRlo3hg6ZOwdQeHHrQfr8+ZQX62ucn12r7jkJ3i74h0Xb5j9xvMJUcdyBtfb+b4m5cye9ELDO5ZwLH7DY6ZU2hH/gduatKkSaxdu5aXXnqJY489lkmTJrFw4UI5Zq0bihyvKMfzCCHSmRyXKOKVdquefvWLnS3/2wJF+VGbRJF6jh4+kNvO/x0AN736H43TCNExp512Glu2bGHs2LEMGTKEBQsWaB1JdDGDwYDJZKK6ulrrKEII0SHV1dVYLJa4pqsKkXa/Jcu/2gzAySMHSZOYRqaPH8ENT7zOms+/0TqKiKVuKvFuAjxBZbtv7qtbDSdEiMceW9Lu2/vrDi4vx5/Q/jvLrFmzmDVrFvfeey+KolBaWsq8efM6dZ8idVitVvbu3YvH45Fzjgkh0orH48Hv95OT0/4VxUX3lHYjihG/6Zkfu0ikjIFF8nilC9s++6AzmQiiUEuo3R+eRtuqdta2+8PpdgIkvP9BJx3dqffTtddeSygUory8nMLCQh555JFO3Z9IHQUFBZSXl2sdQwgh4hYKheJap0KIxtJuRDGWxe+v5ftd4RdwLZbPra2txWq1dul+Uy3fX6ZPjplDpC5FVTnjozf4+NbbCbrdST09i9frJSsrKynba6suf999GfOny2LmSYbS0lLmz5/P/PnzKS0tpbS0lFNPPbVL9i20U1hYyJ49e2QxCCFEWigvL2ffffeNXShEIxnXKN793hds/eZHrWN0a9Iopr+icWP53UvPA+m//HVXKCgoYOnSpfzwww/1DeMdd9zBhAkTtI4mOklWVhZGo5GamhpsNpvWcYQQolU1NTVkZWWlxOulSC9RG8VY5wGJ9zwhya6DhlGEQCAQ9XaR64V2mj8usS43FgwGU/r3T/J1vA4yP1///v355z//ydq1a1mwYAGlpaXcdddd7L///imRrzProPvlMxqNVFdXo9PpWh0pb2++yHnRkpEvmXUg+RKpA8mXSB1Ivo7Web1eHA4HZrO5Wz0/J7MO4s+Xac142h6jKIQQqerAAw9k1apVzJkzhwsuuIBzzjmHn3/+WetYohNEpqAKIUQqstvtFBYWah1DpKmoI4rxdsNa1EWOR9LpdFHr5UTI2ov1OLZ1vaqqKf37J/kSq+tu+Y4//nhOPvlkli1bxsSJEzn55JMpLS0lOzs7JfIlu6675isuLqaqqqrNf8biWYpeVdW4l6zXok7yJVYn+RKrk3ztrysvL6dXr14YDIZu+/ycrLr25MskMqIohBCd7Mwzz+Snn35i+PDhFBcXc+ONN2odSSSR0WjEZDJRU1OjdRQhhADC50s0mUwxF5AToi3SKAohRBf54x//SG1tLQaDgaysLO6//36tI4kkyc7OJhQK4XA4tI4ihOjmamtrURQl6uwVIdpDGkUhhOhiN9xwAw6Hg59//pl+/frx9NNPax1JJEFOTg4+nw+Xy6V1FCFEN+VyufD7/bIas0gKaRSFEEIDBoOB++67jy+++IIPPviAESNG8Oqrr2odSyQoLy8Pp9OJx+PROooQopvxeDy4XC7y8vK0jiIyhDSKQgihoeLiYh599FH+9a9/sXTpUg4//HA+/vhjrWOJBBQWFlJdXR1zqXwhhEgWv99PdXU1BQUFWkcRGSS+5ZRE5xrQi6sO3o+DBvYhP9tMhcPF51t/5aMtv/LZF99pnU4I0QWGDx/OihUr+Pjjj5k/fz75+fmUlpYyYsQIraOJDigqKqKsrIyCggJUVd6TFUJ0nmAwSHl5OcXFxVpHERlGGkUNnXzUOO6fMZlBPVu++zP9oJH4fD4qHC7ufnMN9776ETjdGqQUQnSl3/72t3z00Ue89tprnH766YwfP57S0lJKSkq0jibaqaSkhJ9++onevXtrHUUIkcHKysrkeUZ0iqiNos/na/NGsa7vrDqAUCgEQCAQiHq7yPUpzWzk1avO4rhRvwHgja8389AHX/DqtjLYthMG9OKQonyuO+5gJg0bwJ2nTuK0scM59KEXYXuZxuFja/64xLrcWDAYTOnfP8nX8TqQfO2pO+644zjuuON45plnGDNmDNOnT+eKK65ImXzRpNL9F40W+QoKCvjll1/o27dvXPliTVfV+v6TfB2rA8mXSB1Ivtbqdu3aRa9evWLeRp6fO14H8efLtHMtynyYrmYx8Z/rL2DSsAFstVcw9NZHOP7mpbz6wfpwkwiwbSefrv2Wk25/nOwr7ufLbTsZN6AXu276P+gvowpCdCdnn302P/30E/vssw9Dhw7l9ttv1zqSaAdVVcnPz8dut2sdRQiRYex2u0xvF50q6ohivN2wFnWKogCg0+mi1keuT1VvLTifg/ftx5fbdnLorUvBEWM6qb2SQ29dysMXnMwlRx3I3tsvpeDihSk9DTXW49jW9aqqpvTvn+RLrE7ydbzuqquu4g9/+AMPP/wweXl5lJaWctlll6VMPkjt+w+0y2cwGDCZTDEXmlBVFb0+viNCtKiTfInVSb7E6iRfU3v37qWgoACj0ZjSz3/x1mVSvkwib0F0oZOPGsex+w2mwuGKr0mMcLiZvegF3v5mC/nZZh6+8OTODSqESFm33HILdrudTZs20a9fP5577jmtI4k4GI1GTCYTlZWVWkcRQqS5yspKzGYzRqNR6ygiw0mj2IXunzEZgAuffC3+JrGRyYueB+CSow6EovykZhNCpA+LxcKiRYtYs2YNr7/+OgcccABvvPGG1rFEDBaLBb1eT01NjdZRhBBpqqamBr1ej9ls1jqK6AakUewqRfn1q5u+1tFTXuyu4IutOwA4dKCsbiVEd9e3b1+epC3UoQAAIABJREFUffZZnn76af76179y1FFHsXbtWq1jiTZYrVaCwSAOh0PrKEKINONwOAiFQlitVq2jiG5CGsUuMrBneATw7W+2dGg0MeKtb34A4LCBvZKSSwiR/vbff39WrVrFTTfdxNy5c5kxYwY//PCD1rFEK3JzcwkEAlRXV2sdRQiRJqqrqwkEAuTk5GgdRXQj0iimmb0Ol9YRhBApauLEiXz88cecccYZHH/88fzf//0f5eXlWscSUUT+2ZORRSFELJHnCWkSRVeTRlEIITLMtGnT+P777zn44IMZOnQo8+bNS49zzHYzOTk5+P1+OWZRCNGqmpoaGUkUmpFGUQghMtSsWbPYs2cPRUVF6HQ67rrrLq0jiWZyc3NRFEVWQxVCtFBZWYmiKNIkCs1EPUGLz+dr80axru+sOqD+XfFAIBD1dqn6rnkoFMLn8xEIBBLaTuTnTnQ7nan54xLrcmPBYDClf/8kX8frQPIlUgcdzzd37lzmzp3L9ddfT35+PgsXLuS8885LmXxdUQepm89oNBIIBNizZw/5+W2vaK31/ef3+7t0v5Kva+pA8iVSB8nPt3fvXmw2G0ajsdXbZcLzX0Sm5Mu0cy3KiKIQQnQTt99+O5s3b2bdunWMHDmS5cuXax1J1LFYLJhMJux2u9ZRhBAas9vtWCwWOQWG0FzUEcV4u2Et6hRFAUCn00Wtj1yvGbORgYP6tPj2xIG9MRgM9LBZGTBiIBA7a2R0tHHd0F5FGAwGhvYqYuB+g1rUbd1dAfaKpPwoHRXrcWzrelVVU/r3T/IlVif5EqtLRr6ioiKWLl3Kpk2buO6663jggQcoLS1l0qRJKZGvM+tSPZ/ZbKawsJDy8nKKi4vbrNXro758d2qdqqqa7DfeOsmXWJ3kS6wuWfl27dpFUVERer2+Wz3/ZVK+TBLfb7SIW0nfIn68bXar148f2JvNN/0fEPsXMzLEHa3ukqMO5JKjDmxRd/Xzb3Lv8+90KLsQovsYNGgQy5Yt46uvvmL+/PmUlpZSWlrK6NGjtY7WrRkMBoqKiti5cyfFxcWoqkz8EaI7CAaDlJWVUVJSktKHF4nuRV6BhBCiGxs/fjzvvvsuV111FTNnzuTMM89k+/btWsfq1lRVpVevXuzevTvmMU9CiPTn9/ux2+307t1b3hwSKUV+G4UQQjB58mTWr1/PKaecwoQJE7j00kvltA0aKykpoaKiAo/Ho3UUIUQn8Xg8VFRUxJxuLoQWpFEUQghR74wzzmDbtm2MGjWKPn36cNNNN2kdqVsrKiqitrYWl8uldRQhRJK5XC4cDgdFRUVaRxEiKjlGUYgutGjRItatW8eGDRvIzc1l9erVWkcSGWrixIlUVlYyZswYxowZw5w5c9p1+9mzZzN79mxuvfVWLBYLpaWlXHnllZ2UVrSlsLCQyspKAoEAJpNJ6zhCiCSora3F7/dTUFCgdRQhWiUjiink7W+2cM0Lb/H2N1u0jiKSbMWKFRgMBrZt28aECRN4/PHH+eCDDwiFQvIhH53y8f777/P4449zxBFHsH37doxGI6+//nq7f3cXLFhAdXU1v/76K8XFxTzxxBPJ/wMRMeXl5REMBqmurtY6ihAiQdXV1YRCIfLy8rSOIkSbpFFMES98/j8m37CYe/75NpNvWMwLn/9P60giSa6++moeffRRXC4X9957L+eff76sLCm6xOjRo5k5cyb33HMPNTU1PPzwwyxYsKDd29Hr9dx7773897//ZfXq1QwfPpwVK1Z0QmLRlpycHFRVZc+ePVpHEUJ00J49e9DpdNhsNq2jCBGTNIop4vOtv7Z5WaSnq6++GlVVeeWVV+I+v5IQnSErK4vXXnsNr9fL/PnzO7SNnj178vjjj7N8+XIeffRRfvvb3/LRRx8lOaloS3Z2NjabjR07duD1erWOI4SIk9fr5ddff8Vms5Gdna11HCHiEvU/17KysjZvFAwGAWIu4ZvsOqD+hbG2tjZqTpfGL5y+QKBD99/pIwdw79s5sLcaCnI4feQA7HZ7i7pY26utrU0kflI0//kj+Vq7vjGHw5HSv3/tyff222+zadMmXn311ZjbFaKr3HvvvRx//PH885//5Oijj+7Q30deXh5Llixh7dq1XH311dhsNq6//nr69u2bMX+/6ZBvy5YtGI3GqCMTnZHP6XTWvy4luj3JJ/m6U76amho8Hg+5ublUVVXFXFE6FZ5fJF/H8vXu3TvmttJJ1EaxpKSkzRu1dSL4zqyD8LviAFarNWpOc931WjHodB26/0pKSrjq2IO49/l3uOrYgzh4v6Eduv+sVmsi8ZOi+c8fydfa9Y1FTjbbFi1//9qTb9asWdqtVFixjFN6nMWbBmOTbwdNo7ni808pNdzHEQd8yNl7XubiZn8ygWdPQv/IiWx//2L2AaCS/y48iQlP9eWuV57goqFNt8mzJ2I5+3VcCzYQWnhAoyvWc9vgsdyYcxcfrp/PEe3+IVYxu6CUwo0fcHvPZletm8foC3Qs2nBnB7bblkrWzTqCcfu/RuhP/ZO65VSyfPly8vPzqa6uTujv46STTuKkk07i9ddf549//CPDhw/nb3/7G7169erQ9jqzDjLr+cVgMFBSUkJtbS1ut5sePXo0qYucfzHWTIZ46wDsdnvM1RmTvV/JJ/nSOV8oFKK8vJyePXtitVrT6vlF8nU8XyaRqadCdIK///3v/OlPf9J2uql5Alf/5MbtbvjwVn5K6ZD2bKSMj+YcyzGvjmfx6mUtm8Q6rv796fvvJ3ij8Tffe5xXajvpvFAj/szLL89nXBI3Gdj6Pv846SCOfub7JG41NZlMJi6++GIWL16clO397ne/43//+x8TJkxg3LhxzJ07V87910WsVis5OTns3LlT7nMhUojH46GsrIzc3NyUeBNfiI6QRlGITrB+/XpGjRqldYyEqO5tvHbOERz9w9m88sb9TG+r5xt+Jn/ouZKFH0b+UXXz8bL36XfWFOrHlirXsGT6BEaPHs3YYQMYfMhsHt4evsrz3v2ce/BQhowexpDRU5m3uipyI768aQpjhw1gwIDRjFzyFU6AbxcydWopXwJ77z2cfaddwh+mTGHixNHsN3E2T9Vt173mYS6acACjR49myOiJTH1+U/j2LbhZc98DfHLa07x4TmGb90vr+yvjP/Mmc9joQxg9ehj7Tivl9V11P8X78zj9gGEMGT2aUWeez0lDJ3LVT23uptONGjWKDRs2JHWbp512Gjt27GDgwIHk5uZy6623JnX7IrqsrCx69eqFw+GQVVGFSAHV1dU4HA569eoV12iVEKlKGkUhOsHXX3+t/cqmrtXcPSSPvLyGD8Oh4eYqJvcGls44ktOf0XHULZdwSG6sGwzjgjP24T/LPg03Yu5VPPXZb7n4uIZ5rXv+vZBFfW7lnQ0bWLdxI0/vu4JLl3wF7lXMPfdJqv7yOZs3bGTzQ0P4cP5i/gPAj7wxvJSPNm5j66pz6X31TSxt8X+wmy3b8jn/lTf44INPeXrfVzhv8VdQsYq55z5P/tLP2bBhA5vfn0/J9TO49uto+U0cvugVnjjvYPJNoVh3TvT9ffcY164YzLzPPmXDhg0sP/BbXtqwCyqWMffcz+n19Fds3rCBT0538O02d6w7tNONHTuW9evXd8q2L7/8ctxuN4FAgOzsbB588MFO2Y9oqqCgAJ1Oh91uJxSK9XsshEi2UCiE3W5Hp9PJ+RFFRpBGMYVcetSBvHXbJVx61IFaRxEJys3N1b5RNE9g3uZKKisbPnxr4puuaf50GUsHLeX9h/rx+XmX8MKu2LfJOfUsTnr9cZZ7IPCv53j16JlMyWr4Z7XHBa+y+lwX7y9+gHsvv4Q719aCqxLWreSdHmdy9ZF13ehhd/Ppp5FjGsdy5dQDsADK8DHsl1NJRWXzPZtg9BSONYa/HjB8EFRWwvp/8/bujSyffjCjR49m9FEL+NBXyeqNVc030E6t7G/gUZxhfYlzD5nCmQsWs/63t/L344rhk5U8ue+ZXL1/eNqu7dRLmdFP+5OmjxkzhpycnE7dxy233ILdbmfTpk3069eP5557rlP3J8Kroubl5VFWVobbrf0bEkJ0F263m127dpGfny+rmoqMIY1iChnUs4Bj9xvMoJ7yLlS6W716tdYREuI65Bbeu/84Dpn9NC/u9zYzzl9SNxK5htsGKyiKgqKY6PFCQ9OlL5nGxfu/wy1vbmL5sp84ZObBTba55Y7xjLj0eb4zD2DomXO56eR+0Oj/WEv9V25+2riNyJnizPH0VK3UeHvN5NENG9hQ9/H1p5+yZnoun5ydVfczKCgz32xjw638vNH2ZzqUOV/8zHcPzeXEnK28+qeDyL7iM3xK83/WtW8SI7ri99RisbBo0SLWrFnD66+/zrhx43jjjTdi31B0WGShG6fTSVVVom+MCCFiqaqqwul0UlJSIqfCEhlFGkUhREsmU13jVsLRS5/m2l+uZvwVn+HkUG7YEiIUChEKudkzvfGc1DyOu+BQqu68mLtrz+K6/RtvcBufrvyW3bMf4MbzpnLi6BBr3v8ufNXwSRyzZxnXf173D+0n1zBtSikfJboux5gTONq+jMsiw6FbH+L3o6Zw7ddw2DPeup8hROjx49rYSFs/bzOfzGP/Q27h27FT+MOCv/LEn0bBtm04DjuV6VuWcc/X4R+oauVDrPi5+4309O3bl2effZYnnniChx56iIkTJ/LZZ59pHSuj5efno9frsdvtLU5TJIRIXDAYZPfu3RgMBnJzYx6jIUTakbc9hMhUrtXcs4+Je5p8M49+L2zn+1GguF7h8hwTl9ddEzQNYNJbG3m9+Xbyj+LOpxbw5ZEzOOCoz/j+5NZXtdGfcAGnzjqFxXc92WyK6wBOvG4WR19xMPs/VILJlMf4kYfDtm3syT+P+1/cxkVzDmKIx4zJNIypzy9hqvET2hrriyl/Gotf28ZFc49k2I0KUMLIe57nrv1j3rJjDruSvx95LpcfMIxrTCZ8eaO5b8lU8vKM/GPxes4+fSjDlDzyxwwg32iKb6Q0A40aNYoVK1bwySefcPnll9O7d29KS0v5zW9+o3W0jJSdnY3RaMRut5Obm4vJ1E1/8YRIMpfLRXV1NT169ECn08lCUiIjKW6PNxQIBHA6HVRXVTNo0MCY5wHR8jwmlz35Cv9Y+RlzTzuKu08/tsX1Q25ZyrZvt8bcTqfpW8SqWae0WRIIBADQ6XRJr3vogy959YPOWaAiXt7nFza5HHl8s8++Ker1jcVzniQtf//izZednS2LSYiwivdZumQXB15xBqONwPp5/PZMH1duvJ/faxxNURS8Xm+bNZ3x99F4ey+//DLXXXcdhx9+OAsXLqSwsLBd++3sfF1V1xX5KisrCYVC5OXl1Z9guj35ysvL6x+fzsiXSJ3kk3xdlS8YDFJRUYFOp2syitjdn18kX3h7FouFH3/cSk5uDhZLdsz/4VOdjCgm2y92jr/5Ea1TCCFSRf5whu29kwsOuJmgyUTQNIwpS5Zo3iSmiqlTpzJ16lQef/xxRo4cyfnnn8/Cha2/mSQ6Li8vD7fbze7du7FarXJuNyHaqaamBofDQV5eHkZj9PMKC5FJojaK8Z7zRYs6RVGA8OhZtPrI9UI7sR7Htq5XVTWlf//ak0+IsBKOuPst1t2tdY7otPr7aF530UUXcdFFF/GXv/wFk8nEbbfdxrx581ImX1fUdUU+g8GAzWajpqaG8vJyrFYrRqMxrgU4VFWNe6EOLeokX2J1kq91gUCAyspKLBYLffv2bTVfd39+SaQuk/JlElnMRgghRMq45pprCAaDVFdX07NnT/7xj39oHSkj2Ww2ioqKqK2tZe/evbLYjRBRBINB9u7di8PhoKioCJvNpnUkIbqUNIpCCCFSzu23387mzZv58ssvGTRoEC+++KLWkTKOqqoUFBRgNpux2+3U1tZqHUmIlFFTU8Pu3buxWCwUFBTUH9crRHciv/VCCCFSUl5eHkuWLOHdd9/lxRdfZPz48bz77rtax8o4JpOJ4uJiQqEQu3btwuNJ9Nw0QqQvj8fDrl3h0yoVFxfLsYiiW5NGUYjubt1CDswyofxtU5Nv77hjPMoVq4HlzDRP4a7dyd7xdzw4QodiMmGq+8jKG8CwmUv4uN3/p67n6ZMuYUnUBTzXc+tIff0+TKY8lAVfha/auYqbTjmAYcOGsc+wifxuxfb6W1WtnMeJBwxj2LBh7DutlFebn7fcvYZFRxzAlM/bm1W018CBA3nhhRdYsmQJd955J5MnT2b9em1Xd85EkemoDodDpqOKbkemmQrRkjSKQnRrbtY99Bju309h6EOLebnLBxLMFK1w43aHP7zblvPH76/k8Fu+at9m3Nt4/b0yok6c27meL6rP5tGqyH4qCd15ALCNf519EX897CnWbdzI9uWT8c26nL9WAzuXcdElX3PwC1+xceMGXtn3JU6e+yZ76jZZseZhLj5oKteslZGXrjRu3DjeeecdrrnmGi688ELOOOMMtm/fHvuGIm6R6agWi0Wmo4puo6amBrvdTnZ2tkwzFaIR+UsQojurWMXflluZtOBmLlOf4aZXmg+bNedm80PncszQ8EjbfhNnc/8mD+x8jFOKpoabLGDdrN4oRy3hJyA8oncIl26OI0/eGP4wbTh8t5E9gOe9+zn34KEMGzaMIaOncOYrdU3BJ3MYfMhUzj24PwXDzuPGWfN52/kBDx05m0eq3Lx7mhHlz3XN5vr3+VTdyHNHDmPAgGGMmf0kGzzA1pUs/uEY/j73ACyAMvxKnv3wAc7JgsB7z/HCuJnMHmoETOx36UyOff2fvOkBWMNTd37FkEXP8+dRcq5MLRx77LGsW7eOadOmccwxxzBnzhxqamq0jpVRZDqq6A5kmqkQbZNGUYhuzPHvv/PkkJnM3n80Z13Yn68ffoKNbd3gvTkc/TcdF324kY0bN/LZRXtYcsq1vFxwAufu/yVPfuoB1vDapwZ6bF3F8mrgu1Ws0k/jwiGx8/h3vs+D/9wEh46mR8Uyzj3/ebyLPmfjxo1sWnYKjjkz6htO8/oyej29mb0bn+TWR0o51jKRSz98mFm5JiY8uIlf5x0AQG2lmXHHz+aGtzaybcMyrvzlesbMXQ1b1/N1bxNV807h6AOGMWT0Gfx5k0KBCarKdkJJCT0iwXr1ok/NTn6uAjiUy1cs5qoJxeRLn6ipGTNm8P333zNy5Ej69OnD9ddfr3WkjNN4OmpFRQV+v1/rSEIkzO/3U15eLtNMhYgh6glkfD5fmzeKdX1n1QGEQuH/zAKBQNTbXTVhDJuH9gOIOXUgcvxFsuoAnE4nFoulS/ebavmaPy6xLjffZir//iUzn/a+47GHP4WLHmUYwFkXcOzNf2Pu55fwxkHR31X99t/v8cu0fzO9OHzZetaVnHr1bJ7adD/PnNqf05Z/Sqjfx7zS70put/2dJZ96OO2//+bT4x9lXNQtuqg+OY88U/hSVt4A9p32COsvHwrv3M4Lg8/ku4NyAVCGz+Tyg67jmA+289BI8Aw/ihOHRM+pLxlAbyIZ/8GqsyLXjOGcBVO544KX+XyGB926t/nHFW/yyV+Hoqy/nzMmz+DS4Z9yXSv3mN/U1v2ZnpL5+6zV3+8FF1zAxRdfzJ133onBYOCOO+7giiuuSJl88UrlfDabjaqqKnbv3o1er8dms0U9p5jW91+sRlbyta475PP5fNTU1OByucjJycFqtRIIBAgEAknJl6p/vyD5EqmD+PNl2rkW4zvTaBq5aMK4+gcy1oOV7DoAu91OUVFRl+431fOJFPXJQyz52k/RwgkMWBj+ls9bxo7732DPslPi3Ii7/ivLCWcxaenLrBryBeuOf4Szs1/lklUvs2qtj2kPHUDg2ZOwnf0aLoBh17Lqu/MAMzkrKtk9Od7QjvqvguY82n7LI5xv2/KHeb/3Bcw8OLfR901k5Q2nd56OOdOHhrczZibn7v9nLtrgYVFJL/iojD0QHlXcuZNfevbimDZmJbX8+e5kSrw/lkiKBQsWcM0113DdddfRp08fFi5cyHnnnad1rIxhNBopKirC7XZTWVmJqqpYrVaZridSnsfjoba2lmAwiM1mw2q1ah1JiLQQtVGM9x9/LeoURQGgyh27a9cin6qqKX3/aZWvwuGKqz6T7r/UVsm79z3LN394BcfjxzU0XO/9H4OPv58HfzqFi6LcasSpk+h76WJemPsw04uh5t+P8VzWoTwwFDCewJnWyVy5xMK0F4aSbTuBY26dz40FZ/L8/qDb/1Wcf2i8te94sK2Ih53A9P/+lZs/P59/HpRL6LvH+dv/s3ff4VFVWwOHf5M66QUSEhBIKCnSEnoUKYoQ4NK8SBFFQKQJAqJSbHhVIAoighQbIirNj6YCFqSIBmkJNYWSgEJCgPQyk0z5/pgkJDCpk856nycPmTnr7LPOSWaYlX323gf9GfpmU4zNWmOjU5GlAqxAEx9LgtKLhs5KrM5/y/iPzQjcO4MAfSzfL9tO1NCfCAjQMcjtK9buusGzgxpAzHa2XOjChABrzB2GMnzeOj6IHkKIj55zq9bx26PvsrGYz8Pmo+8+v9qhLry/FIyztLTkww8/ZN68ecyZM4clS5YQEhLC4MGDa0R+xakt+VlaWuLg4EB2djbp6elkZmbi4OCAUnmny93ConR/h67IODMzs2o5bmnjJD/T4sqTn0qlIi0tDXNzc1xcXLCysgLK/ofuuvT6rerjljauLuVXl9S6MYrtGxvueVt37nI1ZyLKYl9EjOEbL8/qTUQYxG3j471NmDKvb+FeuUdf438dj/L2mr+N7/foB+x7MYPl3Q2T2XT92J6Xdn7EEGsAL/oNdSRKHcTotoB3Lx5x+Je4fiN5pDw5uoxi7dbBaKZ3wc/PD99RO3FcuZlv2hqJVQYy4LFzhPj0ZE60moPTfGn0vmEym4azN7Crxf/xlK8ffgHBLHjgEyIWtQMCeWPrAjot6U4TPz98hq7HbMV6QnwAz/F8/JEPJwb64uXlR5+zw9j1Ud87YxZFjefm5saXX37Jzp07WbduHQ899BBHjhyp7rTqFCsrK1xdXXF2diYrK4uEhAQyMzOrOy0hyMzMJCEhgaysLJydnXF1dc0vEoUQpadQqbP1Wq2WzMwMUlNSadbMu8SdqvPWyfj4eDzf+hJuJjF7RG+WjOhb4/Lz8PCo0uPW9PwSklNpMP0DyFCxevpwJvfqVKPyq4zrZ2VllT+eVoiaSqFQlPh7WtPfX0obFxoayqxZs6hfvz4hISG0atWqRuUHNfv6lSY/rVZLYmIiarUaFxcX7OzsiozNG2tWUg9RaeOgdEMrKvq4kl/Nyi8lJYW0tDTs7e1xcHDA3NzcaJy8fiW/ysrP0tKSy5djcHRyxNbWrsjfwdqi1vUoAhybOxZslSzd/Bst3lzDb+cvVXdKwojLCYks+umP/CJxUK8OxRaJQghRWYKCgtixYwdTpkxhxIgRjBkzhri4uOpOq04xNzfH2dkZNzc3tFotcXFxsg6jqBJpaWnExcWh0Whwc3PD2dm51n9AF6ImqJWT2XT0bsixd6bQacUmLp29xOOvS6FY080c1otlT/Wv7jSEEPe5AQMGMGDAADZs2ECHDh0YPnw4ixcvLjS+TpjGzMwMR0dHHB0d8z/A29nZYW9vLwuZiwqj0+lIT08nIyMDe3t7PD09a9Gs40LUDrWyUARDsaj/8CW2HD3L3rOXOBBzPX9b3q1UeRPfFKWi4wCysrOxKeE++PslPw87G/7TuhkTugXgYmdTYm5CCFFVnnnmGZ555hmWL1+Oi4sLc+fO5a233qrutOocBwcHHBwcyMjIICEhARsbG2xtbUv1/5UQxuTk5JCZmUlWVhYODg54esrcB0JUllpbKOYZ3rk1wzu3LvRcbbiH+X7MTwghapoZM2YwY8YMFixYgK2tLQsXLuSFF16o7rTqHDs7O+zs7MjMzCQlJQW1Wo2trS2Ojo5yi6AokVarJS0tDb1ej5mZGba2tjg5OZW8oxDCJHIPiBBCiPveggULuH37NhcvXsTb25tvv/22ulOqk2xtbalfvz716tVDr9dz+/Ztbt26RUZGhkwAJgrR6/VkZGRw69Ytbt++jU6no169etSvXx9b25JX0RVCmM5oj2JJPUCl7SGq6Dgw3JNe3vxOxMaRnHVnPT+tVgtQ4l8zSxsHhhm3nBJSKqS9mpxfs/ouPOBcugVrq+rnW9lxULH5CVETVOTvc21//VpYWPD+++8zc+ZM3nzzTRYvXszChQsJDg6uEflVxnGrKz+dTodSqcTS0jL/VsLExESsra2xsbHBxsamXPnlzaJpan6Vdf0kv5LjsrKyyMrKyu91trW1xdLSEo1Gg06nQ6fTVWt+RbmfXr+SX9Ht1bW1Fmv9rael8f7ev3j9x8NwM7m6U6lTmvp7sfK/vejbpmV1pyKMSubw9McZvuEf4katJ2P1XWsmVpK0bU/iveE/RG5/Nn/dQVXoMibOXMPRFDU5zj2Ztn4ts3z17BvWkAE/Flx3TY3afy6HwhYZX3tRFcqKxyfz09JT7O2c+1zcHt6aPJfNUWoy8aDN++v5aVBTAFJ2v8roebu4qAaN/ziWfTWHgffcrZTM6Q8nMnX5URJcnHH1H8dra2YUjjN23FLml7x/ERPmrue0GpTKAEatXcu8dnLLVE3WsGFD1q9fz9mzZ5k/fz5Llixh4cKFdO5c3A9flJelpSVOTk44OTmhVqvzi0Y7OzssLCywtrau7hRFJVOr1WRlZZGRkZFfHLq4uFR3WkLc94wWiqWthqsjzszMrEztDVm5iZ2/nwBbJeP+040W7i508m4EVE6PXWJiIq6urhXSXk3N7+ezF/krJo7Qo+cY+O66EtdGzFMZP9+qjitLftUvjG+/NWfI0XhW+VTB4VQR/PLmDF5ae4jbD/08FqpEAAAgAElEQVTnzvNJ25k8fD0p3x4lsrsTt74ciNvkNfTbP4PHvk9ElR+3n3ndZ/Ln8rlGi8Sk0NXMnbSA9dEu9Mx/Npb/e3oiy/v8yPWd7bCJWEjfHjNYfnEHMzI2MnHyabr8eoofffWce+URWs8M4Oa6vvkFLAC7pzPgUzv+dzSWcQ3g1pfD8R3rQdj2ETQp8rilzE+1h3nPbMZi2ymiO1uTs/sZmo5dTLeiCuFqUJ3vz1UdV9b8AgMD2bNnDwcPHmT27Nk0bNiQkJAQWrZsWSiuuvKr6riqyM/S0hJ7e8PdKllZWaSmppKWloaTkxM2NjbFtmtmZlaq9figdOv2VXSc5FdYTk5OfnGYN4a1fv36RcbL68O0OMnPtLja9fmv4tTpHsWXN/9sKBLdXLj0zmSauRcukCpnshi7Gj6Zjen5Pd6qOQAbQ0/x1AffMGXFFvq0an7P9RXVKYINAyexKyMBzbM9sfloLpn9FpPUJ4m/D9jQZdcR1qcv4/l5aziaokCn9KLD22vZOLgpnHyVtlOv0qNBPGdSkrme7MfEmQFE7DhAbEws19q/zY51I/BjPy81GsnujTeI7A7p25ax0vwF/m+ZM35b72Si3f0l61vP4mZ3Qy9a/fEbuPKQqnCxRjJ/TX+exb2/JaO7sd62UL5edAqfFZuZ//Ik/sp7OmY3ay725pPd7Qy9pf4v8e2heMytQPvDd2zpMI5PfA29Ea2mjuPxLpv4Wd2X0QU6KK5FRPBvr6WMa2B4XH9oMN1e3Mj21BHMcCziuKXNT9mP1Rd7gdIaUJESn0ymc0eKXzJa1DQ9evTgyJEjbN++nQEDBtC9e3feeeedYj/UCtPZ2NhgYWGRf0tkSkoKOp0OW1tbbGxsZBKcWkir1ZKVlUVmZmZ+Yeru7i69xkLUUHV6Mpul+08AsPm5QVLEVIJhHR9kTL8gAN798Y9qzkYU5s8zPyxnkF0Az+88wNIuesgI42j/X4iJP8KmlhsZM3Yz2SuOEhkZSdTGwWRMH8HUaMPeurB4bD84wIEDR/iq9c+8st6GV3bsZd/fq+n3yyI+jgYIYsGJv/kr9248+6c+Zdeiwfg6FZ6Q4kbsZfCI55vhPWjv54dfv7nsVbgUvg325EKmH36EjQu6FHF7bBAzdq1hdo8GuBRsPiaM0w2VpLw6mMfa+eETMJL5UQpclZASHwceHncKUk9PGqXF8c9dQ3Qb+fvTeP8aVl9RA8lcXLeRY5p4riYXc9zS5gegVELcRia19aXl1At0mjcSv+KaEjXW0KFDiY6OJigoiLZt2zJ37txix0uJimFmZpbf2+Tq6operycxMZEbN26QnJxMZmZm/p0wombRarVkZmaSlJTEjRs3uH37Nnq9Pn9SGjs7O1lbU4garG6/OhOSAO5ZPkNUnFFdDNe24DqWooayC2RMz9xus792s6X5KBZ0NvTeKfzHMaNzNKsPXAFA7R/Ef3wAlHh4NIKArobiRulBM88sLicbtjl6eOFawjrlqiQVZnv2k/XaLk5GhvPLk4m8M3guv6rzIpLZt/BzTk6dy8gyD91TYX5yD58+/D4/nIrk1LoeJEwwFLxZReyhuTvf/iv4caKWb/r40sRvCJPMH6OPmxKHsqZSHM9RrD19haTQiSieHsyc6IpsXFS15557juvXr+Pu7o6lpSWLFi2q7pTuGxYWFjg4OODm5oabmxvW1tbk5ORw+/ZtEhISpHCsZnmFYXJyMvHx8dy+fZucnByUSiVubm64u7vj4OAgvcFC1BJ1u1AUQhSgRFlsUZeR/50tzhV2VA9vT3RB43i+nROgpMn4cTx2K4yDeT17SXv49EBb3hrpW/bGnf1p6NyLWcN9sQVsAscxpu0pNoer8fDwhPh4buXFxsXxr7sn3nff4aRSYfHEp/wZFcvVyAPsG2TFpWxvWjYo7xkXkBzGLzuOcDXvceBTPNvyNJ+Hq4vbS9QSL730Uv76bs7Ozqxdu7a6U7qvmJmZYWNjg5OTE+7u7ri4uBQqHKXHsfIVLAzzegxzcnKwsrLKLwzzxpdKz6EQtY+8aoW4Hz3Un+FnNrLgqKFa00es4+OD/gzt2rQMjahIjY8lUVV8lG3/p+h9ciNfGTorSdn9HUfqB9HNPTcgdDc/Ne7HwCaF98tOjuV6cgmNt+/HILe/WLvrhuFxzHa2XOjChABrzB8dyvAT6/ggWg2oOLdqHb89OpK+1gDJJMTGkwlw/ktGB89iU4rh+ZPvreLwEyMZWsKQmVLlp4/lu+cmM/1QblUc9iXrL3RmelcZj1OXLFy4kCtXrhAWFkazZs3YunVryTuJCnd34Xh3j6MUjqYrqjC0traWwlCIOqhOT2ZTFsdjrrP52FkuJCTSr3ULJvXsWN0pCVF5XEaxdmssE6Z3wS8FdEovuqzczNq2wMnSNhLKgg53JrMpkvdUvl8dy+hBTflcbUOOc1dmbF5A3sp0t2NiyPAbhv9du/0xwZfejQ+hX9almMYDeWPrAm5P6k6TVxUolR50WLGeEB+A8Xz8UTijB/ripYYc/yns2pQ742nEKvp3PcQz/+xlRvuXWD9xDGO7+PE+SsyD3uDwJyUvJVKq/FyGsnZrJE9P74KfGnRKPx7esJkFTYreRdROTk5OrFmzhpiYGObMmUNISAghISF0717ci0NUprzCMW9NRp1OR3p6Omq1GpVKhV6vx9raGnNzcywsLPK/FApFNWde/fR6PRqNJv9Lq9WiVqvRaDRYW1tjZ2eHo6OjFINC1HEKlTpbb/gLUQapKak0a+Zd4k7VO2tnfKln7bQaMR8A/bYPio374nA4U1ZsKbTtoS6t+XPOs5WanynX5XjMdUau2wWATm+YPcOsFP+5ZWVnY2NlVWyMsfY2jRtER++G9+S3LyKGfgs+w7tVMy6/M6XM53G3qrp+lZ2flZUVen2xs58IUe0UCkWJv6f34+u3Io574sQJ5syZg0KhYOHChXTqVPISQnL9qjY/nU5HdnY2OTk5+cWQRqPJf11YWlpibW1dqIi8W94C9aVZLuLmzZu4uRU/53Fp26uouILFYFxcHK6urmg0GvR6PRYWFoWKaGtr6/ye2Nrw85X8JL/qyM/S0pLLl2NwdHLE1tau1o/HlR5FYMqPh+957q+/z/LruUv5S0HUNEmZWVw6e6lKjyeEEKJ0OnTowG+//caePXuYOHEiPj4+hISE4OXlVd2piVxmZmYolUqUdw3e1ul0ZGVlodFo0Ol0+beqajSaQoVT3gfAoorImkKr1ebnn/dv3vcFz8Xc3BwHBwcsLCyK7CmUW3aFuL8YfWeLj48vdqe86cBLuuWgouMAMjIySp1fnqLi8+NS0o1uT0xMJD7ertLyM+W6JCYmlphLRcq7FgXpdDqSk5MBQ09lSde5Jl2/qshPiNqgol5vULdevxV13Hbt2vHTTz/x448/0r17d3r16sXrr7+Og8O98+rK9avZ+SkUivxF4vMKrpycHHQ6HXq9HjMzMxQKRf6/ed/nPVapVGRkZBTadvf3er0+/zm9Xo9er89vv+D3ef8C+Y+NxWm12vz1CvOK3IL/5hWRee2U9NmiLv98JT/JryLya9iwYbExtY3RQrEudP0WVFR8Xtzq0cH33Hrq3aoZIx7pVKn5mXJdmmfp8G7VDCD/P4vSjKsoza2nxtpr/kCje84rJycH51uGItvGyqrE61yTrl9V5CdEbVBRrzeoW6/fis5v4sSJTJw4kTVr1tCxY0emTZvGe++9V2Pyq+nXz9LSklu3bhEdHc2p0+c4HnYKKwsLuj3chU4dO+Dj41Pt+RVVrOV95d3aWVTxp9fr8wtPa2vr/ALS3Nz8nqIy7xbZvLiiis/S3ioK1f/zlfwkv7qSX11Sc++VqEKTe3WiubsrG/8+S2RCEmO6tGJyr5LHk1Snjt4N88cEVtcLUQghRNlMnjyZyZMns3DhQiwsLAgJCWH27NnVnVaNlJCQwPnz5wk/dZYzZ8+Tna3FvWFjHnigKX37D0en03H5UhQHPvqUtNTbtGv9II/37kXbtm2xKuEPopUhr/ewKPb29jg6OhbbRkV/wJVbRYUQppBCMdfjrZrX2PGIQggh6pb58+czZ84c5syZg7u7OyEhIfTr16+606pWcXFxXLhwgeMnT3HmzHm0Wj0NGjbmgcZe9B30FA4O9xZZgR2DCOwYRHa2mthL0WzY9AP/frCcVv6+dO/2EAEBbalfv341nI0QQtR+Mq+xEDWJaj8vNVKg6Lf+ziLtAH9Np3lQCCeA6+91RDHrYMUf+/+exFahyJ/cQal0xjEwmHE/XyljQyqOLhzEM4eMbUsmetVwHvb1w8/Pj+ZdR7LoVO4ag6oIfni+O35+hm0thobwQ4rxI9z87kk6NnDGIXAee8uYXbmpQlnxSDuCjxZ4LmYjM7q3K3AuauP7VnRc2GrGdPHFz88Pn4Bgnjl0w6RTE9XD3NycJUuWcO7cOf744w8eeeQRdu7cWd1pVZlr165x4MABliz9iKfHPs+c197hx1/+xFxZj/8MfZpRY6fyaJ+B+LVqi1u9etgqrXBysDH6Vc/Fibbt2jNw6HAmTHmFxs3asO+PE8x4+TWmz3iZzVu2culS1U0AJ4QQdYH0KApRg2h2r2KdzwiGn1vN4uhnWeVTtcfP6rqY46Fz6ACAihvbJhI0YibLr25nRvF3TBWQzIWfwjjWzcimv95g0Md2/O9QJMMbQNq2J3lwxAICI5fR5pNnGHRrOhGRz+JHMiemP0LHmQFkrLt7TUMVR7/7gRMf3EA/xsmk8y2tpNDVzJ20gPXRLvTMfzaWz5+Zw4EXjxE5vAE5uyfSecRcOp5axuPWBfeu6LgIVjy/iNA3j3FhUAP4azodnprLt1HrGF0oTtQWbm5ufPnllxw+fJglS5YQEhLC4sWL69wajP/88w/R0dEcP3GK02fOYmlti4enocdw6PAu2NvbY2VhgbW1BRbm5pibm6G0Lt8QCA83J9q1bYM6O4d///2X6ItR/Lp/JaqMVLp26cjDD3WlXbt2sg6gEEIUo26/Q9oaprw+HnO9mhOpuzb+fRaANu4u1ZxJXRDPplX7UYwK4dXBV1m97CCZJeyh/n1ZoZ6lUTuvABF83qEJ3Q8ZeqM0257EyXkUn6cAqDg5oSEun5amB0pJgydG0dcsgtBI8nv82uf2+LUetZZ9KQB7mOLak5Ej2+Ht0ZWxcyax6OxNEib25JlDaohYSEenISzNBq3nE8xfu4DhDQxHcAgMwj8xjttqsH3oNX5ePBI/AJwJ6OoF8fH3XIMzCx9nzh9qLBb2pfWnUSQu7Yhfv5H09m2AYtRm/lVFFp3nAz0ZNnkIPXt2pb1fV0au/Yo3RwTTv2cATXvNYlPuNdo3zBrF/FO5Rwzl60Wn8FmxmfltCqw5GLObLdGP8epgw8lY9p/CUIvdLD1VON8KjwNs9FnoklUAqFUKdEpn6kmRWOu1aNGCHTt2sHTpUt544w0GDBjA2bNnqzutcrty5Qq//vorCxd9wMinx/Hm/z5g36GT2Ls+wLDRk3j62ckMGDiEjh070KxpQx7wcMW9viNODrbY2VqXu0gEsLK0wM7WGldne9q29uM/AwYwdvwURjw9iRzs+XLDNp4Y/jRvv7OIgwcPkpSUVIFnLoQQdUOd7lGcPbAbSzf/RqeVm0n832Rc7GyqO6U65URsHF8fCgNg2qM1e/KfqtajR4+y7xTxJR8d68ir3zWlQ8enebDXMr5c0INpDYqIT9rImLGbUXx/lMjOTugjVjO47wim+h/h9SfceX57OHRvx9FtYdRTavj6lJoJ3UP5/kBbXlhYVKMFJXP1y3XstQrkNV+4/PqTDLr1ClGnnsXHOrfHb7IHNzdaQUYYR/tHE7OpARDPt4c78c6iA2zoDjCV3afGY28F5t69GOOd1348+15Zza+jP2eHNdgGDaVP/rnt5/XFp2nx3ufcPbqozfwfCPnLg5kTD3J2kDWJSyEq1pMVp2/wmzVcfrl10XlmnuTkQxe4vKYB2m8HonxhJ8ui9rK7gYp9wxoybPNcRk5sQI+VUVxTeuUeMYgZu4KACFYUXJs+LoKYhh40yS/QPGnu9A8b7p49u6Lj8GfCilmsD/bB/U0XUuOdab/lIMHF/SiLUK7fU1HpgoKCOHjwILt372bUqFEEBAQQEhJS46ddj4mJ4dy585w4eYrzEVHYOTjj0bAxDzT2ZlSHnoZb2q0ssVFa5fcaVhUrSwusnCxwcbLjgUYN6NipM5mqbGIvXeCnX/9i7Rff4F7flR6PBNG+fWCNv9ZCCFEV6nSh+Np/urP073MQcx3X2ct4+dGO9G19Z8IajUYDUOJCuaWNA8N6g66JGRXSXk3NLykji71nL/HlD4cBGPefbjIR0F1SUlIIDw8nICCglHuoOP/JF5zo/yF73QH3cUxp1Jrpm6OY9qKv8V3+2s2W5qOI6Gy4/VLhP44ZnV+j94ErrOr3BK2nHiBcreOHUx2ZOfM6M7aHg8U2djYeyh53403aHHmLx5wX5T5SUs+vJ2M3r2GCUyyf779B4KJn8bEGcKbD1FE8HLyXgwwCu0DG9Cyq+HTG3evu0w3j+2eG84zl64Qt7lHo1lJtzEamDl7AzxN2cX5QaQpaoOeQ3NszY/m9uDxpz9DcPM09PXDxb03vBoZzdfZUkqwy9NJZeHhRuo+Jznc9tiVFWclxSfuZNWYLyu+vktCnAVlhCxk0ZAQLAg6woEmpkgYgLCyM1NTU0u8gqlz//v3p378/33zzDZ06dWLYsGG8++679ywQX10uXrxIVFQUx06c4ty58zi61Kdho6Y0auxHYFBfLC0tsTQ3Q6m0ws7WGivLmvGRw8rSAldne1wBF8cA/PwfJFOVza2EeE5HRvPD3v1o1Fk88nAXunbtTJs2bao7ZSGEqBZG37VLWgektOuEVHQcGBazLG1+9laW3HhzAq9s/Y2v94SyZNOvLOHXUh9LlKC+M8v/25Mpj3Yu9mdSWT/fklTn71/btm0JCwsrfaGYtIf3N/6Dg+UMOnrNAMA8yRKWfcSOSasZUuoMc/8I0L4fT6bPYs/eRPa06Mdvg6/x3bgD7LQ8wPlRL9OEUN5p/hBvXgawpt7mG9wyh6yub/NH/hjFQgkaPVpuXQUoKfVn15iNTBq8gN8HfE7Uoh4UrG1Sdr/IgClHafzxL8QObgqA9tuBODz9I1kAfnPZEzHn3jZLOPadPMGmoj5je/rjlXSMq2rAGiCOSymN6Hb36jMVHRexjc0O/djcx1Dw2gROZXKLd5h4RM2CJqW///TkyZO0a9euwl5vUHdevxV53IrIb8SIEYwYMYKVK1fi7u7O7Nmzeeutt6o8v9u3b/Pnn6GcOHWGiIhI6rt54tmwMQ80fZCODwdjbm74SGFpboa9nRIbG6sq7TUsDztba+xsrdHpdLg42uLZqBGdg7qTkZFO7KVo1nyxkWv/LqRTh0AeDupMYGAgtrZ3/rR1P/z+VeZxJb+qiQPJz5Q4KH1+dW1puZrx571K5GJnw+djB/LBk73Zevw8FxMS87fpdDqAEgezlzYOIDMzs9B/Iqa0V5Pz69u6Bd1bPFDi8e5X7dq149y5c6WOz9j2Cd+4v8CPEcvu3EKYtJ2xLSYzYedihhi71A/1Z/iZ5Sw4OpZNnZ3QR6zj44P+DH2zKdCUp4Nv0X/OTqKmTqW+/3UevTWSGVu8eeuQYfsbl/S8UbC9/ysuQy8e7dWA51evJ7pH7i2dqzZy4tHX6QH8dle03iYLbXJexZNMQqwKey8PbOO2M7lPCGeX/sKFQU0L7aP+/UV6vXSVZ345yCzfOwWP+egfyBxdMDKZnyooz6Jo4mNJUHrR8O4OvoK8ezGi/mLe33mF0cObov59Fds1j/K+L4CK1Ph4NM5euFZ4XCCd/v2UT46qeaSzNdqY7Wy50I4RAWUbpHjmzBnatWtXpn1E9Zo2bRqTJk3ivffew8nJiYULF/LCCy9U2fHfeW8xLfzb06R5W7r1GoxCoSi0XWlliaODjUljC6uLmZkZDvY2ONjboNFqSUtX4uzoSKu27QGIuRjFlu0/s+TDj1mz6mMaNCjl3Q5CCFGLGS0US1sNV0ecmZlZudpzd7bkhd5dC22v6IVtoWIXtK8r+eWpzJ9vVcWVNr/p06djb2/PwoULS7HwcwQbV4WinfVF4XFmLkN546XXWb/sK659qLh3N5dRrN0ay4TpXfBLAZ3Siy4rN7O2rWFzsyd6YbHiD4b2bAo0YFjPFBadG8rIMtyeWFCzd7eya/okRrZbRCZgETiF39aMoD577or0oGt/fzLGNKXZx6e43OkL+nc9yqibOxi69GXWXryG9XDf/E5ArbIfS64uw+6VlYTFWnG+nRPzcrepg5YTsX9S7gQ3FZ1nUVQcnOZLb5+j6BcWV0j589w3b3Ps2T54vaomx7krYzevzL0FNozF7Yew96sbnOxT0XHjWb/lBs8/70MTtQ1KpQcPfrCeJWWYITczM5PPPvuM5ORkef1WwXFLG1fa/BYsWMDrr7/OnDlz8Pb2JiQkhNGjRxuNrcj8srOzadu+CwCZWZmYW1hgbmaOjZUlri4OtbJANMbC3BxnR1vSzDRcvXado8eOc/NWApqcbNIys0hKSuKBBwr/9e5++v2r6OOWNk7yMy1O8jMtriz51SUKlTpbr9VqyczMIDUllWbNvEvc6X4rdCQ/ya88+f3yyy+sXr2aH3/8scR2hahKwcHBTJ8+nT59+sjrt5bnd+3aNebMmcOpU6cICQmhf//+lZbfE8NGMHLcjELPmZkpaNrIDQtzc8zMzAxfito3obpWpyU9LZWU1GTS0lLISE9Hp9cCcCL8DMkphkVdr8XGsHLZ+/njFu/33z/JT/KT/Aq3Z2lpyeXLMTg6OWJra4d5Db/9viS1791ciFpiwIABtGnThtmzZ1d3KkLkmzVrFh07dqRPnz4lB4sar1GjRnzzzTds3LiRTz75hB49enDkyJEqO76Tgx1mCjN0Oj0ajZbs7BzU2dnkaDRotVr0en3JjVQDrVZLYvJtYq9e5sy5kxw//icRkae5fv0qaWkp+UUiQDOvct6GIYQQtZwUikJUokWLFmFhYcGAAQNQFZxRRYgqlpmZSXBwMHZ2drz77rvVnY6oYK1bt+ann37inXfeYdasWTz55JNER0dX+nGdHe4d867X69FqteRoNKhzssnOyUGj1aKrxqIxR6PhVuJNYmIvcvrMCY4d/5PoqLPEx/1DRnpasQWti7NTjZlpVgghqlKdn8xGiOoWEhLC7t27cXFxYdKkSbRp04b27dsTGBhY3amJOi4sLIyTJ09y5swZPvvsM7Zt20bfvn2rOy1Ribp3705oaCjff/89TzzxBN26dSMkJIT69e9ekdR0drbWJU+ipgedXpc/SZpCocDM3AxzhQKFmRkKjIy/rgDZ2dmkpCaRmppMWnoqqqxMk9pzdnIkXv7YJ4S4z0ihKEQV6N+/P1lZWaxatYrQ0FA++eQTHB0dOXjwYHWnJuqonj17kpKSQvv27enQoQMZGcWvnyrqlsGDBzN48GA2bNiAv78/Y8eOJSQkpFSzY5eWVTkmdtDr9Wg1WrQACjA3M0OhyBvbWP6iUaXOIjUlhdTUJNLS01Crs8rdljGuzs7E30gwqQ1PT88KykbUVDX1VmshyksKRSGq0NSpU/O/l8Hgkl915ifuD+PHj2f8+PEsWbIES0tL3n33XebNm1fyjqVgYWHiJA160Gp1QO6STAoFCnPDZDhmCsU9y28UlJGVTlpKCqlpKaSlp5KTrTYtlxIolWVbfqYoUkjUXcX9vgpRW8kYRSGEEKKOe/nll9FqtaSlpeHs7MyaNWtMblOlMu12zrvpcnsbc3JyUOcYJsQxjG3UkZ6exvW4f4iMOsuxE39x5vQJYq9cJDHxZqUXiQD2dnaVfgwhhKhpjPYo5v1Fuiglba+sODAsBi/5lS8OJD9T4kDyMyUOJD9T4kDyMyUOJD+At99+m5deeonXXnsNb29v/ve///Hf//63dAne1Rn26acr8fRshJ+PLz4tfXFzcy9dO6U8llZrmHk0PSONixfOVVzb5WBpmftxSQEajSb/+pbl5yvqvvv9/aW8cVB38qtrd/NIj6IQQghxH3FycmLlypX88ssv7Ny5k4cffph9+/aVuZ1Wrdpw6/ZN9h/8nbWfr2b5yg/5+befuXIltuKTFkIIUeWM9iiWthqujjgzMzPJz4Q4yc+0OMnPtDjJz7Q4yc+0OMmvsJYtW7Jx40bCwsJ47bXXWLp0KSEhIbRv3974DncNwRo66Al0Oh1Xr8QScSGSCxeiOHbsCMeOHUGptKFl8xb4+vjRrHnLck18U9M4OzlxDbCwsLjnuta1XgRRPvL+Uv64upRfXSKT2QghhBD3scDAQH799Vd+++03nn/+eVq0aEFISAheXl5F7mNlZfj4YGZmhpd3M7y8m9GvT39uJMQTHR1FVFQkZ86d4cy5M5ibm9O0qTd+Pr74+vhhZ2dfRWcmhBDCFFIoCiGEEILevXtz4sQJtmzZQq9evQgODiYkJARHR8d7Ys0UxkeuNHD3oIG7B49060F6ehqRUZFEXogkNvYyly9fZPfen2jo0RBfXz9atvDB3b1BZZ+WEEKIcpJCUQghhBD5hg8fzvDhw1mzZg2NGzdm2rRpvPfee2Vux97egY4dOtGxQyeys7O5eOkCkdGRXL54gf0Hf2f/wd9xcnLCz8cPn5Z+NGnSBEURBagQQoiqJ4WiEEIIIe4xefJkJk+ezMKFC7GwsODhR3qUuy0rKyse9G/Fg/6tAIiNuZw/rvHvY3/z97G/sbKyonnzlrRvF4i3d/OKOg0hhBDlJH+6E0IIIUSR5s+fj1qtRqvRVFibeWMaX3xhFs8/N4kej/TExcWViIhzHDx0oMKOI4QQovykR1EIIYQQxTI3N8e9gSLIgOIAACAASURBVEf+YxulVYW1XXBcY2pqKvHxcRXWthBCiPKTHkUhhBBC1AiOjo74+PhWdxo130/PUE+hQKlUFvpS+M9iL6D9diCKXmu5es+OobzTvCndDxV4KmYjz/o0oOW8g9y6Jz6Md5orULgMZXlq4S3abwdST6Gk5S51+c7h5Ku0CwjhDyObEpd2QzHlYPnaLY4qlBWPtCP4aMU3LURdZLRHMScnp9idStpeWXEAOp1O8itnHEh+psSB5GdKHEh+psSB5GdKHEh+psQBoL/zbXZZ9qtjNBpN/nUr0/WrYOqAxfwaNodHjGzTlrINfcRqRvYN4dzrhzg10RdbYzE2bjR1CmXmjhvMGJM3S208O74Mx7KSJq11fe57LqmcK7TNpNDVzJ20gPXRLvSs0JbvqMmv35r+/lJX8qtray1Kj6IQQgghykSr1ZccJGo0VehC+gSvJX3lQc4WUSQauBA0KhirjTvu9FDGfMcK7TDG+tz5UHxj24sM6BJAQEAAD3oFEBTyd24PpYqoL8fwWDs/2vv50arnLNbdMOyjVu3nq8FdeNDLiyZ+wbx6MAWAxC+G0fztv4E9THmgJ2MmDyE4uCcPBQTQYfnfZOa2e+W7iTzWzo+AAD9a9RzLolNF9W6G8vWiU/is2Mz8NvK7K0RpGe1RLG01XB1xZmZmkp8JcZKfaXGSn2lxkp9pcZKfaXGSn4lxilI1VedZWFjcc72qoxfBOvwtBjovKvRcyrif0S/rUsKeWSi3z+TxL5Zz+OGvuDKoaYnHyuw3lqlbF7D86iSWNoHr323nzFNLeH79Wv4PQLWfjxYn0GtrOC83BWI+pE/bRXw7ZQczzr7C4PfNmXMwknENVFxbOpCWCw4ybiJYxMRz69ODnO/uRMYXA7FfsInx+yfhXujgERx+6DSX1zSAmFX0abuIz8YZ2h34cT2WHYrkMSdQhb7KYyNm4n9qNUOs7z6DIGbsCgIiWFGJdWJNfv3W9PeXupRfXSKT2QghhBBC1DLqgLfZU8Stp8W7ya87rrDkhz10fO5Zmn4cQMaL7YrpUQS1Mojng/+h1Y4olr6Yyec76vHKT01hfW6AsheLDnlzeO9XfLYxkvCw/VzKdiFLBddCQ4nqtZRxDQCUNJr9q6FH8ORPqP378XJ3JwDsAv1ptyKWm1C4UMSfMT1z73H19qa5ZTI3VXBp/++ci9Uyu8ee3DgVySovwm/AkCZlvihCCCPk1lMhhBBCiPuGG4FrNzG7RzDLts6g2+sjCD5kuOVT++1AbBUKFAoFCv957M3vRrbmwfH/pfV3Ozi7fx1bWoxiQsFqLm47Y1sG8+pBNXZ+wTz39mQ6mRs2KVR3HV4Vz/nYZABsKd04RI3y3ucUSQp0/ZbzV3g44blfp49s4tUmoYYJeBQKFAol9beklP7SCCEKkUJRCCGEEGVyP09mU/vZYK/MvTczcD7bP2pM9PCxLLkC5qN/IFOvR6/Xo49YRHDBGYzaj2Oi5kumvX0Iq3FDqF+wyYjd7LLvx5vLJvHUkJ74nNzNMa2KdKBhryB893/FlhsAKq598iStZv1Mlom3Mjfr/ygP7lnG0ijDuMS0bc/Qtus8flEH8cal3HPQq7g13Mm0AwlxH5NCUQghhBBlotPp0WhKO7emqAzW4W/x+F3LY1g6B/N6gmG7zYEZ+BTYZuY5jlVGBprWH7+Bb3sf45WRIfxZ7EoX/owe5cDBK0G82eOuQYAPTeWj1vuY6deVR7t25fEf6tGhaTzHY4GHPmDnq1qWd/cjIKArAw53Y/OaEdiYOlbw0ffZttCdg4N88fPzI+B9c6ZuXmxkfKIQorxkjKIQQgghyiw9S4Wzg111p3F/GrCB2/oNRW8f/QOZo4vYdukKbxR6woPHvvkX43VbIG+ejcp/5Dr7OPrZd/Yb/Wcmo3Pjxmw9zRijbSjxHf81f46/6+kG73MqvMDj9u8Tnvd49uH8fFYn9isQ1K/AY0O7v93dbrH8mX48iull2UWI+5j0KAohhBCizDIyy7nQei2lUt9f5yuEEFIoCiGEEKLMVOpsMtXZ1Z1GlVGp7p6VRQgh6jYpFIUQQghRLreTUqs7BSGEEJXE6BjF+Pj4YnfS6XSAYfHJqowDyMjIkPwkP8lP8pP8JD/Jr4rzy4stKDtbQ2JKOq5O9iXuX1fcunUr/+dUlusn6r6a/Pqt6e8vdSW/hg0blthWbWK0UPTw8Ch2p5zcabEtLS2rNA4ML0LJT/KT/CQ/yU/yk/yqNr+iPkwlpaSjVFpha21VYhu1VcEZXuvXr5//cyrL9RN1X01+/db095e6lF9dIn8CE0IIIYRJbtxMqtNrK6alp1fNgf7vSWwVigJLXjjjGBjMuJ+vGA1PXNoNxZSD5TxYGBsGTmZtmYeZhvJO86Z0PwQQwcoHzVEUWIbDytkLv3FrS1hqo6BkTk5og+LjK4WeO/3hIB729cPPL4CgWT9ztbgmVKGseKQdwUeLPkaZ2iOZE9PboBi6mczSnoYQdZAUikIIIYQwiU6n59qNxDpdLFaVrK6L+VOlQqVSoVLFc+ENdw6OmMlyI8NBXZ/7nktvdSnfgVSx/PR7PKaXwDa47crLV0V27HZeuPAS3d4+VeKe2pj9fDqwM499c6Hwht3TGbq1FQtORxIZvpEXzkyg6dc3jLaRFLqaSZ2H8MqxYirTMrQHkLbteSZtuVli/kLUdVIoCiGEEMJkdblY1Gg01XRkJQ2eGEVfswhCIyFxaUf8+o2kt28DFKM2c/7LJ2n+9t9kfNEbxdDN3MrbLWIhD/vNYocabmx7kQFdAggICOBBrwCCQv7mFvH8+Pyr/Jp5gFXdp/B5CqhCVzOxRzsCAgLwCejJkM1R5etNcw5k9FB/iIjkFir2DbNGMd9Y0agi9MOP+GvYBrY+U6/QlpPb9nF51GQetwaU/jw9rh1s3Hvn/PKF8vWiU/is2Mz8NsZXgixbe0DEh4z4+AE+WNC2LGctRJ0khaIQQgghKkResZiakVXdqVSopJTqmt01matfrmOvVSC9fQ3PRMV6Muf0DfQbR+ChNxRHdk+8wLPH1/F5giHm8hff8dfQsQzR7+ejxQn02hJOeHg45/ePweHdRXyb6sF/Pnufx217MvXQaibo9jBzzGZcPjtKeHg40fvn4PH6COaeLnvGmrj9rNwUBUEB1EdJj5VRXHu1nZFIJd1W7OSrZ7vgoixY5CUTE5MEXgXGg3l64pYcz7034AYxY9caZvdogEuRdWIZ2kvaz9xJv9Dm08V0d7Qu1fkKUZcZncxGCCGEEKI8dDo9N2+noFJlU9/VATNF7f+bdFJycpUdy+bIWzzmvCj3kZJ6fj0Zu3kNE5wgEaDnEEPPWEEu/Xix7wt02HSFuRMv8/mO+rz0eztQwqJD3hze+xWfbYwkPGw/l7JdyFIBBeceCtvGrwmRmA/vws+5T2XnJGMZmQJtnUrIOIvUQc44Kw2PrJy9aDH0c8JmGCpbCw8vKmYeSGWFtFJ0e/Hse34Oe6b9wCkfa7THKvhwQtRCUigKIYQQosKlZWSRkaWinosjjnY21Z1OuWWpVKSnZ1Td8bq+zR+hc+hQVIDReklJ+/H/pdnsTRxveY6vWo7jSBMgbjtjO88jetgspvUI5rkhvtz+YbPRZrM9x/Fd+CIeyX2siY8n28OJv5624uFvc28nHrsX/TrHu/a0wXFXMgl9ynqmRXHG29sFYuOBpoan4uK46dE771HltBe3m4/3RnHjcDs8XgQzVTKo/qBhr3j27Z9R9M9DiDqs9v+ZTwghhBA1Ul7v4rUbiYWWmKhNLscWPz9mjfHQVGbmfMe0tw9hN2UITQAidrPLvh9vLpvEU0N64nNyN8e0qvwJbGx0KkPvYmB/Hru5kWlbcid4iVnFf9sEM/c0PPRNNnq93vC1rm+Z09LEx3K9jB2y7Z94DLeNa9iXAqgi+GbdKRjak/pAdnIs15NVJbZRMK5U7XmOZ2d6CvHx8cTHx/PPJ49Dv7VclyJR3MeM9iiWtA5IadcJqeg4MCxmKfmVLw4kP1PiQPIzJQ4kP1PiQPIzJQ4kP1PiACh6rpASqdTZXLl+Excne5wdbWvN7ahJySnE30go9JxGo8m/bjVr3TR/nhrnwItL2vNN39zbRR+ayketn2WmX1caOkOWdwAdmp7heCzQOZABj51jnE9P0g4dYM2PsUyc2R2/NxWAB62XbGaxyfO5qDg4zZfePkfRLzQ2TrEI/VfwY/gYprT14rZCif3QlVwZ0wCAPyb40rvxIfTLip/ttVBcBbRXGjX59VvT31/qSn51bU1VufVUCCGEEFUiKSWdlLQMnBzscHWyr+50iqXRaIm+dLlqD/rfrej/W/Rm19nHC9XrrrMPF3pc74XD6F8o8IQykDFbTzPGaGteDPvxH4blP57F13/PKkWSQbxx6QpvAODPtPPpTCsyVslj36tL/BtDhxXX74pxpvP8XZyYf2+s8fb8mX48iulFxpW1PTAf/QP60SUkLkQdZ7RQLG01XB1xZmZmkp8JcZKfaXGSn2lxkp9pcZKfaXGSn4lxilI1VSKdTk9SSjppGVm4ONnXyPGLaekZnI+KNjo20cLC4p7rVdd6EUT51OTXb01/f6lL+dUl0qMohBBCiCqn0Wi5eTuFpJT0GlUw3rx1m/NRF6px7UQhhKgZpFAUQgghRLUpWDA62NlU6RjGpMRE0tPTUKlUXEvO4ly6FseEy1iZgYWFJZZKJXZ2NfsWWSGEqCxSKAohhBCi2mk02vwxjA52Njg72GFhYV7hx7kRH09E3E3Cr9/mrKUbuHrSyaUpFo1ssbOxJzsrnUxVJpmZ6SQk3cQy4TIeZtk0sqids7YKIUR5SaEohBBCiBpDp9OTkpZJSlomSmsr9Dp1oe1ZKhUqlbqIve+Vnp6BRqMhKTGR0CtxhNn7gWcAdPUGOzuwNOOSkzXjnZVk5ejQ6PSkawz/ZuToUGVlkhEXw/F/Y9FnHOPff/+lTZs2FX3aQghR40ihKIQQQogaSaXO5vbtW/xx6HC529BqtRy/nshlJ28ImgCNG4JN4Y8/HhZmOFkZvu52M8uKK3atcWzWipw2XZi25zC9zlxh1czxKBQVNMOPEELUQLVjISMhhBBCiDLKzEhny9VkLj82CUZMAp8m9xSJAOc1Og6kZ5NjZJ0ENxsLOrrb8KCzNW7u7uiDBvKFpjkdXnybf/75pxKyjmDlg+YolEqUuV9Wzl74jVvLnyV1pP41nZYBIfxhZNP19zqimHUQ2MMU154suFqWnEJ5p3lTuh8yMT8j+TYPCuFEGXerMCdfJSBgntHrJYSQQlEIIYQQddDNtAx2qp1h8nvg2xwsiv/Is0+l5b2kLJI0ukLPJ2l07E1Tsyw9m816PTFaHdi4cdb3SZov/Z4jp89VQvY2uO1SoVIZvrJjt/PChZfo9vapCmi7F2+f3MS0JjU1vyr04Hx27JhDh+rOQ4gayuitpzk5OcXuVNL2yooD0Ol0kl8540DyMyUOJD9T4kDyMyUOJD9T4kDyMyUOoMRV02uQWxlZ/JaqhAkzSiwQC9LqYHmqmgWuNtzI0RGmyuFPdeHCEQcrMFPAjUxo0Yfua/dyZJoV7f1bVvBZFOAcyOih/rx4OJJbXOYVm7X4XtnLXHeA7YyzWUvzG3t5HbBI3s/qIduZHqsixzmAp5evZV476wKN7eet9iE0CD/AgiYqor6cyNTlR0lSg9qjHy9vXsa4Bqbk58upYU709jmKfmG7uwKTOf3hRKasPU2GjTN+fkrSeAAFYfyv9RB+WxXNoe7WgIqTE1rTofM+bqeNpvPh1nTJiuWaKp6bBDFn/WrGNIUb215kfMghrqkhOxmcpqzlhzldqH/yVdpOvUqPBvGcSUnmerIfE2cGELHjALExsVxr/zY71o3A7/xChow3Z0X4Ih5RRbDr1Zks+OUKAPpeb7PuoxEEWN9ztkWqya/fmv7+Ulfyq2trLUqPohBCCCHqjIz0NH6N09CkUxBeqTdAp6G/oxUzPO34X1MH/tfUgVcb2TPc1RprI0MMtTo4kJ7NyhT1vUViHjtLqKc0fO8fTNfP9hAbG1tp56SJ28/KTVEQFED9EmLN4+LJeOlnwsPDOfJiBqtGLGBvUcF/vcLg9815+pdITkaG88vAs7yw4CCZJuWnpMfKKK69eneRCPz+CsEbGjH3aCTh4TuY7vAvNwE9gbwwpTF/rN7LLYCkPXz8c2s+GtkUUHEp1oWxO/dy4MARNrTYybNrToFqPx8tTqDXlnDCw8M5v38MDu8u4ttUw6F0YfHYfnCAAweO8FXrn3llvQ2v7NjLvr9X0++XRXwcXTi1a588w+B/nmLTqUhORu5l/q33eHZnShmvhBB1i9EexdJWw9URZ2ZmJvmZECf5mRYn+ZkWJ/mZFif5mRYn+ZkYVwvmbdFqNOz6NwPa9sDD1hpuXKFLTiKtvLsWirO3UNDawYr6luasunFvWbRPVYqlMJysIUUNGj00e4zHl3zN+WXzsLW1rYAzySJ1kDPOubWolbMXLYZ+TtgMX+B8sXtmth9HSHcnAByemMqw6fPYFQ1tjcReCw0lqtfS3B5EJY1m/1rKIrG4/MDCw4uGRvY6t+d34vp9x0AnAA8eHtePZrMN2+o99QLPLl7N5wmDmf7DJ6zv/QqrHEGFEgKCedzakKOXfzO4mAzKXiw65M3hvV/x2cZIwsP2cynbhSyVoT21fxD/8THs4+HRCNy64geg9KCZZxY/JVPgU3AyR3afo8WMkfhYA3jx5NbTPFmqa3FHTX791vT3l7qUX10iPYpCCCGEqBP++OcW1PPHt4FL/nNNXR2wyDDeM+ShNHGdRhdl/rdXHniUmZ+sN629fDY47komOdnwlRAbzl/L8m6DVAIq0vNCVYX31Cq5h42R5wAUd+2LKp7zscn89bQVCoXC8DXu5zLmVzRFFpBV4AmlDbZ5tzS7DOXFvheZt+kgG9fdZMSUvuSX3Mbyj9vO2JbBvHpQjZ1fMM+9PZlOBX6ctjgXn0whd18IIDmWs/FGnhfiPiKFohBCCCFqvdSkROJ0LqBU4mR95y//2Votlmm3UWg1FX9QywIfo+yc+ezELc6dq4zJbQpS4ukSx6FIwxSjN7d9x88Fxo86nNzDptwZTdW/f8ePbkMZUsTENQ17BeG7/yu23ABQce2TJ2k162d8vslGr9cbvtb1LXOGmvhYriff+/yDTzyK756v2JQCkMyJdXs4m99TraT91Cdov/RZFmrH80rnEg4SsZtd9v14c9kknhrSE5+TuzmmLVBAl4kHQY+24uK6TUQCEM/3Tz9Cm103ytWaEHWFFIpCCCGEqPX23lSDozvYFO7Wuphg6E20vvUvNvGXsb71L+Yqww2WJ1PKup7DXZTmkJMDGemQnAgPtOHJjzeb1maJejFrSRe0z/vi5xdAnz8a8XiBQlDjCdEvBjNkSDCPv2/HGztn8khRTT30ATtf1bK8ux8BAV0ZcLgbm9eMKHEcZPFUHJzmS6P3jcyA+ugKdr2YwYrOfgQEBPNWWiOaFdzefhxT6t8kZsrIkmcifWgqH7Xex0y/rjzatSuP/1CPDk3jOR5bvqwbzt7Arvpf8JSfIbcPW64kYmLT8jUmRB1hdIyiEEIIIURtkXj7JlrbxmCphOzCMxMmZKjYc/4KTV0dcbKxxMrcnOS4m1zCln2OxkbSFc8nIx1LnWEM4zmVBlILdJ0p7YhIcCI8PJyAgIByno0/086nM62YCLenvubPp4xseGgFkZHG92n42vH8iWtXJ/bLSxjf8V/z5/iScgrijUtXeKNU+Sl57Ht1EZPkKvGZ+jV/Ti1i15j97Ex/km9G3Jl21XX24UJtFXw8Zutpxhht6H1Ohd951GzJ2QJt+DP9eBTTc+PC8+KU/gz87BADizwvIe4/UigKIYQQola7kKYFi9x7GLM1qDU6rAssi5GereFcfCI6M3OylXaorW2xzEnDziqDDKVdmY51zdoat5xs7DRayDEy6Y1dPVbvO8racheK96dL77UicIUlHT7eyegyLEkhhKg8UigKIYQQola7nKqCJq75j08lp9O5viM6M3OON2uLV1oi9hmpnG3UHMxyP/royjdmMcPCkgwLS0APcUZGxNVrxKd/7mTNS3oUilowVWwN0fy1c6S+Vt1ZCCEKkjGKQgghhKi1UlOSwf6uFeKv30Kt0aGydQRLa2JdPTnb2PdOkQiG781M+Ht5tg50Rexv7U50dLTxbUIIUUsYfYfLyckx9nSpt1dWHIBOp5P8yhkHkp8pcSD5mRIHkp8pcSD5mRIHkp8pcQBFDDqrdllZmcBdt49mazgVG0/zoCKm+zSVTg/X08HSyvh2Swf++ecfmjVrZny7qJNq8uu3pr+/1JX86tpai9KjKIQQQohaK1UDKIysh5im4lKG0lDUVaRsLfybBjpAoTBeLFrZcOp6YsUeVwghqpjRHsXSVsPVEWdmZib5mRAn+ZkWJ/mZFif5mRYn+ZkWJ/mZGFfMcLucbDUoFFgW1cNWiS5rrIwXa83agNbS0PPnZA0OJuam00OK2vClK/C8hSXkZBeOtbIh9MpNZtex3gVRvJr8+q3p7y91Kb+6RCazEUIIIYRJkpIS+X3fD9R3a0Cjhk3xbNQEZ2fXknesCDodWBiZJvPGP+DexDCW8GYWJKnARVn2grGoAjGPtTVosg3rKeZR2qLXppTtOEIIUcNIoSiEEEIIk9jZ29PAoxEJCXHcTIgnPPxvlEobGjZqSsNGjfHweKDSehsVCgVojYwd0tzVy6fR3ykY84pFGwswU4BV7q2rOr3h1lKdHtRa0OggI8d4gZjH3BwcnSEjHVRZhufUKvQy46kQopaTQlEIIYQQJrGzc6DXowPQarUk3LjOtWtXiY+7yuVLkVy+FIlCoai03kYHMx2384pCt8aGW07jLoGLp/EdNHpIUhu+z/u3Itja3SkUc1S0cHeuuLaFEKIaSKEohBBCiAphbm6OZ8PGeDZsDDxMeloq169f4fq1f7iRcL1Qb6Nnw8Z4ebXEw/MBk47ZzDKH2KzcQrFhc8OYwcZ+pp9MWRXsQcxR8XgLr6rPQQghKpAUikIIIYQokUZT9gXq7R0c8fFtg49vm3t6G2MuR5OWmmJyoWhlZQ2q3AdKW5PaMolKBSjAwQEUOlxd7+01VcjtqEKIWkQKRSGEEEKUqGP79uzfvQVX9/9v7/5/o64POI4/uaP0y5UyLLbXwrWUlvmtOBQ2mVOciWuQxKCDuUTNJtGZzJglS5YsurmYmO1v8If9smRu2X7wS7aYbHE/qAgogm0ZELYJQlE6Boxee7Xf7rofLqifefaufffLUZ+Pn4r3urunkhjffM77rCa5po3GZPO0nl/oauOlS+G3kKitWwFn/wNXpeDi2fwX2CyEeAy+tBLicRqXXWT9+vWRh8+ePUsymZzyJS7fp63YtyvO9g6gv7/fvsA+abHxoChJkop67LFHmJycpKenh/1vHeDQ3r+yKtlCQ1MLrW0d03692uV11C6vKz6cnPo+iBXLlkFlHEaGYHR42h2z5vKX9QxeYHtLPXV1Jfy9SVIZ86AoSZJK0tTURFNTE9u2bWNwcJDe3l7ePvAOLz7/HA3NLdQ3rqG1rYPq6tn7COjklF85mre1dpLXMxejt6iYTxdOw9gINH0Zzp/h4V0bF6ZDkmbRkpHRsclsNsvwcIb0QJp169qKXj7P5fL/0o7FYvO6A8hkMiQSCfvss88+++yzr4z6jhw5Qk/vYbp7DlNZs5zGplZSa9tZedWqoq89lfPn+9nzxqtTbrLZLH/8ex9s2A4bbgt6v2n7aADOHIXUBqiqZeOx3/PSzx6nsjJ6b8cr/ffXPvvsK97X3NzMiRMnqVtRR01Ngng8XvS1y1nBK4rl/hlw++yzzz777LOvvPqSySRbt24F4PTp07zb3c3efW9yKT1EfcMa1rSso2l1quj7zEQ8HmfD1bUcHpmHm9yPDEFFFcSX5n/+4Cg0roOqWujr5ZldXbS2tn7maVf676999tlXWt9i4kdPJUnSrGpvb6e9vZ1dO3dy7tw5uru72bvvbd7a8xeubkzRnGqjta2jpD/JL1Vn8yoO/+sg5O6GWXzdiJEhON2d/7l6Rf5q4pI41DXC5CSbh4+yo+t7c/PekjTPPChKkqQ509DQQFdXF11dXQwPD9Pb28ueN/fxwvPPUd+wmuSatbSsbSeRqA16n+FMhptjwxx652X42n2zVP9/qmqhbTP0Hc4fEgGWLoXsBPT8mV/+cNfcvK8kLQAPipIkaV7U1NSwZcsWNm3aBMDx48fZ/9YB9vztJVhSQUOyhZa2dupXNRR9rcH0AJl0mpHRESYnJmhqSvLQju08EK/gJ+91Q8scfaFMRRVUJmBiNP/r8VE48BK/2nYjXbdunpv3lKQF4EFRkiQtiM7OTjo7O3n0kd2cOnWKAwcO8ua+fZy/eIlVjWtoWdtBZXUl2WyWwfQAQ+kBxkdHyWUnuO6aa9mx7S5u+epm2tvbSafTH/8/RGO/fp6nuruhfZYOiyNDkMvmryIOXoCxzCeP9Z/k/usbeXL3/bPzXpJUJjwoSpKkBdfa2kprayu7dn2bCxcucPDQu7yxZy//PPE+H/Sd4sbOTrZ+dyebbtpIR0cHS5YsiTw/nU5//POTjz7IxG9f5Bc9R6D5hplHZSfg5IH8IbGQc6fY+ZVW/vDMj2b+HpJUpjwoSpKkslJfX0/Xt+7izm/ewdDQECtXrpz2azz90H2klr/C7tf2Q2rLzELOnfj8Q2LfEX569y08+9iDM3ttSSpzHhQlSVLZqq2d+ZfcPLxjO+uaD/HEb17kcNV1sPraTx7MTsCHx2BlM9TW5389+qmPlI4NQebCZ1/0/BniAx/wp6ef4K4tN8+4TZLKXcGDYrH7gJR6n5DZ3kH+Zpb2zWwH9oXswL6Qz2YZjwAABMhJREFUHdgXsgP7QnZgX8gOrty+r2/cwJ5rOvjdK6/y7Osv82HtDbAqBbE45Cbg7D9gWVX0kPhplQmoWg7DwzQMHeP7t3Xw891PUV1d/YX45zeX72vf/OzAvpAdlN5Xyj0ZryReUZQkSYtadXU1j+y8h3tuv4WXX9vHC2+/whu5WsZiTbByFSyrhokRmMzBxFj+3ohjH0E2x7LcWW4feZ/7v3ET99754xl9DFaSrkQFD4qlnoYXYheLxewL2NkXtrMvbGdf2M6+sJ19YbvF0NfQ0MAPvrODxx/YRV9fHwePHmf/e2f4KJPh2L//SyYHiRhcc/UKqhMJbl2fYtP1d5BKpealbzqvN9s7+8J29oXtFlPfYuIVRUmS9IWTSqVIpVLcW+Cxyx8x+yL+h6EkXRZb6ABJkiRJUnnxoChJkiRJivCgKEmSJEmK8KAoSZIkSYrwoChJkiRJivCgKEmSJEmKKHh7jMtfC/15ij0+VzuAXC5n3wx3YF/IDuwL2YF9ITuwL2QH9oXswL6QHdgXsgP7QnZgX8gOSu9bbLfU8YqiJEmSJCmi4BXFUk/DC7GLxWL2BezsC9vZF7azL2xnX9jOvrCdfWE7+8J29oXt7AvbTadvMfGKoiRJkiQpwoOiJEmSJCnCg6IkSZIkKcKDoiRJkiQpwoOiJEmSJCnCg6IkSZIkKcKDoiRJkiQpouB9FMfHx6d8UrHH52oHkMvl7JvhDuwL2YF9ITuwL2QH9oXswL6QHdgXsgP7QnZgX8gO7AvZQel9i+1ei15RlCRJkiRFFLyiWOppeCF2sVjMvoCdfWE7+8J29oXt7Avb2Re2sy9sZ1/Yzr6wnX1hu+n0LSZeUZQkSZIkRXhQlCRJkiRFeFCUJEmSJEV4UJQkSZIkRXhQlCRJkiRFeFCUJEmSJEV4UJQkSZIkRXhQlCRJkiRFLBkZHZvMZrMMD2dID6RZt66N/v7+KZ+Uy+WA/M0n53MHkMlkSCQS9tlnn3322WefffbZZ599ZdPX3NzMiRMnqVtRR01Ngng8XvS1y9nSQn8xmUxO+aTx8XEAKioq5nUH0N/fb5999tlnn3322WefffbZV3Z9i4kfPZUkSZIkRXhQlCRJkiRFeFCUJEmSJEV4UJQkSZIkRXhQlCRJkiRFeFCUJEmSJEV4UJQkSZIkRRS8j2Kx+4CUep+Q2d5B/maW9s1sB/aF7MC+kB3YF7ID+0J2YF/IDuwL2YF9ITuwL2QH9oXsoPS+Uu7JeCXxiqIkSZIkKaLgFcVST8MLsYvFYvYF7OwL29kXtrMvbGdf2M6+sJ19YTv7wnb2he3sC9tNp28x8YqiJEmSJCnCg6IkSZIkKcKDoiRJkiQpwoOiJEmSJCnCg6IkSZIkKcKDoiRJkiQpwoOiJEmSJCmi4H0Ux8fHp3xSscfnageQy+Xsm+EO7AvZgX0hO7AvZAf2hezAvpAd2BeyA/tCdmBfyA7sC9lB6X2L7V6LXlGUJEmSJEUUvKJY6ml4IXaxWMy+gJ19YTv7wnb2he3sC9vZF7azL2xnX9jOvrCdfWG76fQtJl5RlCRJkiRFeFCUJEmSJEV4UJQkSZIkRXhQlCRJkiRFeFCUJEmSJEV4UJQkSZIkRXhQlCRJkiRF/A+7QSYNYveG5AAAAABJRU5ErkJggg==;" vertex="1" parent="1">
          <mxGeometry x="40" y="60" width="906" height="749" as="geometry" />
        </mxCell>
      </root>
    </mxGraphModel>
  </diagram>
</mxfile>
